<svg xmlns="http://www.w3.org/2000/svg" version="1.1" width="372" height="467"><defs><filter id="bevelFilter" x0="-50%" y0="-50%" width="200%" height="200%"><feGaussianBlur result="blur-1" in="SourceAlpha" stdDeviation="1 1"/><feFlood result="flood-2" in="undefined" flood-color="#fff" flood-opacity="0.15"/><feOffset result="offset-3" in="blur-1" dx="1" dy="1"/><feComposite result="comp-4" operator="arithmetic" in="SourceAlpha" in2="offset-3" k2="1" k3="-1"/><feComposite result="comp-5" operator="in" in="flood-2" in2="comp-4"/><feFlood result="flood-6" in="undefined" flood-color="#000" flood-opacity="0.7"/><feOffset result="offset-7" in="blur-1" dx="-1" dy="-1"/><feComposite result="comp-8" operator="arithmetic" in="SourceAlpha" in2="offset-7" k2="1" k3="-1"/><feComposite result="comp-9" operator="in" in="flood-6" in2="comp-8"/><feMerge result="merge-10"><feMergeNode in="SourceGraphic"/><feMergeNode in="comp-5"/><feMergeNode in="comp-9"/></feMerge></filter><filter id="inputBevelFilter" x0="-50%" y0="-50%" width="200%" height="200%"><feGaussianBlur result="blur-1" in="SourceAlpha" stdDeviation="1 1"/><feFlood result="flood-2" in="undefined" flood-color="#fff" flood-opacity="0.15"/><feOffset result="offset-3" in="blur-1" dx="-1" dy="-1"/><feComposite result="comp-4" operator="arithmetic" in="SourceAlpha" in2="offset-3" k2="1" k3="-1"/><feComposite result="comp-5" operator="in" in="flood-2" in2="comp-4"/><feFlood result="flood-6" in="undefined" flood-color="#000" flood-opacity="0.7"/><feOffset result="offset-7" in="blur-1" dx="1" dy="1"/><feComposite result="comp-8" operator="arithmetic" in="SourceAlpha" in2="offset-7" k2="1" k3="-1"/><feComposite result="comp-9" operator="in" in="flood-6" in2="comp-8"/><feMerge result="merge-10"><feMergeNode in="SourceGraphic"/><feMergeNode in="comp-5"/><feMergeNode in="comp-9"/></feMerge></filter><filter id="inputDarkFilter" x0="-50%" y0="-50%" width="200%" height="200%"><feFlood result="flood-1" in="undefined" flood-color="#000" flood-opacity="0.2"/><feComposite result="comp-2" operator="in" in="flood-1" in2="SourceAlpha"/><feMerge result="merge-3"><feMergeNode in="SourceGraphic"/><feMergeNode in="comp-2"/></feMerge></filter><path d="M1.504 21L0 19.493 4.567 0h1.948l-.5 2.418s1.002-.502 3.006 0c2.006.503 3.008 2.01 6.517 2.01 3.508 0 4.463-.545 4.463-.545l-.823 9.892s-2.137 1.005-5.144.696c-3.007-.307-3.007-2.007-6.014-2.51-3.008-.502-4.512.503-4.512.503L1.504 21z" fill="#3f8d15" id="greenFlag"/><path d="M6.724 0C3.01 0 0 2.91 0 6.5c0 2.316 1.253 4.35 3.14 5.5H5.17v-1.256C3.364 10.126 2.07 8.46 2.07 6.5 2.07 4.015 4.152 2 6.723 2c1.14 0 2.184.396 2.993 1.053L8.31 4.13c-.45.344-.398.826.11 1.08L15 8.5 13.858.992c-.083-.547-.514-.714-.963-.37l-1.532 1.172A6.825 6.825 0 0 0 6.723 0z" fill="#fff" id="turnRight"/><path d="M3.637 1.794A6.825 6.825 0 0 1 8.277 0C11.99 0 15 2.91 15 6.5c0 2.316-1.253 4.35-3.14 5.5H9.83v-1.256c1.808-.618 3.103-2.285 3.103-4.244 0-2.485-2.083-4.5-4.654-4.5-1.14 0-2.184.396-2.993 1.053L6.69 4.13c.45.344.398.826-.11 1.08L0 8.5 1.142.992c.083-.547.514-.714.963-.37l1.532 1.172z" fill="#fff" id="turnLeft"/><path d="M0 0L4 4L0 8Z" fill="#111" id="addInput"/><path d="M4 0L4 8L0 4Z" fill="#111" id="delInput"/><g id="loopArrow"><path d="M8 0l2 -2l0 -3l3 0l-4 -5l-4 5l3 0l0 3l-8 0l0 2" fill="#000" opacity="0.3"/><path d="M8 0l2 -2l0 -3l3 0l-4 -5l-4 5l3 0l0 3l-8 0l0 2" fill="#fff" opacity="0.9" transform="translate(-1 -1)"/></g><style><![CDATA[.sb-label{font-family:Lucida Grande,Verdana,Arial,DejaVu Sans,sans-serif;font-weight:700;fill:#fff;font-size:10px;word-spacing:+1px}.sb-obsolete{fill:#d42828}.sb-motion{fill:#4a6cd4}.sb-looks{fill:#8a55d7}.sb-sound{fill:#bb42c3}.sb-pen{fill:#0e9a6c}.sb-events{fill:#c88330}.sb-control{fill:#e1a91a}.sb-sensing{fill:#2ca5e2}.sb-operators{fill:#5cb712}.sb-variables{fill:#ee7d16}.sb-list{fill:#cc5b22}.sb-custom{fill:#632d99}.sb-custom-arg{fill:#5947b1}.sb-extension{fill:#4b4a60}.sb-grey{fill:#969696}.sb-bevel{filter:url(#bevelFilter)}.sb-input{filter:url(#inputBevelFilter)}.sb-input-number,.sb-input-number-dropdown,.sb-input-string{fill:#fff}.sb-literal-dropdown,.sb-literal-number,.sb-literal-number-dropdown,.sb-literal-string{font-weight:400;font-size:9px;word-spacing:0}.sb-literal-number,.sb-literal-number-dropdown,.sb-literal-string{fill:#000}.sb-darker{filter:url(#inputDarkFilter)}.sb-outline{stroke:#fff;stroke-opacity:.2;stroke-width:2;fill:none}.sb-define-hat-cap{stroke:#632d99;stroke-width:1;fill:#8e2ec2}.sb-comment{fill:#ffffa5;stroke:#d0d1d2;stroke-width:1}.sb-comment-line{fill:#ffff80}.sb-comment-label{font-family:Helevetica,Arial,DejaVu Sans,sans-serif;font-weight:700;fill:#5c5d5f;word-spacing:0;font-size:12px}]]></style></defs><g><g transform="translate(0 0)"><g transform="translate(2 0)"><g transform="translate(0 -3)"><path d="M 0 15 Q 46 -3 91 15 L 91 49 L 88 52 L 27 52 L 24 55 L 16 55 L 13 52 L 3 52 L 0 49 M -1 13 Q 46 -6 92 13 Q 93 15 91 16 Q 46 -2 0 16 Q -2 15 -1 13 Z" class="sb-custom sb-bevel"/><path d="M -1 13 Q 46 -6 92 13 Q 93 15 91 16 Q 46 -2 0 16 Q -2 15 -1 13 Z" class="sb-define-hat-cap"/></g><text x="0" y="10" class="sb-label " transform="translate(8 25)">define</text><g transform="translate(44 17)"><path d="M 0 3 L 3 0 L 13 0 L 16 3 L 24 3 L 27 0 L 36 0 L 39 3 L 39 19 L 36 22 L 27 22 L 24 25 L 16 25 L 13 22 L 3 22 L 0 19 Z" class="sb-outline"/><text x="0" y="10" class="sb-label " transform="translate(6 5)">bfs</text></g></g><g transform="translate(2 49)"><path d="M 0 3 L 3 0 L 13 0 L 16 3 L 24 3 L 27 0 L 123 0 L 126 3 L 126 19 L 123 22 L 27 22 L 24 25 L 16 25 L 13 22 L 3 22 L 0 19 Z" class="sb-list sb-bevel"/><text x="0" y="10" class="sb-label " transform="translate(6 5)">delete</text><g transform="translate(42 4)"><path d="M 6.5 0 L 19.5 0 A 6.5 6.5 0 0 1 19.5 13 L 6.5 13 A 6.5 6.5 0 0 1 6.5 0 Z" class="sb-input sb-input-number-dropdown"/><text x="0" y="10" class="sb-label sb-literal-number-dropdown" transform="translate(5 0)">all</text><polygon points="7 0 3.5 4 0 0" fill="#000" opacity="0.6" transform="translate(16 4)"/></g><text x="0" y="10" class="sb-label " transform="translate(72 5)">of</text><g transform="translate(87 4)"><g width="33" height="14" class="sb-input sb-input-dropdown"><rect x="0" y="0" width="33" height="14" class="sb-list sb-darker"/></g><text x="0" y="10" class="sb-label sb-literal-dropdown" transform="translate(4 0)">bfs</text><polygon points="7 0 3.5 4 0 0" fill="#000" opacity="0.6" transform="translate(23 5)"/></g></g><g transform="translate(2 71)"><path d="M 0 3 L 3 0 L 13 0 L 16 3 L 24 3 L 27 0 L 136 0 L 139 3 L 139 19 L 136 22 L 27 22 L 24 25 L 16 25 L 13 22 L 3 22 L 0 19 Z" class="sb-list sb-bevel"/><text x="0" y="10" class="sb-label " transform="translate(6 5)">delete</text><g transform="translate(42 4)"><path d="M 6.5 0 L 19.5 0 A 6.5 6.5 0 0 1 19.5 13 L 6.5 13 A 6.5 6.5 0 0 1 6.5 0 Z" class="sb-input sb-input-number-dropdown"/><text x="0" y="10" class="sb-label sb-literal-number-dropdown" transform="translate(5 0)">all</text><polygon points="7 0 3.5 4 0 0" fill="#000" opacity="0.6" transform="translate(16 4)"/></g><text x="0" y="10" class="sb-label " transform="translate(72 5)">of</text><g transform="translate(87 4)"><g width="46" height="14" class="sb-input sb-input-dropdown"><rect x="0" y="0" width="46" height="14" class="sb-list sb-darker"/></g><text x="0" y="10" class="sb-label sb-literal-dropdown" transform="translate(4 0)">queue</text><polygon points="7 0 3.5 4 0 0" fill="#000" opacity="0.6" transform="translate(36 5)"/></g></g><g transform="translate(2 93)"><path d="M 0 3 L 3 0 L 13 0 L 16 3 L 24 3 L 27 0 L 217 0 L 220 3 L 220 27 L 217 30 L 42 30 L 39 33 L 31 33 L 28 30 L 17 30 L 15 32 L 15 50 L 17 52 L 217 52 L 220 55 L 220 65 L 217 68 L 27 68 L 24 71 L 16 71 L 13 68 L 3 68 L 0 65" class="sb-control sb-bevel"/><text x="0" y="10" class="sb-label " transform="translate(6 8)">if</text><g transform="translate(30 2)"><path d="M 12.5 0 L 144.5 0 157 12.5 L 157 12.5 144.5 25 L 12.5 25 0 12.5 L 0 12.5 12.5 0 Z" class="sb-operators sb-bevel"/><g transform="translate(9 2)"><path d="M 10 0 L 99 0 A 10 10 0 0 1 99 20 L 10 20 A 10 10 0 0 1 10 0 Z" class="sb-list sb-bevel"/><text x="0" y="10" class="sb-label " transform="translate(8 4)">length</text><text x="0" y="10" class="sb-label " transform="translate(45 4)">of</text><g transform="translate(60 3)"><g width="44" height="14" class="sb-input sb-input-dropdown"><rect x="0" y="0" width="44" height="14" class="sb-list sb-darker"/></g><text x="0" y="10" class="sb-label sb-literal-dropdown" transform="translate(4 0)">lChild</text><polygon points="7 0 3.5 4 0 0" fill="#000" opacity="0.6" transform="translate(34 5)"/></g></g><text x="0" y="10" class="sb-label " transform="translate(122 6)">&gt;</text><g transform="translate(134 5)"><rect x="0" y="0" width="14" height="14" class="sb-input sb-input-string"/><text x="0" y="10" class="sb-label sb-literal-string" transform="translate(4 0)">0</text></g></g><text x="0" y="10" class="sb-label " transform="translate(191 8)">then</text><g transform="translate(15 30)"><g transform="translate(0 0)"><path d="M 0 3 L 3 0 L 13 0 L 16 3 L 24 3 L 27 0 L 111 0 L 114 3 L 114 19 L 111 22 L 27 22 L 24 25 L 16 25 L 13 22 L 3 22 L 0 19 Z" class="sb-list sb-bevel"/><text x="0" y="10" class="sb-label " transform="translate(6 5)">add</text><g transform="translate(30 4)"><rect x="0" y="0" width="14" height="14" class="sb-input sb-input-string"/><text x="0" y="10" class="sb-label sb-literal-string" transform="translate(4 0)">1</text></g><text x="0" y="10" class="sb-label " transform="translate(48 5)">to</text><g transform="translate(62 4)"><g width="46" height="14" class="sb-input sb-input-dropdown"><rect x="0" y="0" width="46" height="14" class="sb-list sb-darker"/></g><text x="0" y="10" class="sb-label sb-literal-dropdown" transform="translate(4 0)">queue</text><polygon points="7 0 3.5 4 0 0" fill="#000" opacity="0.6" transform="translate(36 5)"/></g></g></g></g><g transform="translate(2 161)"><path d="M 0 3 L 3 0 L 13 0 L 16 3 L 24 3 L 27 0 L 233 0 L 236 3 L 236 27 L 233 30 L 42 30 L 39 33 L 31 33 L 28 30 L 17 30 L 15 32 L 15 285 L 17 287 L 233 287 L 236 290 L 236 300 L 233 303 L 27 303 L 24 306 L 16 306 L 13 303 L 3 303 L 0 300" class="sb-control sb-bevel"/><text x="0" y="10" class="sb-label " transform="translate(6 8)">repeat</text><text x="0" y="10" class="sb-label " transform="translate(43 8)">until</text><g transform="translate(71 2)"><path d="M 12.5 0 L 146.5 0 159 12.5 L 159 12.5 146.5 25 L 12.5 25 0 12.5 L 0 12.5 12.5 0 Z" class="sb-operators sb-bevel"/><g transform="translate(9 2)"><path d="M 10 0 L 101 0 A 10 10 0 0 1 101 20 L 10 20 A 10 10 0 0 1 10 0 Z" class="sb-list sb-bevel"/><text x="0" y="10" class="sb-label " transform="translate(8 4)">length</text><text x="0" y="10" class="sb-label " transform="translate(45 4)">of</text><g transform="translate(60 3)"><g width="46" height="14" class="sb-input sb-input-dropdown"><rect x="0" y="0" width="46" height="14" class="sb-list sb-darker"/></g><text x="0" y="10" class="sb-label sb-literal-dropdown" transform="translate(4 0)">queue</text><polygon points="7 0 3.5 4 0 0" fill="#000" opacity="0.6" transform="translate(36 5)"/></g></g><text x="0" y="10" class="sb-label " transform="translate(124 6)">=</text><g transform="translate(136 5)"><rect x="0" y="0" width="14" height="14" class="sb-input sb-input-string"/><text x="0" y="10" class="sb-label sb-literal-string" transform="translate(4 0)">0</text></g></g><use NS1:href="#loopArrow" xmlns:NS1="http://www.w3.org/1999/xlink" transform="translate(221 300)"/><g transform="translate(15 30)"><g transform="translate(0 0)"><path d="M 0 3 L 3 0 L 13 0 L 16 3 L 24 3 L 27 0 L 288 0 L 291 3 L 291 32 L 288 35 L 42 35 L 39 38 L 31 38 L 28 35 L 17 35 L 15 37 L 15 55 L 17 57 L 288 57 L 291 60 L 291 70 L 288 73 L 27 73 L 24 76 L 16 76 L 13 73 L 3 73 L 0 70" class="sb-control sb-bevel"/><text x="0" y="10" class="sb-label " transform="translate(6 11)">repeat</text><text x="0" y="10" class="sb-label " transform="translate(43 11)">until</text><g transform="translate(71 2)"><path d="M 15 0 L 199 0 214 15 L 214 15 199 30 L 15 30 0 15 L 0 15 15 0 Z" class="sb-operators sb-bevel"/><text x="0" y="10" class="sb-label " transform="translate(11 8)">not</text><g transform="translate(32 2)"><path d="M 12.5 0 L 164.5 0 177 12.5 L 177 12.5 164.5 25 L 12.5 25 0 12.5 L 0 12.5 12.5 0 Z" class="sb-operators sb-bevel"/><g transform="translate(9 2)"><path d="M 10 0 L 119 0 A 10 10 0 0 1 119 20 L 10 20 A 10 10 0 0 1 10 0 Z" class="sb-list sb-bevel"/><text x="0" y="10" class="sb-label " transform="translate(8 4)">item</text><g transform="translate(35 3)"><path d="M 6.5 0 L 17.5 0 A 6.5 6.5 0 0 1 17.5 13 L 6.5 13 A 6.5 6.5 0 0 1 6.5 0 Z" class="sb-input sb-input-number-dropdown"/><text x="0" y="10" class="sb-label sb-literal-number-dropdown" transform="translate(5 0)">1</text><polygon points="7 0 3.5 4 0 0" fill="#000" opacity="0.6" transform="translate(14 4)"/></g><text x="0" y="10" class="sb-label " transform="translate(63 4)">of</text><g transform="translate(78 3)"><g width="46" height="14" class="sb-input sb-input-dropdown"><rect x="0" y="0" width="46" height="14" class="sb-list sb-darker"/></g><text x="0" y="10" class="sb-label sb-literal-dropdown" transform="translate(4 0)">queue</text><polygon points="7 0 3.5 4 0 0" fill="#000" opacity="0.6" transform="translate(36 5)"/></g></g><text x="0" y="10" class="sb-label " transform="translate(142 6)">=</text><g transform="translate(154 5)"><rect x="0" y="0" width="14" height="14" class="sb-input sb-input-string"/><text x="0" y="10" class="sb-label sb-literal-string" transform="translate(4 0)">0</text></g></g></g><use NS2:href="#loopArrow" xmlns:NS2="http://www.w3.org/1999/xlink" transform="translate(276 70)"/><g transform="translate(15 35)"><g transform="translate(0 0)"><path d="M 0 3 L 3 0 L 13 0 L 16 3 L 24 3 L 27 0 L 134 0 L 137 3 L 137 19 L 134 22 L 27 22 L 24 25 L 16 25 L 13 22 L 3 22 L 0 19 Z" class="sb-list sb-bevel"/><text x="0" y="10" class="sb-label " transform="translate(6 5)">delete</text><g transform="translate(42 4)"><path d="M 6.5 0 L 17.5 0 A 6.5 6.5 0 0 1 17.5 13 L 6.5 13 A 6.5 6.5 0 0 1 6.5 0 Z" class="sb-input sb-input-number-dropdown"/><text x="0" y="10" class="sb-label sb-literal-number-dropdown" transform="translate(5 0)">1</text><polygon points="7 0 3.5 4 0 0" fill="#000" opacity="0.6" transform="translate(14 4)"/></g><text x="0" y="10" class="sb-label " transform="translate(70 5)">of</text><g transform="translate(85 4)"><g width="46" height="14" class="sb-input sb-input-dropdown"><rect x="0" y="0" width="46" height="14" class="sb-list sb-darker"/></g><text x="0" y="10" class="sb-label sb-literal-dropdown" transform="translate(4 0)">queue</text><polygon points="7 0 3.5 4 0 0" fill="#000" opacity="0.6" transform="translate(36 5)"/></g></g></g></g><g transform="translate(0 73)"><path d="M 0 3 L 3 0 L 13 0 L 16 3 L 24 3 L 27 0 L 219 0 L 222 3 L 222 27 L 219 30 L 42 30 L 39 33 L 31 33 L 28 30 L 17 30 L 15 32 L 15 166 L 17 168 L 219 168 L 222 171 L 222 181 L 219 184 L 27 184 L 24 187 L 16 187 L 13 184 L 3 184 L 0 181" class="sb-control sb-bevel"/><text x="0" y="10" class="sb-label " transform="translate(6 8)">if</text><g transform="translate(30 2)"><path d="M 12.5 0 L 146.5 0 159 12.5 L 159 12.5 146.5 25 L 12.5 25 0 12.5 L 0 12.5 12.5 0 Z" class="sb-operators sb-bevel"/><g transform="translate(9 2)"><path d="M 10 0 L 101 0 A 10 10 0 0 1 101 20 L 10 20 A 10 10 0 0 1 10 0 Z" class="sb-list sb-bevel"/><text x="0" y="10" class="sb-label " transform="translate(8 4)">length</text><text x="0" y="10" class="sb-label " transform="translate(45 4)">of</text><g transform="translate(60 3)"><g width="46" height="14" class="sb-input sb-input-dropdown"><rect x="0" y="0" width="46" height="14" class="sb-list sb-darker"/></g><text x="0" y="10" class="sb-label sb-literal-dropdown" transform="translate(4 0)">queue</text><polygon points="7 0 3.5 4 0 0" fill="#000" opacity="0.6" transform="translate(36 5)"/></g></g><text x="0" y="10" class="sb-label " transform="translate(124 6)">&gt;</text><g transform="translate(136 5)"><rect x="0" y="0" width="14" height="14" class="sb-input sb-input-string"/><text x="0" y="10" class="sb-label sb-literal-string" transform="translate(4 0)">0</text></g></g><text x="0" y="10" class="sb-label " transform="translate(193 8)">then</text><g transform="translate(15 30)"><g transform="translate(0 0)"><path d="M 0 3 L 3 0 L 13 0 L 16 3 L 24 3 L 27 0 L 213 0 L 216 3 L 216 23 L 213 26 L 27 26 L 24 29 L 16 29 L 13 26 L 3 26 L 0 23 Z" class="sb-list sb-bevel"/><text x="0" y="10" class="sb-label " transform="translate(6 7)">add</text><g transform="translate(30 3)"><path d="M 10 0 L 119 0 A 10 10 0 0 1 119 20 L 10 20 A 10 10 0 0 1 10 0 Z" class="sb-list sb-bevel"/><text x="0" y="10" class="sb-label " transform="translate(8 4)">item</text><g transform="translate(35 3)"><path d="M 6.5 0 L 17.5 0 A 6.5 6.5 0 0 1 17.5 13 L 6.5 13 A 6.5 6.5 0 0 1 6.5 0 Z" class="sb-input sb-input-number-dropdown"/><text x="0" y="10" class="sb-label sb-literal-number-dropdown" transform="translate(5 0)">1</text><polygon points="7 0 3.5 4 0 0" fill="#000" opacity="0.6" transform="translate(14 4)"/></g><text x="0" y="10" class="sb-label " transform="translate(63 4)">of</text><g transform="translate(78 3)"><g width="46" height="14" class="sb-input sb-input-dropdown"><rect x="0" y="0" width="46" height="14" class="sb-list sb-darker"/></g><text x="0" y="10" class="sb-label sb-literal-dropdown" transform="translate(4 0)">queue</text><polygon points="7 0 3.5 4 0 0" fill="#000" opacity="0.6" transform="translate(36 5)"/></g></g><text x="0" y="10" class="sb-label " transform="translate(163 7)">to</text><g transform="translate(177 6)"><g width="33" height="14" class="sb-input sb-input-dropdown"><rect x="0" y="0" width="33" height="14" class="sb-list sb-darker"/></g><text x="0" y="10" class="sb-label sb-literal-dropdown" transform="translate(4 0)">bfs</text><polygon points="7 0 3.5 4 0 0" fill="#000" opacity="0.6" transform="translate(23 5)"/></g></g><g transform="translate(0 26)"><path d="M 0 3 L 3 0 L 13 0 L 16 3 L 24 3 L 27 0 L 329 0 L 332 3 L 332 27 L 329 30 L 27 30 L 24 33 L 16 33 L 13 30 L 3 30 L 0 27 Z" class="sb-list sb-bevel"/><text x="0" y="10" class="sb-label " transform="translate(6 9)">add</text><g transform="translate(30 3)"><path d="M 12 0 L 220 0 A 12 12 0 0 1 220 24 L 12 24 A 12 12 0 0 1 12 0 Z" class="sb-list sb-bevel"/><text x="0" y="10" class="sb-label " transform="translate(8 6)">item</text><g transform="translate(35 2)"><path d="M 10 0 L 119 0 A 10 10 0 0 1 119 20 L 10 20 A 10 10 0 0 1 10 0 Z" class="sb-list sb-bevel"/><text x="0" y="10" class="sb-label " transform="translate(8 4)">item</text><g transform="translate(35 3)"><path d="M 6.5 0 L 17.5 0 A 6.5 6.5 0 0 1 17.5 13 L 6.5 13 A 6.5 6.5 0 0 1 6.5 0 Z" class="sb-input sb-input-number-dropdown"/><text x="0" y="10" class="sb-label sb-literal-number-dropdown" transform="translate(5 0)">1</text><polygon points="7 0 3.5 4 0 0" fill="#000" opacity="0.6" transform="translate(14 4)"/></g><text x="0" y="10" class="sb-label " transform="translate(63 4)">of</text><g transform="translate(78 3)"><g width="46" height="14" class="sb-input sb-input-dropdown"><rect x="0" y="0" width="46" height="14" class="sb-list sb-darker"/></g><text x="0" y="10" class="sb-label sb-literal-dropdown" transform="translate(4 0)">queue</text><polygon points="7 0 3.5 4 0 0" fill="#000" opacity="0.6" transform="translate(36 5)"/></g></g><text x="0" y="10" class="sb-label " transform="translate(168 6)">of</text><g transform="translate(183 5)"><g width="44" height="14" class="sb-input sb-input-dropdown"><rect x="0" y="0" width="44" height="14" class="sb-list sb-darker"/></g><text x="0" y="10" class="sb-label sb-literal-dropdown" transform="translate(4 0)">lChild</text><polygon points="7 0 3.5 4 0 0" fill="#000" opacity="0.6" transform="translate(34 5)"/></g></g><text x="0" y="10" class="sb-label " transform="translate(266 9)">to</text><g transform="translate(280 8)"><g width="46" height="14" class="sb-input sb-input-dropdown"><rect x="0" y="0" width="46" height="14" class="sb-list sb-darker"/></g><text x="0" y="10" class="sb-label sb-literal-dropdown" transform="translate(4 0)">queue</text><polygon points="7 0 3.5 4 0 0" fill="#000" opacity="0.6" transform="translate(36 5)"/></g></g><g transform="translate(0 56)"><path d="M 0 3 L 3 0 L 13 0 L 16 3 L 24 3 L 27 0 L 335 0 L 338 3 L 338 27 L 335 30 L 27 30 L 24 33 L 16 33 L 13 30 L 3 30 L 0 27 Z" class="sb-list sb-bevel"/><text x="0" y="10" class="sb-label " transform="translate(6 9)">add</text><g transform="translate(30 3)"><path d="M 12 0 L 226 0 A 12 12 0 0 1 226 24 L 12 24 A 12 12 0 0 1 12 0 Z" class="sb-list sb-bevel"/><text x="0" y="10" class="sb-label " transform="translate(8 6)">item</text><g transform="translate(35 2)"><path d="M 10 0 L 119 0 A 10 10 0 0 1 119 20 L 10 20 A 10 10 0 0 1 10 0 Z" class="sb-list sb-bevel"/><text x="0" y="10" class="sb-label " transform="translate(8 4)">item</text><g transform="translate(35 3)"><path d="M 6.5 0 L 17.5 0 A 6.5 6.5 0 0 1 17.5 13 L 6.5 13 A 6.5 6.5 0 0 1 6.5 0 Z" class="sb-input sb-input-number-dropdown"/><text x="0" y="10" class="sb-label sb-literal-number-dropdown" transform="translate(5 0)">1</text><polygon points="7 0 3.5 4 0 0" fill="#000" opacity="0.6" transform="translate(14 4)"/></g><text x="0" y="10" class="sb-label " transform="translate(63 4)">of</text><g transform="translate(78 3)"><g width="46" height="14" class="sb-input sb-input-dropdown"><rect x="0" y="0" width="46" height="14" class="sb-list sb-darker"/></g><text x="0" y="10" class="sb-label sb-literal-dropdown" transform="translate(4 0)">queue</text><polygon points="7 0 3.5 4 0 0" fill="#000" opacity="0.6" transform="translate(36 5)"/></g></g><text x="0" y="10" class="sb-label " transform="translate(168 6)">of</text><g transform="translate(183 5)"><g width="50" height="14" class="sb-input sb-input-dropdown"><rect x="0" y="0" width="50" height="14" class="sb-list sb-darker"/></g><text x="0" y="10" class="sb-label sb-literal-dropdown" transform="translate(4 0)">mChild</text><polygon points="7 0 3.5 4 0 0" fill="#000" opacity="0.6" transform="translate(40 5)"/></g></g><text x="0" y="10" class="sb-label " transform="translate(272 9)">to</text><g transform="translate(286 8)"><g width="46" height="14" class="sb-input sb-input-dropdown"><rect x="0" y="0" width="46" height="14" class="sb-list sb-darker"/></g><text x="0" y="10" class="sb-label sb-literal-dropdown" transform="translate(4 0)">queue</text><polygon points="7 0 3.5 4 0 0" fill="#000" opacity="0.6" transform="translate(36 5)"/></g></g><g transform="translate(0 86)"><path d="M 0 3 L 3 0 L 13 0 L 16 3 L 24 3 L 27 0 L 330 0 L 333 3 L 333 27 L 330 30 L 27 30 L 24 33 L 16 33 L 13 30 L 3 30 L 0 27 Z" class="sb-list sb-bevel"/><text x="0" y="10" class="sb-label " transform="translate(6 9)">add</text><g transform="translate(30 3)"><path d="M 12 0 L 221 0 A 12 12 0 0 1 221 24 L 12 24 A 12 12 0 0 1 12 0 Z" class="sb-list sb-bevel"/><text x="0" y="10" class="sb-label " transform="translate(8 6)">item</text><g transform="translate(35 2)"><path d="M 10 0 L 119 0 A 10 10 0 0 1 119 20 L 10 20 A 10 10 0 0 1 10 0 Z" class="sb-list sb-bevel"/><text x="0" y="10" class="sb-label " transform="translate(8 4)">item</text><g transform="translate(35 3)"><path d="M 6.5 0 L 17.5 0 A 6.5 6.5 0 0 1 17.5 13 L 6.5 13 A 6.5 6.5 0 0 1 6.5 0 Z" class="sb-input sb-input-number-dropdown"/><text x="0" y="10" class="sb-label sb-literal-number-dropdown" transform="translate(5 0)">1</text><polygon points="7 0 3.5 4 0 0" fill="#000" opacity="0.6" transform="translate(14 4)"/></g><text x="0" y="10" class="sb-label " transform="translate(63 4)">of</text><g transform="translate(78 3)"><g width="46" height="14" class="sb-input sb-input-dropdown"><rect x="0" y="0" width="46" height="14" class="sb-list sb-darker"/></g><text x="0" y="10" class="sb-label sb-literal-dropdown" transform="translate(4 0)">queue</text><polygon points="7 0 3.5 4 0 0" fill="#000" opacity="0.6" transform="translate(36 5)"/></g></g><text x="0" y="10" class="sb-label " transform="translate(168 6)">of</text><g transform="translate(183 5)"><g width="45" height="14" class="sb-input sb-input-dropdown"><rect x="0" y="0" width="45" height="14" class="sb-list sb-darker"/></g><text x="0" y="10" class="sb-label sb-literal-dropdown" transform="translate(4 0)">rChild</text><polygon points="7 0 3.5 4 0 0" fill="#000" opacity="0.6" transform="translate(35 5)"/></g></g><text x="0" y="10" class="sb-label " transform="translate(267 9)">to</text><g transform="translate(281 8)"><g width="46" height="14" class="sb-input sb-input-dropdown"><rect x="0" y="0" width="46" height="14" class="sb-list sb-darker"/></g><text x="0" y="10" class="sb-label sb-literal-dropdown" transform="translate(4 0)">queue</text><polygon points="7 0 3.5 4 0 0" fill="#000" opacity="0.6" transform="translate(36 5)"/></g></g><g transform="translate(0 116)"><path d="M 0 3 L 3 0 L 13 0 L 16 3 L 24 3 L 27 0 L 134 0 L 137 3 L 137 19 L 134 22 L 27 22 L 24 25 L 16 25 L 13 22 L 3 22 L 0 19 Z" class="sb-list sb-bevel"/><text x="0" y="10" class="sb-label " transform="translate(6 5)">delete</text><g transform="translate(42 4)"><path d="M 6.5 0 L 17.5 0 A 6.5 6.5 0 0 1 17.5 13 L 6.5 13 A 6.5 6.5 0 0 1 6.5 0 Z" class="sb-input sb-input-number-dropdown"/><text x="0" y="10" class="sb-label sb-literal-number-dropdown" transform="translate(5 0)">1</text><polygon points="7 0 3.5 4 0 0" fill="#000" opacity="0.6" transform="translate(14 4)"/></g><text x="0" y="10" class="sb-label " transform="translate(70 5)">of</text><g transform="translate(85 4)"><g width="46" height="14" class="sb-input sb-input-dropdown"><rect x="0" y="0" width="46" height="14" class="sb-list sb-darker"/></g><text x="0" y="10" class="sb-label sb-literal-dropdown" transform="translate(4 0)">queue</text><polygon points="7 0 3.5 4 0 0" fill="#000" opacity="0.6" transform="translate(36 5)"/></g></g></g></g></g></g></g></g></svg>