<?xml version="1.0" standalone="no"?>
<!DOCTYPE svg PUBLIC "-//W3C//DTD SVG 20010904//EN"
 "http://www.w3.org/TR/2001/REC-SVG-20010904/DTD/svg10.dtd">
<svg version="1.0" xmlns="http://www.w3.org/2000/svg"
 width="470.000000pt" height="412.000000pt" viewBox="0 0 470.000000 412.000000"
 preserveAspectRatio="xMidYMid meet">

<g transform="translate(0.000000,412.000000) scale(0.100000,-0.100000)"
fill="#000000" stroke="none">
<path d="M515 4046 c-157 -26 -401 -100 -410 -124 -3 -8 1 -22 10 -32 12 -13
15 -47 15 -176 0 -111 4 -164 12 -172 9 -9 9 -15 0 -24 -19 -19 -16 -172 3
-188 14 -12 14 -15 0 -30 -19 -21 -21 -170 -3 -188 7 -7 31 -12 54 -12 24 0
45 -3 47 -7 3 -5 -14 -8 -38 -8 -83 -1 -75 150 -75 -1494 0 -1128 3 -1470 12
-1479 7 -7 35 -12 64 -12 34 0 56 -5 64 -15 17 -20 103 -20 120 0 11 13 99 15
679 15 505 0 670 3 679 12 17 17 15 113 -2 128 -8 6 -34 11 -58 10 -24 -1 -72
-1 -107 -1 -61 1 -63 2 -48 19 13 14 17 38 17 99 0 110 -4 113 -150 113 -89 0
-111 3 -102 12 19 19 16 167 -5 190 -16 18 -2 18 471 18 356 -1 492 2 502 11
9 7 14 31 14 65 0 43 -4 55 -20 64 -16 8 -398 16 -569 11 -23 -1 -23 0 -8 17
24 26 24 168 0 194 -16 17 29 18 1398 18 1087 0 1418 3 1427 12 7 7 12 36 12
65 0 42 -4 54 -20 63 -13 7 -188 10 -531 10 -281 -1 -513 1 -515 3 -3 2 2 10
11 17 12 10 15 37 15 136 0 71 -4 125 -10 129 -5 3 -10 10 -10 15 0 5 197 9
466 9 345 0 469 3 480 12 11 9 14 42 14 154 0 125 -2 144 -18 158 -17 16 -87
17 -802 17 -610 0 -781 3 -772 12 8 8 12 52 12 132 0 97 -3 123 -17 138 -16
18 9 18 827 18 618 0 846 3 856 11 11 9 14 48 14 175 0 151 -1 164 -19 174
-13 7 -626 10 -1901 10 -1683 0 -1884 -2 -1905 -16 -15 -10 -39 -14 -67 -11
l-43 4 46 1 c28 1 52 8 59 17 11 13 108 15 788 15 568 0 778 3 788 11 11 9 14
41 14 130 0 107 -2 119 -19 129 -12 6 -135 11 -318 12 -164 1 -278 3 -253 5
67 6 70 12 70 124 0 87 -2 99 -19 109 -12 6 -133 10 -322 10 -292 0 -302 1
-286 18 23 25 24 174 2 192 -14 11 -13 14 5 27 17 12 20 25 20 97 0 50 -5 87
-12 94 -15 15 -20 14 130 12 180 -2 172 -11 172 193 0 108 4 167 11 174 23 23
-1 41 -93 72 -211 70 -292 83 -543 87 -159 2 -255 -1 -310 -10z m325 -271 c0
-8 6 -15 14 -15 8 0 17 -4 20 -9 11 -18 -6 -41 -30 -41 -21 0 -24 4 -24 40 0
22 5 40 10 40 6 0 10 -7 10 -15z m70 0 c0 -8 6 -15 14 -15 8 0 17 -4 20 -9 11
-18 -6 -41 -30 -41 -21 0 -24 4 -24 40 0 22 5 40 10 40 6 0 10 -7 10 -15z m70
-12 c0 -21 3 -24 12 -15 17 17 45 15 52 -3 4 -10 -1 -15 -17 -16 -21 0 -21 -1
-2 -9 20 -9 20 -9 0 -9 -12 -1 -26 4 -33 11 -9 9 -12 9 -12 0 0 -7 -4 -12 -10
-12 -5 0 -10 18 -10 40 0 22 5 40 10 40 6 0 10 -12 10 -27z m-255 -3 c0 -8 4
-20 7 -26 10 -16 -1 -24 -34 -24 -25 0 -28 3 -28 36 0 33 2 35 28 32 16 -2 27
-9 27 -18z m385 10 c0 -5 -7 -7 -15 -4 -8 4 -15 2 -15 -4 0 -13 44 -24 48 -12
5 14 50 12 55 -2 7 -23 -4 -38 -29 -38 -13 0 -24 5 -24 12 0 9 -3 9 -12 0 -15
-15 -68 -16 -68 -2 0 6 11 8 26 4 19 -5 25 -4 20 5 -4 6 -13 11 -21 11 -17 0
-27 27 -12 34 21 8 47 6 47 -4z m166 -5 c9 -8 11 -15 5 -15 -15 0 -14 -27 2
-33 6 -3 2 -6 -10 -6 -16 -1 -23 5 -23 19 0 13 -5 18 -15 14 -8 -4 -15 -12
-15 -20 0 -8 -4 -14 -10 -14 -5 0 -10 11 -10 25 0 20 5 25 25 25 14 0 25 5 25
10 0 14 9 12 26 -5z m-1016 -45 c0 -36 -3 -40 -24 -40 -14 0 -27 4 -30 9 -9
14 4 41 20 41 8 0 14 7 14 15 0 8 5 15 10 15 6 0 10 -18 10 -40z m145 29 c17
-8 15 -8 -7 -4 -16 3 -28 1 -28 -5 0 -5 6 -10 13 -11 10 0 10 -2 0 -6 -7 -2
-13 -13 -13 -24 0 -10 -4 -19 -10 -19 -11 0 -14 63 -3 73 8 9 23 8 48 -4z
m366 -11 l2 -23 4 23 c6 30 23 28 23 -3 0 -20 -5 -25 -25 -25 -20 0 -25 5 -25
25 0 31 19 33 21 3z m-437 -23 c4 -10 -1 -15 -17 -16 -21 0 -21 -1 -2 -9 20
-8 19 -9 -1 -9 -29 -1 -48 21 -32 37 17 17 45 15 52 -3z m86 -10 c0 -14 -4
-25 -10 -25 -5 0 -10 11 -10 25 0 14 5 25 10 25 6 0 10 -11 10 -25z m60 0 c0
-31 -19 -33 -21 -2 l-2 22 -4 -22 c-6 -31 -23 -29 -23 2 0 20 5 25 25 25 20 0
25 -5 25 -25z m74 10 c4 -10 -1 -15 -17 -16 -21 0 -21 -1 -2 -9 20 -8 19 -9
-1 -9 -29 -1 -48 21 -32 37 17 17 45 15 52 -3z m546 -285 l0 -70 -70 0 -71 0
3 63 3 62 60 6 c33 3 63 6 68 7 4 1 7 -29 7 -68z m-744 15 c9 -8 11 -15 5 -15
-15 0 -14 -27 2 -33 6 -3 2 -6 -9 -6 -22 -1 -36 29 -26 57 5 16 10 15 28 -3z
m226 -11 c-3 -16 1 -30 9 -35 11 -7 9 -9 -6 -9 -16 0 -20 6 -18 32 2 40 1 38
12 38 4 0 6 -12 3 -26z m250 15 c2 -7 22 -12 43 -13 33 -1 40 -5 40 -21 0 -17
-7 -20 -51 -22 -47 -2 -52 0 -56 20 -5 27 0 47 12 47 5 0 10 -5 12 -11z m-300
-17 c-16 -5 -15 -29 1 -35 7 -4 6 -6 -4 -6 -10 -1 -19 9 -21 24 -6 29 -1 36
20 27 10 -4 12 -7 4 -10z m-297 -2 c-14 -6 -15 -9 -5 -9 9 -1 21 4 27 10 14
14 55 8 61 -8 2 -8 -6 -13 -20 -14 -23 -1 -23 -1 2 -9 17 -5 2 -7 -45 -7 -41
0 -60 3 -45 7 l25 6 -24 6 c-30 9 -18 28 17 27 24 0 25 -1 7 -9z m252 -27 c-3
-10 -5 -4 -5 12 0 17 2 24 5 18 2 -7 2 -21 0 -30z m613 -193 l0 -70 -70 0 -71
0 3 63 3 62 60 6 c33 3 63 6 68 7 4 1 7 -29 7 -68z m-744 15 c9 -8 11 -15 5
-15 -15 0 -14 -27 2 -33 6 -3 2 -6 -9 -6 -22 -1 -36 29 -26 57 5 16 10 15 28
-3z m239 4 c4 -5 -1 -19 -10 -29 -16 -17 -15 -19 7 -23 13 -2 0 -5 -28 -6 -48
-1 -52 1 -56 24 -6 29 2 38 22 24 10 -6 11 -9 3 -9 -7 0 -13 -7 -13 -15 0 -19
15 -19 45 1 25 17 24 40 -1 30 -8 -3 -14 -1 -14 4 0 13 37 13 45 -1z m237 0
c2 -7 22 -12 43 -13 33 -1 40 -5 40 -21 0 -17 -7 -20 -51 -22 -47 -2 -52 0
-56 20 -5 27 0 47 12 47 5 0 10 -5 12 -11z m-597 -19 c-14 -6 -15 -9 -5 -9 9
-1 21 4 27 10 14 14 55 8 61 -8 2 -8 -6 -13 -20 -14 -23 -1 -23 -1 2 -9 17 -5
2 -7 -45 -7 -41 0 -60 3 -45 7 l25 6 -24 6 c-30 9 -18 28 17 27 24 0 25 -1 7
-9z m252 -27 c-3 -10 -5 -4 -5 12 0 17 2 24 5 18 2 -7 2 -21 0 -30z m232 -88
c-3 -2 -70 -5 -149 -6 -80 0 -153 -5 -162 -10 -17 -9 -25 1 -11 14 3 4 78 7
166 7 88 0 158 -2 156 -5z m69 -2 c-10 -2 -28 -2 -40 0 -13 2 -5 4 17 4 22 1
32 -1 23 -4z m302 0 c0 -5 -39 -7 -87 -5 -163 5 -179 8 -45 10 72 1 132 -1
132 -5z m-710 -36 c0 -8 -90 1 -100 10 -2 2 19 3 48 1 28 -2 52 -7 52 -11z
m188 -68 c15 -1 15 -2 0 -6 -10 -2 -18 -11 -18 -19 0 -8 8 -14 18 -15 14 0 14
-2 -3 -8 -11 -5 -28 -7 -38 -5 -54 10 -181 7 -185 -4 -5 -15 -32 -16 -32 -1 0
7 -9 9 -21 6 -13 -3 -28 2 -40 14 -23 23 -29 24 -29 4 0 -8 -7 -15 -15 -15 -9
0 -15 9 -15 25 0 22 4 24 45 23 25 0 49 2 52 6 3 3 12 -2 20 -12 8 -9 11 -11
7 -3 -5 11 1 13 32 9 22 -3 51 -1 67 3 15 4 27 6 27 4 0 -2 3 -10 6 -19 5 -12
0 -16 -17 -17 -13 0 -18 -3 -11 -6 6 -2 25 1 42 9 25 11 27 14 12 20 -12 5 -8
7 13 5 22 -1 31 -8 36 -27 7 -23 7 -23 6 5 -1 37 15 71 21 43 2 -10 11 -19 20
-19z m152 13 c0 -13 8 -17 32 -17 36 0 52 -24 16 -26 -23 -1 -23 -1 2 -9 19
-6 13 -8 -26 -8 l-52 1 0 38 c-1 28 4 39 14 39 8 0 14 -8 14 -18z m290 3 c0
-8 7 -15 15 -15 9 0 15 -9 15 -25 0 -31 -19 -33 -21 -2 l-2 22 -4 -22 c-7 -38
-23 -26 -23 17 0 22 5 40 10 40 6 0 10 -7 10 -15z m210 0 c-10 -12 -10 -15 1
-16 10 0 11 -2 2 -6 -7 -2 -13 -13 -13 -24 0 -10 -4 -19 -10 -19 -11 0 -14 63
-3 73 3 4 13 7 21 7 12 0 12 -3 2 -15z m-254 -10 c9 -8 11 -15 5 -15 -15 0
-14 -27 2 -33 6 -3 2 -6 -9 -6 -22 -1 -36 29 -26 57 5 16 10 15 28 -3z m387
-48 c18 -4 17 -5 -5 -6 -26 -1 -28 2 -26 37 1 36 1 36 5 5 3 -23 10 -33 26
-36z m139 35 c-16 -5 -15 -29 1 -35 7 -4 6 -6 -4 -6 -10 -1 -19 9 -21 24 -6
29 -1 36 20 27 10 -4 12 -7 4 -10z m-642 -17 c0 -31 -19 -33 -21 -2 l-2 22 -4
-22 c-6 -31 -23 -29 -23 2 0 20 5 25 25 25 20 0 25 -5 25 -25z m70 -10 c0 -32
-3 -35 -27 -34 -25 0 -26 1 -8 9 16 7 17 9 3 9 -40 2 -34 51 7 51 22 0 25 -4
25 -35z m255 10 c0 -13 -8 -21 -24 -23 -28 -4 -46 11 -37 33 9 25 61 16 61
-10z m212 -12 c-3 -10 -5 -4 -5 12 0 17 2 24 5 18 2 -7 2 -21 0 -30z m48 27
c-17 -7 -17 -9 -2 -9 9 -1 17 -8 17 -16 0 -9 -9 -15 -22 -14 -22 0 -22 1 -3 9
17 7 17 9 3 9 -10 1 -18 8 -18 16 0 9 9 15 23 14 21 0 21 -1 2 -9z m-1075
-137 c-31 -3 -50 -11 -62 -26 -10 -12 -18 -17 -18 -10 0 26 32 43 78 41 l47
-1 -45 -4z m230 0 c-14 -2 -31 -12 -38 -21 -9 -12 -26 -16 -69 -14 -31 1 -59
5 -62 9 -3 3 18 3 46 1 43 -4 56 -1 69 13 11 12 29 18 48 18 27 -2 28 -2 6 -6z
m793 0 c-138 -2 -368 -2 -510 0 -142 1 -28 2 252 2 281 0 397 -1 258 -2z
m-1096 -100 c-3 -10 -5 -2 -5 17 0 19 2 27 5 18 2 -10 2 -26 0 -35z m1891 9
c14 -18 9 -66 -9 -89 -16 -19 -98 -17 -121 4 -36 33 -16 92 37 106 32 9 79 -2
93 -21z m-1475 -19 c-4 -11 -3 -14 5 -9 16 10 15 -7 0 -22 -10 -10 -10 -15 2
-22 12 -8 10 -10 -7 -10 -13 0 -23 6 -23 14 0 8 -4 17 -9 20 -5 4 -7 -3 -4
-15 6 -20 2 -21 -68 -19 -102 3 -107 2 -111 -17 -3 -16 -4 -16 -20 0 -9 9 -28
17 -43 17 -14 0 -28 7 -31 15 -4 8 -11 15 -16 15 -6 0 -8 -7 -4 -15 4 -10 -1
-15 -14 -15 -15 0 -20 7 -20 26 0 23 3 26 30 22 17 -3 30 -1 30 3 0 5 6 6 13
3 20 -7 126 -11 122 -3 -3 3 10 3 27 0 38 -8 50 -31 16 -32 -12 0 -17 -3 -10
-6 6 -2 25 1 42 9 25 11 27 14 12 20 -12 4 -7 7 16 7 18 1 40 8 48 16 20 19
25 19 17 -2z m207 -2 c0 -15 7 -19 31 -17 18 0 34 -5 36 -11 3 -8 -5 -13 -19
-14 -23 -1 -23 -1 2 -9 19 -6 13 -8 -27 -8 l-53 1 0 38 c0 28 4 39 15 39 8 0
15 -9 15 -19z m290 4 c0 -8 7 -15 15 -15 9 0 15 -9 15 -25 0 -31 -19 -33 -21
-2 l-2 22 -4 -22 c-7 -38 -23 -26 -23 17 0 22 5 40 10 40 6 0 10 -7 10 -15z
m210 5 c-13 -9 -13 -11 0 -20 10 -6 11 -10 3 -10 -7 0 -13 -9 -13 -20 0 -28
-17 -25 -22 4 -6 30 8 56 30 56 15 0 15 -2 2 -10z m-254 -15 c9 -8 11 -15 5
-15 -15 0 -14 -27 2 -33 6 -3 2 -6 -9 -6 -22 -1 -36 29 -26 57 5 16 10 15 28
-3z m387 -48 c18 -4 17 -5 -5 -6 -26 -1 -28 2 -26 37 1 36 1 36 5 5 3 -23 10
-33 26 -36z m139 35 c-16 -5 -15 -29 1 -35 7 -4 6 -6 -4 -6 -10 -1 -19 9 -21
24 -6 29 -1 36 20 27 10 -4 12 -7 4 -10z m-1395 -29 c-3 -10 -5 -4 -5 12 0 17
2 24 5 18 2 -7 2 -21 0 -30z m753 12 c0 -31 -19 -33 -21 -2 l-2 22 -4 -22 c-6
-31 -23 -29 -23 2 0 20 5 25 25 25 20 0 25 -5 25 -25z m70 -10 c0 -32 -3 -35
-27 -34 -25 0 -26 1 -8 9 16 7 17 9 3 9 -40 2 -34 51 7 51 22 0 25 -4 25 -35z
m255 10 c0 -13 -8 -21 -24 -23 -28 -4 -46 11 -37 33 9 25 61 16 61 -10z m212
-12 c-3 -10 -5 -4 -5 12 0 17 2 24 5 18 2 -7 2 -21 0 -30z m48 27 c-17 -7 -17
-9 -2 -9 9 -1 17 -8 17 -16 0 -9 -9 -15 -22 -14 -22 0 -22 1 -3 9 17 7 17 9 3
9 -10 1 -18 8 -18 16 0 9 9 15 23 14 21 0 21 -1 2 -9z m358 -7 c-7 -2 -21 -2
-30 0 -10 3 -4 5 12 5 17 0 24 -2 18 -5z m-1468 -150 c-30 -3 -53 -10 -58 -19
-5 -8 -13 -12 -18 -8 -6 4 -6 11 2 20 8 9 30 13 68 12 l56 -2 -50 -3z m1353
-131 c17 -21 8 -72 -15 -89 -24 -19 -93 -16 -115 4 -31 28 -18 85 25 103 30
13 89 2 105 -18z m-1350 -7 c-3 -3 -9 2 -12 12 -6 14 -5 15 5 6 7 -7 10 -15 7
-18z m3716 17 c2 -4 -5 -9 -17 -9 -17 -2 -19 0 -7 7 18 12 18 12 24 2z m-3668
-29 c-4 -9 -1 -20 6 -25 10 -6 10 -8 1 -8 -7 0 -13 -9 -13 -20 0 -16 -7 -20
-35 -20 -31 0 -35 3 -35 25 0 18 5 25 20 25 11 0 20 6 20 14 0 13 13 23 34 25
4 1 5 -7 2 -16z m1504 2 c-10 -12 -10 -15 1 -16 10 0 11 -2 2 -6 -7 -2 -13
-13 -13 -24 0 -27 -17 -24 -22 5 -6 30 8 56 29 56 13 0 13 -3 3 -15z m1500 0
c-10 -12 -10 -15 1 -16 10 0 11 -2 2 -6 -7 -2 -13 -13 -13 -24 0 -27 -17 -24
-22 5 -6 30 8 56 29 56 13 0 13 -3 3 -15z m-2643 -1 c-3 -3 -12 -4 -19 -1 -8
3 -5 6 6 6 11 1 17 -2 13 -5z m35 -5 c2 -7 21 -12 43 -13 41 -1 63 -25 23 -27
-23 -1 -23 -1 2 -9 18 -6 10 -8 -32 -8 -52 0 -58 2 -59 22 -2 20 -2 20 -6 -1
-6 -32 -33 -30 -33 2 0 18 5 25 20 25 11 0 20 5 20 10 0 14 17 13 22 -1z m385
5 c-3 -3 -12 -4 -19 -1 -8 3 -5 6 6 6 11 1 17 -2 13 -5z m39 -9 c9 -8 11 -15
5 -15 -15 0 -14 -27 2 -33 6 -3 2 -6 -10 -6 -17 -1 -23 5 -24 22 l-2 22 -4
-22 c-6 -32 -33 -30 -33 2 0 18 5 25 20 25 11 0 20 5 20 10 0 14 9 12 26 -5z
m74 -4 c0 -11 -5 -23 -12 -27 -8 -5 -6 -10 8 -15 15 -6 12 -8 -14 -8 -32 -1
-33 0 -18 21 20 28 20 42 1 34 -8 -3 -15 -1 -15 4 0 6 11 10 25 10 18 0 25 -5
25 -19z m198 -12 c15 -1 15 -2 0 -6 -10 -2 -19 -12 -19 -21 -1 -15 -2 -15 -6
1 -2 9 -12 18 -21 18 -15 1 -15 2 1 6 9 2 18 12 18 21 1 15 2 15 6 0 2 -10 12
-19 21 -19z m545 -32 c18 -4 17 -5 -5 -6 -26 -1 -28 2 -26 37 1 36 1 36 5 5 3
-23 10 -33 26 -36z m477 54 c0 -5 -12 -12 -27 -16 l-28 -8 28 -10 c23 -9 38
-27 22 -27 -9 0 -65 30 -65 35 0 5 52 34 63 35 4 0 7 -4 7 -9z m157 3 c-3 -3
-12 -4 -19 -1 -8 3 -5 6 6 6 11 1 17 -2 13 -5z m35 -5 c2 -7 21 -12 43 -13 41
-1 63 -25 23 -27 -23 -1 -23 -1 2 -9 18 -5 9 -7 -32 -7 -52 0 -58 2 -59 21 -2
20 -2 20 -6 -1 -6 -29 -33 -30 -33 -2 0 12 8 23 20 26 11 3 20 9 20 14 0 13
18 11 22 -2z m341 4 c-7 -2 -19 -2 -25 0 -7 3 -2 5 12 5 14 0 19 -2 13 -5z
m43 -8 c9 -8 11 -15 5 -15 -15 0 -14 -27 2 -33 6 -3 2 -6 -10 -6 -17 -1 -23 5
-24 22 l-2 22 -4 -22 c-6 -32 -33 -30 -33 2 0 18 5 25 20 25 11 0 20 5 20 10
0 14 9 12 26 -5z m77 1 c3 -8 -1 -20 -10 -27 -13 -12 -13 -14 4 -20 13 -6 9
-8 -15 -8 -32 -1 -33 0 -18 21 20 28 20 42 1 34 -8 -3 -15 -1 -15 4 0 16 47
12 53 -4z m370 -49 c18 -4 17 -5 -5 -6 -26 -1 -28 2 -26 37 1 36 1 36 5 5 3
-23 10 -33 26 -36z m567 48 c0 -8 4 -15 9 -15 5 0 17 -3 27 -7 10 -3 15 -2 12
3 -4 5 7 9 23 9 16 0 29 -2 29 -5 0 -3 17 -4 38 -2 34 3 38 1 40 -22 1 -22 -3
-26 -26 -27 -15 -1 -31 -1 -35 0 -5 1 -30 2 -58 2 -42 1 -49 4 -50 23 -2 20
-2 20 -6 -1 -4 -19 -11 -23 -39 -23 -27 0 -34 4 -34 20 0 11 -5 20 -12 20 -7
0 -5 7 6 18 13 12 20 14 23 5 7 -18 23 -16 23 2 0 8 7 15 15 15 8 0 15 -7 15
-15z m-3753 -1 c-3 -3 -12 -4 -19 -1 -8 3 -5 6 6 6 11 1 17 -2 13 -5z m1825
-12 c-16 -5 -15 -29 1 -35 7 -4 6 -6 -4 -6 -10 -1 -19 9 -21 24 -6 29 -1 36
20 27 10 -4 12 -7 4 -10z m1500 0 c-16 -5 -15 -29 1 -35 7 -4 6 -6 -4 -6 -10
-1 -19 9 -21 24 -6 29 -1 36 20 27 10 -4 12 -7 4 -10z m-2724 -19 c2 -16 -2
-23 -12 -23 -10 0 -17 9 -17 23 l-2 22 -4 -22 c-6 -31 -23 -29 -23 3 0 22 4
25 28 22 19 -2 28 -9 30 -25z m36 11 c9 -24 7 -34 -8 -34 -7 0 -16 11 -18 25
-6 28 16 36 26 9z m870 7 c11 -17 -6 -41 -29 -41 -27 0 -39 14 -31 35 6 16 51
20 60 6z m213 -28 c-3 -10 -5 -4 -5 12 0 17 2 24 5 18 2 -7 2 -21 0 -30z m48
27 c-17 -7 -17 -9 -2 -9 9 -1 17 -8 17 -16 0 -9 -9 -15 -22 -14 -22 0 -22 1
-3 9 17 7 17 9 3 9 -10 1 -18 8 -18 16 0 9 9 15 23 14 21 0 21 -1 2 -9z m743
-19 c3 -16 -1 -22 -10 -19 -7 3 -13 10 -13 16 0 5 -3 14 -7 18 -5 4 -8 -2 -8
-14 0 -12 -4 -22 -10 -22 -5 0 -10 12 -10 26 0 22 4 25 28 22 20 -2 28 -9 30
-27z m36 13 c9 -24 7 -34 -8 -34 -7 0 -16 11 -18 25 -6 28 16 36 26 9z m461
-9 c0 -13 -8 -21 -24 -23 -28 -4 -46 11 -37 33 9 25 61 16 61 -10z m212 -12
c-3 -10 -5 -4 -5 12 0 17 2 24 5 18 2 -7 2 -21 0 -30z m48 27 c-17 -7 -17 -9
-2 -9 9 -1 17 -8 17 -16 0 -9 -9 -15 -22 -14 -22 0 -22 1 -3 9 17 7 17 9 3 9
-10 1 -18 8 -18 16 0 9 9 15 23 14 21 0 21 -1 2 -9z m-3185 -220 c0 -5 -5 -10
-11 -10 -5 0 -7 5 -4 10 3 6 8 10 11 10 2 0 4 -4 4 -10z m1700 -105 c-10 -12
-10 -15 1 -16 10 0 11 -2 2 -6 -7 -2 -13 -13 -13 -24 0 -27 -17 -24 -22 5 -6
30 8 56 29 56 13 0 13 -3 3 -15z m-1494 -10 c9 -8 11 -15 5 -15 -15 0 -14 -27
2 -33 6 -3 2 -6 -9 -6 -22 -1 -36 29 -26 57 5 16 10 15 28 -3z m526 4 c2 -7
22 -12 43 -13 33 -1 40 -5 40 -21 0 -17 -7 -20 -51 -22 -47 -2 -52 0 -56 20
-5 27 0 47 12 47 5 0 10 -5 12 -11z m235 5 c-3 -3 -12 -4 -19 -1 -8 3 -5 6 6
6 11 1 17 -2 13 -5z m35 -5 c2 -7 21 -12 43 -13 41 -1 63 -25 23 -27 -23 -1
-23 -1 2 -9 18 -6 10 -8 -32 -8 -52 0 -58 2 -59 22 -2 20 -2 20 -6 -1 -6 -32
-33 -30 -33 2 0 18 5 25 20 25 11 0 20 5 20 10 0 14 17 13 22 -1z m345 5 c-3
-3 -12 -4 -19 -1 -8 3 -5 6 6 6 11 1 17 -2 13 -5z m39 -9 c9 -8 11 -15 5 -15
-15 0 -14 -27 2 -33 6 -3 2 -6 -10 -6 -17 -1 -23 5 -24 22 l-2 22 -4 -22 c-6
-32 -33 -30 -33 2 0 18 5 25 20 25 11 0 20 5 20 10 0 14 9 12 26 -5z m74 -4
c0 -11 -5 -23 -12 -27 -8 -5 -6 -10 8 -15 15 -6 12 -8 -14 -8 -32 -1 -33 0
-18 21 20 28 20 42 1 34 -8 -3 -15 -1 -15 4 0 6 11 10 25 10 18 0 25 -5 25
-19z m373 -44 c18 -4 17 -5 -5 -6 -26 -1 -28 2 -26 37 1 36 1 36 5 5 3 -23 10
-33 26 -36z m-1481 35 c-16 -5 -15 -29 1 -35 7 -4 6 -6 -4 -6 -10 -1 -19 9
-21 24 -6 29 -1 36 20 27 10 -4 12 -7 4 -10z m1620 0 c-16 -5 -15 -29 1 -35 7
-4 6 -6 -4 -6 -10 -1 -19 9 -21 24 -6 29 -1 36 20 27 10 -4 12 -7 4 -10z
m-1887 -2 c-14 -6 -15 -9 -4 -9 8 -1 20 4 26 10 14 14 55 8 61 -8 2 -8 -6 -13
-20 -14 -23 -1 -23 -1 2 -9 17 -5 2 -7 -45 -7 -38 0 -61 3 -51 7 18 6 18 7 2
13 -25 10 -10 27 22 26 24 0 25 -1 7 -9z m354 -17 c-2 -24 -2 -25 -6 -5 -2 12
-9 22 -14 22 -5 0 -10 -10 -10 -22 l-2 -23 -4 23 c-2 12 -8 22 -13 22 -5 0
-11 -10 -13 -22 -4 -20 -4 -19 -6 5 -1 25 2 27 34 27 32 0 35 -2 34 -27z m61
2 c0 -15 -6 -25 -14 -25 -8 0 -17 -6 -19 -12 -3 -7 -6 4 -6 25 -1 31 2 37 19
37 15 0 20 -7 20 -25z m658 -2 c2 -16 -2 -23 -12 -23 -10 0 -17 9 -17 23 l-2
22 -4 -22 c-6 -31 -23 -29 -23 3 0 22 4 25 28 22 19 -2 28 -9 30 -25z m40 -1
c5 -31 -24 -29 -31 3 -3 20 -1 25 12 23 9 -2 17 -13 19 -26z m457 3 c0 -13 -8
-21 -24 -23 -28 -4 -46 11 -37 33 9 25 61 16 61 -10z m212 -12 c-3 -10 -5 -4
-5 12 0 17 2 24 5 18 2 -7 2 -21 0 -30z m48 27 c-17 -7 -17 -9 -2 -9 9 -1 17
-8 17 -16 0 -9 -9 -15 -22 -14 -22 0 -22 1 -3 9 17 7 17 9 3 9 -10 1 -18 8
-18 16 0 9 9 15 23 14 21 0 21 -1 2 -9z m-1915 -155 c0 -8 -4 -17 -10 -20 -6
-4 -10 5 -10 20 0 15 4 24 10 20 6 -3 10 -12 10 -20z m3077 -121 c17 -23 10
-74 -14 -91 -24 -19 -93 -16 -115 4 -31 28 -17 86 25 102 36 13 89 6 104 -15z
m-2817 -33 c0 -25 3 -28 22 -23 21 5 21 6 2 13 -16 6 -15 8 9 8 22 1 27 -3 27
-24 0 -22 -4 -24 -45 -23 -24 0 -42 4 -40 8 3 5 -6 3 -20 -3 -14 -7 -25 -15
-25 -19 0 -5 -4 -8 -10 -8 -5 0 -10 16 -10 36 0 35 1 36 30 32 24 -4 30 -1 30
14 0 10 7 18 15 18 10 0 15 -10 15 -29z m1020 14 c-10 -12 -10 -15 1 -16 10 0
11 -2 2 -6 -7 -2 -13 -13 -13 -24 0 -27 -17 -24 -22 5 -6 30 8 56 29 56 13 0
13 -3 3 -15z m670 0 c0 -8 7 -15 15 -15 9 0 15 -9 15 -25 0 -31 -19 -33 -21
-2 l-2 22 -4 -22 c-7 -38 -23 -26 -23 17 0 22 5 40 10 40 6 0 10 -7 10 -15z
m1330 0 c-10 -12 -10 -15 1 -16 10 0 11 -2 2 -6 -7 -2 -13 -13 -13 -24 0 -27
-17 -24 -22 5 -6 30 8 56 29 56 13 0 13 -3 3 -15z m-2733 -1 c-3 -3 -12 -4
-19 -1 -8 3 -5 6 6 6 11 1 17 -2 13 -5z m35 -5 c2 -7 21 -12 43 -13 41 -1 63
-25 23 -27 -23 -1 -23 -1 2 -9 18 -6 10 -8 -32 -8 -52 0 -58 2 -59 22 -2 20
-2 20 -6 -1 -6 -32 -33 -30 -31 2 2 17 8 25 20 25 10 0 18 5 18 10 0 14 17 13
22 -1z m345 5 c-3 -3 -12 -4 -19 -1 -8 3 -5 6 6 6 11 1 17 -2 13 -5z m39 -9
c9 -8 11 -15 5 -15 -15 0 -14 -27 2 -33 6 -3 2 -6 -10 -6 -17 -1 -23 5 -24 22
l-2 22 -4 -22 c-6 -32 -33 -30 -33 2 0 18 5 25 20 25 11 0 20 5 20 10 0 14 9
12 26 -5z m74 -4 c0 -11 -5 -23 -12 -27 -8 -5 -6 -10 8 -15 15 -6 12 -8 -14
-8 -32 -1 -33 0 -18 21 20 28 20 42 1 34 -8 -3 -15 -1 -15 4 0 6 11 10 25 10
18 0 25 -5 25 -19z m373 -44 c18 -4 17 -5 -5 -6 -26 -1 -28 2 -26 37 1 36 1
36 5 5 3 -23 10 -33 26 -36z m454 57 c-3 -3 -12 -4 -19 -1 -8 3 -5 6 6 6 11 1
17 -2 13 -5z m39 -9 c9 -8 11 -15 5 -15 -15 0 -14 -27 2 -33 6 -3 2 -6 -10 -6
-17 -1 -23 5 -24 22 l-2 22 -4 -22 c-2 -13 -11 -23 -19 -23 -8 0 -15 10 -15
23 l-2 22 -4 -22 c-5 -24 -32 -32 -34 -10 0 10 -2 10 -6 0 -8 -21 -30 -15 -35
10 -4 23 -2 24 56 25 33 0 62 6 64 11 5 15 11 14 28 -4z m231 9 c-3 -3 -12 -4
-19 -1 -8 3 -5 6 6 6 11 1 17 -2 13 -5z m39 -9 c9 -8 11 -15 5 -15 -6 0 -11
-7 -11 -15 0 -22 18 -18 25 5 8 24 50 27 59 5 4 -10 -1 -15 -17 -16 -21 -1
-21 -1 3 -9 18 -6 10 -8 -32 -8 -52 0 -58 2 -59 22 -2 20 -2 20 -6 -2 -5 -28
-27 -24 -31 6 -3 17 2 22 17 22 12 0 21 5 21 10 0 14 9 12 26 -5z m381 9 c-3
-3 -12 -4 -19 -1 -8 3 -5 6 6 6 11 1 17 -2 13 -5z m39 -9 c9 -8 11 -15 5 -15
-15 0 -14 -27 2 -33 6 -3 2 -6 -10 -6 -17 -1 -23 5 -24 22 l-2 22 -4 -22 c-6
-32 -33 -30 -33 2 0 18 5 25 20 25 11 0 20 5 20 10 0 14 9 12 26 -5z m74 -4
c0 -11 -5 -23 -12 -27 -8 -5 -6 -10 8 -15 15 -6 12 -8 -14 -8 -32 -1 -33 0
-18 21 20 28 20 42 1 34 -8 -3 -15 -1 -15 4 0 6 11 10 25 10 18 0 25 -5 25
-19z m198 -12 c15 -1 15 -2 0 -6 -10 -2 -19 -12 -19 -21 -1 -15 -2 -15 -6 1
-2 9 -12 18 -21 18 -15 1 -15 2 1 6 9 2 18 12 18 21 1 15 2 15 6 0 2 -10 12
-19 21 -19z m545 -32 c18 -4 17 -5 -5 -6 -26 -1 -28 2 -26 37 1 36 1 36 5 5 3
-23 10 -33 26 -36z m-1861 35 c-16 -5 -15 -29 1 -35 7 -4 6 -6 -4 -6 -10 -1
-19 9 -21 24 -6 29 -1 36 20 27 10 -4 12 -7 4 -10z m2000 0 c-16 -5 -15 -29 1
-35 7 -4 6 -6 -4 -6 -10 -1 -19 9 -21 24 -6 29 -1 36 20 27 10 -4 12 -7 4 -10z
m-3394 -9 c2 -8 -6 -13 -20 -14 -22 0 -22 -1 -3 -9 18 -8 17 -9 -8 -9 -16 -1
-30 5 -33 14 -4 8 -10 15 -15 15 -5 0 -9 -7 -9 -15 0 -8 -4 -15 -10 -15 -5 0
-10 11 -10 25 0 23 3 24 52 22 31 -1 53 -7 56 -14z m214 6 c-13 -5 -20 -13
-17 -19 11 -17 33 -11 40 11 5 15 14 19 33 17 33 -4 42 -28 10 -29 -23 -1 -23
-1 2 -8 18 -6 6 -8 -38 -8 -34 -1 -65 3 -68 8 -11 19 6 39 33 38 27 0 27 0 5
-10z m366 -16 c2 -16 -2 -23 -12 -23 -10 0 -17 9 -17 23 l-2 22 -4 -22 c-6
-31 -23 -29 -23 3 0 22 4 25 28 22 19 -2 28 -9 30 -25z m36 11 c9 -24 7 -34
-8 -34 -7 0 -16 11 -18 25 -6 28 16 36 26 9z m461 -9 c0 -13 -8 -21 -24 -23
-28 -4 -46 11 -37 33 9 25 61 16 61 -10z m212 -12 c-3 -10 -5 -4 -5 12 0 17 2
24 5 18 2 -7 2 -21 0 -30z m48 27 c-17 -7 -17 -9 -2 -9 9 -1 17 -8 17 -16 0
-9 -9 -15 -22 -14 -22 0 -22 1 -3 9 17 7 17 9 3 9 -10 1 -18 8 -18 16 0 9 9
15 23 14 21 0 21 -1 2 -9z m833 -17 c2 -16 -2 -23 -13 -23 -9 0 -14 4 -11 8 2
4 1 14 -5 22 -7 12 -9 10 -9 -7 0 -13 -4 -23 -10 -23 -5 0 -10 12 -10 26 0 22
4 25 28 22 19 -2 28 -9 30 -25z m40 -1 c5 -31 -24 -29 -31 3 -3 20 -1 25 12
23 9 -2 17 -13 19 -26z m867 3 c0 -13 -8 -21 -24 -23 -28 -4 -46 11 -37 33 9
25 61 16 61 -10z m212 -12 c-3 -10 -5 -4 -5 12 0 17 2 24 5 18 2 -7 2 -21 0
-30z m48 27 c-17 -7 -17 -9 -2 -9 9 -1 17 -8 17 -16 0 -9 -9 -15 -22 -14 -22
0 -22 1 -3 9 17 7 17 9 3 9 -10 1 -18 8 -18 16 0 9 9 15 23 14 21 0 21 -1 2
-9z m-3492 -171 c4 -3 1 -12 -8 -19 -13 -11 -15 -9 -15 15 0 16 3 24 8 19 4
-5 11 -11 15 -15z m1485 -106 c16 -22 8 -73 -15 -90 -9 -7 -36 -13 -60 -13
-35 0 -46 5 -59 26 -35 52 15 110 86 100 19 -3 41 -14 48 -23z m-1228 -32 c0
-25 3 -28 22 -23 21 5 21 6 2 13 -16 6 -15 8 9 8 22 1 27 -3 27 -24 0 -22 -4
-24 -45 -23 -24 0 -42 4 -40 8 3 5 -6 3 -20 -3 -14 -7 -25 -15 -25 -19 0 -5
-4 -8 -10 -8 -5 0 -10 16 -10 36 0 35 1 36 30 32 24 -4 30 -1 30 14 0 10 7 18
15 18 10 0 15 -10 15 -29z m1430 14 c-10 -12 -10 -15 1 -16 10 0 11 -2 2 -6
-7 -2 -13 -13 -13 -24 0 -27 -17 -24 -22 5 -6 30 8 56 29 56 13 0 13 -3 3 -15z
m670 0 c0 -8 7 -15 15 -15 9 0 15 -9 15 -25 0 -31 -19 -33 -21 -2 l-2 22 -4
-22 c-7 -38 -23 -26 -23 17 0 22 5 40 10 40 6 0 10 -7 10 -15z m-1813 -1 c-3
-3 -12 -4 -19 -1 -8 3 -5 6 6 6 11 1 17 -2 13 -5z m35 -5 c2 -7 21 -12 43 -13
41 -1 63 -25 23 -27 -23 -1 -23 -1 2 -9 18 -6 10 -8 -32 -8 -52 0 -58 2 -59
22 -2 20 -2 20 -6 -1 -6 -32 -33 -30 -31 2 2 17 8 25 20 25 10 0 18 5 18 10 0
14 17 13 22 -1z m385 5 c-3 -3 -12 -4 -19 -1 -8 3 -5 6 6 6 11 1 17 -2 13 -5z
m39 -9 c9 -8 11 -15 5 -15 -15 0 -14 -27 2 -33 6 -3 2 -6 -10 -6 -17 -1 -23 5
-24 22 l-2 22 -4 -22 c-6 -32 -33 -30 -33 2 0 18 5 25 20 25 11 0 20 5 20 10
0 14 9 12 26 -5z m74 -4 c0 -11 -6 -23 -12 -27 -9 -6 -5 -10 12 -15 21 -6 19
-7 -13 -8 -37 -1 -38 -1 -23 21 20 28 20 42 1 34 -8 -3 -15 -1 -15 4 0 6 11
10 25 10 18 0 25 -5 25 -19z m198 -12 c15 -1 15 -2 0 -6 -10 -2 -19 -12 -19
-21 -1 -15 -2 -15 -6 1 -2 9 -12 18 -21 18 -15 1 -15 2 1 6 9 2 18 12 18 21 1
15 2 15 6 0 2 -10 12 -19 21 -19z m545 -32 c18 -4 17 -5 -5 -6 -26 -1 -28 2
-26 37 1 36 1 36 5 5 3 -23 10 -33 26 -36z m454 57 c-3 -3 -12 -4 -19 -1 -8 3
-5 6 6 6 11 1 17 -2 13 -5z m39 -9 c9 -8 11 -15 5 -15 -15 0 -14 -27 2 -33 6
-3 2 -6 -10 -6 -17 -1 -23 5 -24 22 l-2 22 -4 -22 c-2 -13 -11 -23 -20 -23 -9
0 -13 6 -10 15 4 8 2 17 -3 20 -6 4 -10 -3 -10 -14 0 -22 -29 -30 -31 -8 0 10
-2 10 -6 0 -5 -15 -33 -18 -33 -4 0 5 -2 16 -5 24 -5 11 7 14 57 15 34 0 64 5
66 11 5 15 11 14 28 -4z m240 0 c9 -8 11 -15 5 -15 -15 0 -14 -27 2 -33 6 -3
2 -6 -9 -6 -22 -1 -36 29 -26 57 5 16 10 15 28 -3z m-594 -13 c-16 -5 -15 -29
1 -35 7 -4 6 -6 -4 -6 -10 -1 -19 9 -21 24 -6 29 -1 36 20 27 10 -4 12 -7 4
-10z m-1804 -9 c2 -8 -6 -13 -20 -14 -22 0 -22 -1 -3 -9 18 -8 17 -9 -8 -9
-16 -1 -30 5 -33 14 -4 8 -10 15 -15 15 -5 0 -9 -7 -9 -15 0 -8 -4 -15 -10
-15 -5 0 -10 11 -10 25 0 23 3 24 52 22 31 -1 53 -7 56 -14z m214 6 c-13 -5
-20 -13 -17 -19 11 -17 33 -11 40 11 5 15 14 19 33 17 33 -4 42 -28 10 -29
-23 -1 -23 -1 2 -8 18 -6 6 -8 -38 -8 -34 -1 -65 3 -68 8 -11 19 6 39 33 38
27 0 27 0 5 -10z m366 -16 c2 -16 -2 -23 -12 -23 -10 0 -17 9 -17 23 l-2 22
-4 -22 c-6 -31 -23 -29 -23 3 0 22 4 25 28 22 19 -2 28 -9 30 -25z m40 -1 c5
-31 -24 -29 -31 3 -3 20 -1 25 12 23 9 -2 17 -13 19 -26z m867 3 c0 -13 -8
-21 -24 -23 -28 -4 -46 11 -37 33 9 25 61 16 61 -10z m212 -12 c-3 -10 -5 -4
-5 12 0 17 2 24 5 18 2 -7 2 -21 0 -30z m48 27 c-17 -7 -17 -9 -2 -9 9 -1 17
-8 17 -16 0 -9 -9 -15 -22 -14 -22 0 -22 1 -3 9 17 7 17 9 3 9 -10 1 -18 8
-18 16 0 9 9 15 23 14 21 0 21 -1 2 -9z m733 -17 c2 -16 -2 -23 -12 -23 -10 0
-17 9 -17 23 l-2 22 -4 -22 c-6 -31 -23 -29 -23 3 0 22 4 25 28 22 19 -2 28
-9 30 -25z m110 4 c3 -12 -4 -20 -17 -24 -12 -3 -21 -9 -21 -14 0 -23 -20 -6
-21 19 -1 16 -3 20 -6 10 -7 -26 -30 -22 -35 6 -5 22 -2 23 46 22 41 -1 51 -5
54 -19z m-2895 -291 c3 -8 -1 -20 -9 -26 -12 -10 -14 -8 -14 14 0 28 14 35 23
12z m1185 -70 c19 -19 8 -82 -18 -96 -29 -15 -91 -12 -112 7 -34 31 -18 87 32
106 23 10 82 -1 98 -17z m-1058 -21 c0 -8 7 -15 15 -15 8 0 15 -9 15 -19 0
-17 3 -18 25 -8 21 10 22 13 7 19 -13 5 -10 7 9 7 19 1 28 -5 32 -19 7 -25 0
-29 -51 -28 -36 0 -42 4 -43 22 -2 20 -2 20 -6 -1 -5 -28 -23 -30 -23 -3 0 13
-7 20 -20 20 -25 0 -27 -27 -2 -34 9 -2 4 -4 -13 -3 -23 2 -30 7 -30 22 0 15
9 22 35 26 19 4 31 7 27 8 -11 1 2 21 14 21 5 0 9 -7 9 -15z m760 1 c0 -7 9
-16 21 -19 32 -9 20 -41 -16 -45 -29 -3 -30 -1 -31 38 -1 27 3 40 12 40 8 0
14 -6 14 -14z m-235 -7 c4 -5 -1 -19 -10 -29 -16 -17 -15 -19 7 -23 13 -2 0
-5 -28 -6 -48 -1 -52 1 -56 24 -6 29 2 38 22 24 10 -6 11 -9 3 -9 -7 0 -13 -7
-13 -15 0 -19 15 -19 45 1 25 17 24 40 -1 30 -8 -3 -14 -1 -14 4 0 13 37 13
45 -1z m-355 -26 c1 -17 1 -17 11 0 5 9 21 17 34 17 22 0 25 -5 25 -35 0 -32
-3 -35 -27 -34 -25 0 -26 1 -8 9 l20 9 -20 2 c-11 1 -28 2 -37 1 -12 -1 -18 6
-19 21 l-2 22 -4 -22 c-6 -31 -23 -29 -23 2 0 20 5 25 25 25 17 0 25 -6 25
-17z m148 0 c2 -8 -6 -13 -20 -14 -23 -1 -23 -1 2 -9 24 -8 24 -8 -7 -9 -34
-1 -48 11 -39 35 7 18 57 15 64 -3z m99 -20 c-3 -10 -5 -4 -5 12 0 17 2 24 5
18 2 -7 2 -21 0 -30z m413 26 c0 -8 5 -7 15 1 9 7 18 11 20 8 9 -9 -27 -68
-41 -68 -8 0 -13 4 -10 9 4 5 2 21 -4 35 -7 21 -6 26 5 26 8 0 15 -5 15 -11z
m-959 -111 c11 -21 11 -22 -4 -9 -10 7 -17 17 -17 22 0 15 9 10 21 -13z m1783
-66 c-6 -4 -14 -17 -18 -29 -6 -20 -14 -23 -57 -23 -60 0 -66 18 -7 22 25 2
43 9 46 17 3 10 0 12 -12 8 -20 -8 -20 2 0 32 l16 23 22 -21 c14 -15 17 -24
10 -29z m-1935 -86 c9 -10 8 -16 -4 -26 -13 -11 -15 -8 -15 14 0 30 3 32 19
12z m951 -116 l0 -70 -70 0 -71 0 3 62 3 63 59 2 c32 2 61 5 64 8 11 10 12 3
12 -65z m-744 15 c9 -8 11 -15 5 -15 -15 0 -14 -27 2 -33 6 -3 2 -6 -9 -6 -22
-1 -36 29 -26 57 5 16 10 15 28 -3z m244 1 c0 -7 -7 -20 -16 -27 -15 -12 -14
-14 7 -20 17 -5 8 -7 -27 -8 -48 -1 -52 1 -56 24 -6 29 2 38 22 24 10 -6 11
-9 3 -9 -7 0 -13 -7 -13 -15 0 -19 15 -19 45 1 25 17 24 40 -1 30 -8 -3 -14
-1 -14 4 0 6 11 10 25 10 15 0 25 -6 25 -14z m232 3 c2 -7 22 -12 43 -13 33
-1 40 -5 40 -21 0 -17 -7 -20 -51 -22 -47 -2 -52 0 -56 20 -5 27 0 47 12 47 5
0 10 -5 12 -11z m-597 -19 c-14 -6 -15 -9 -4 -9 8 -1 20 4 26 10 14 14 55 8
61 -8 2 -8 -6 -13 -20 -14 -23 -1 -23 -1 2 -9 17 -5 2 -7 -45 -7 -38 0 -61 3
-51 7 18 6 18 7 2 13 -25 10 -10 27 22 26 24 0 25 -1 7 -9z m252 -27 c-3 -10
-5 -4 -5 12 0 17 2 24 5 18 2 -7 2 -21 0 -30z m-338 -77 c9 -10 8 -16 -4 -26
-13 -11 -15 -8 -15 14 0 30 3 32 19 12z m1190 -62 c3 -3 6 -23 6 -46 0 -49
-22 -68 -79 -68 -63 0 -93 40 -65 91 6 11 20 24 32 29 22 9 95 5 106 -6z
m-1059 -29 c0 -8 7 -15 15 -15 9 0 18 -6 21 -14 3 -8 13 -12 27 -8 20 5 20 6
1 13 -16 6 -15 8 9 8 18 1 27 -4 27 -14 0 -8 0 -18 0 -22 0 -5 -20 -8 -45 -9
-39 -1 -45 2 -46 20 -2 20 -2 19 -6 -1 -5 -28 -19 -30 -26 -3 -3 11 -12 20
-21 20 -22 0 -20 -27 2 -34 9 -2 4 -4 -13 -3 -23 2 -30 7 -30 22 0 16 7 20 33
20 27 0 32 3 28 17 -2 11 1 18 10 18 8 0 14 -7 14 -15z m760 1 c0 -7 9 -16 21
-19 32 -9 20 -41 -16 -45 -29 -3 -30 -1 -28 35 2 46 1 43 13 43 6 0 10 -6 10
-14z m-237 -58 c8 -5 4 -8 -8 -8 -16 0 -20 6 -18 32 2 45 5 49 10 13 3 -16 10
-33 16 -37z m-61 34 c-16 -5 -15 -29 1 -35 7 -4 6 -6 -4 -6 -10 -1 -19 9 -21
24 -6 29 -1 36 20 27 10 -4 12 -7 4 -10z m-292 -17 c0 -31 -19 -33 -21 -2 l-2
22 -4 -22 c-6 -31 -23 -29 -23 2 0 20 5 25 25 25 20 0 25 -5 25 -25z m148 8
c2 -8 -6 -13 -20 -14 -23 -1 -23 -1 2 -9 24 -8 24 -8 -7 -9 -21 -1 -36 5 -42
17 -9 14 -10 13 -11 -10 0 -24 -4 -28 -27 -27 -25 0 -26 1 -8 9 16 7 17 9 3 9
-21 1 -32 17 -24 36 7 18 127 16 134 -2z m99 -20 c-3 -10 -5 -4 -5 12 0 17 2
24 5 18 2 -7 2 -21 0 -30z m413 20 c0 -15 2 -14 14 3 8 10 17 16 21 12 10 -10
-24 -68 -41 -68 -8 0 -13 4 -10 9 4 5 2 21 -4 35 -7 21 -6 26 5 26 8 0 15 -8
15 -17z m-946 -122 c-6 -6 -34 20 -34 32 0 6 8 2 19 -9 10 -10 17 -21 15 -23z
m1394 -26 c6 -14 8 -25 3 -25 -5 0 -12 -11 -15 -25 -6 -22 -11 -25 -56 -25
-60 0 -67 18 -8 22 41 3 64 23 33 30 -14 3 -14 5 0 26 21 28 29 28 43 -3z"/>
<path d="M840 3734 c0 -8 5 -12 10 -9 6 4 8 11 5 16 -9 14 -15 11 -15 -7z"/>
<path d="M910 3734 c0 -8 5 -12 10 -9 6 4 8 11 5 16 -9 14 -15 11 -15 -7z"/>
<path d="M690 3760 c0 -5 5 -10 10 -10 6 0 10 5 10 10 0 6 -4 10 -10 10 -5 0
-10 -4 -10 -10z"/>
<path d="M690 3730 c0 -5 5 -10 10 -10 6 0 10 5 10 10 0 6 -4 10 -10 10 -5 0
-10 -4 -10 -10z"/>
<path d="M1146 3741 c-4 -5 -2 -12 3 -15 5 -4 12 -2 15 3 4 5 2 12 -3 15 -5 4
-12 2 -15 -3z"/>
<path d="M225 3711 c-3 -5 -1 -12 5 -16 5 -3 10 1 10 9 0 18 -6 21 -15 7z"/>
<path d="M1031 3460 c-2 -3 -3 -20 -4 -38 -2 -26 2 -32 18 -32 12 0 16 3 8 8
-6 4 -13 21 -16 37 -2 17 -5 28 -6 25z"/>
<path d="M830 3415 c0 -8 5 -15 10 -15 6 0 10 7 10 15 0 8 -4 15 -10 15 -5 0
-10 -7 -10 -15z"/>
<path d="M881 3414 c0 -11 3 -14 6 -6 3 7 2 16 -1 19 -3 4 -6 -2 -5 -13z"/>
<path d="M1031 3240 c-2 -3 -3 -20 -4 -38 -2 -26 2 -32 18 -32 12 0 16 3 8 8
-6 4 -13 21 -16 37 -2 17 -5 28 -6 25z"/>
<path d="M830 3195 c0 -8 5 -15 10 -15 6 0 10 7 10 15 0 8 -4 15 -10 15 -5 0
-10 -7 -10 -15z"/>
<path d="M881 3194 c0 -11 3 -14 6 -6 3 7 2 16 -1 19 -3 4 -6 -2 -5 -13z"/>
<path d="M341 2964 c0 -11 3 -14 6 -6 3 7 2 16 -1 19 -3 4 -6 -2 -5 -13z"/>
<path d="M278 2953 c6 -2 18 -2 25 0 6 3 1 5 -13 5 -14 0 -19 -2 -12 -5z"/>
<path d="M885 2971 c-3 -5 -1 -12 5 -16 5 -3 10 1 10 9 0 18 -6 21 -15 7z"/>
<path d="M1141 2964 c0 -11 3 -14 6 -6 3 7 2 16 -1 19 -3 4 -6 -2 -5 -13z"/>
<path d="M2111 2740 c-2 -3 -3 -20 -4 -38 -2 -26 2 -32 18 -32 12 0 16 3 8 8
-6 4 -13 21 -16 37 -2 17 -5 28 -6 25z"/>
<path d="M491 2694 c0 -11 3 -14 6 -6 3 7 2 16 -1 19 -3 4 -6 -2 -5 -13z"/>
<path d="M428 2683 c6 -2 18 -2 25 0 6 3 1 5 -13 5 -14 0 -19 -2 -12 -5z"/>
<path d="M1081 2694 c0 -11 3 -14 6 -6 3 7 2 16 -1 19 -3 4 -6 -2 -5 -13z"/>
<path d="M1331 2694 c0 -11 3 -14 6 -6 3 7 2 16 -1 19 -3 4 -6 -2 -5 -13z"/>
<path d="M1801 2410 c-2 -3 -3 -20 -4 -38 -2 -26 2 -32 18 -32 12 0 16 3 8 8
-6 4 -13 21 -16 37 -2 17 -5 28 -6 25z"/>
<path d="M521 2354 c0 -11 3 -14 6 -6 3 7 2 16 -1 19 -3 4 -6 -2 -5 -13z"/>
<path d="M960 2365 c0 -8 5 -15 10 -15 6 0 10 7 10 15 0 8 -4 15 -10 15 -5 0
-10 -7 -10 -15z"/>
<path d="M2870 2365 c0 -8 5 -15 10 -15 6 0 10 7 10 15 0 8 -4 15 -10 15 -5 0
-10 -7 -10 -15z"/>
<path d="M4220 2355 c0 -9 5 -15 11 -13 6 2 11 8 11 13 0 5 -5 11 -11 13 -6 2
-11 -4 -11 -13z"/>
<path d="M4411 2354 c0 -11 3 -14 6 -6 3 7 2 16 -1 19 -3 4 -6 -2 -5 -13z"/>
<path d="M4353 2343 c9 -2 23 -2 30 0 6 3 -1 5 -18 5 -16 0 -22 -2 -12 -5z"/>
<path d="M1991 2364 c0 -11 3 -14 6 -6 3 7 2 16 -1 19 -3 4 -6 -2 -5 -13z"/>
<path d="M3491 2364 c0 -11 3 -14 6 -6 3 7 2 16 -1 19 -3 4 -6 -2 -5 -13z"/>
<path d="M1330 2015 c0 -8 5 -15 10 -15 6 0 10 7 10 15 0 8 -4 15 -10 15 -5 0
-10 -7 -10 -15z"/>
<path d="M1381 2014 c0 -11 3 -14 6 -6 3 7 2 16 -1 19 -3 4 -6 -2 -5 -13z"/>
<path d="M1600 2015 c0 -8 5 -15 10 -15 6 0 10 7 10 15 0 8 -4 15 -10 15 -5 0
-10 -7 -10 -15z"/>
<path d="M1070 2015 c0 -8 5 -15 10 -15 6 0 10 7 10 15 0 8 -4 15 -10 15 -5 0
-10 -7 -10 -15z"/>
<path d="M2221 2014 c0 -11 3 -14 6 -6 3 7 2 16 -1 19 -3 4 -6 -2 -5 -13z"/>
<path d="M3611 1740 c-2 -3 -3 -20 -4 -38 -2 -26 2 -32 18 -32 12 0 16 3 8 8
-6 4 -13 21 -16 37 -2 17 -5 28 -6 25z"/>
<path d="M791 1694 c0 -11 3 -14 6 -6 3 7 2 16 -1 19 -3 4 -6 -2 -5 -13z"/>
<path d="M1180 1695 c0 -8 5 -15 10 -15 6 0 10 7 10 15 0 8 -4 15 -10 15 -5 0
-10 -7 -10 -15z"/>
<path d="M1801 1694 c0 -11 3 -14 6 -6 3 7 2 16 -1 19 -3 4 -6 -2 -5 -13z"/>
<path d="M3801 1694 c0 -11 3 -14 6 -6 3 7 2 16 -1 19 -3 4 -6 -2 -5 -13z"/>
<path d="M2021 1420 c-2 -3 -3 -20 -4 -38 -2 -26 2 -32 18 -32 12 0 16 3 8 8
-6 4 -13 21 -16 37 -2 17 -5 28 -6 25z"/>
<path d="M791 1374 c0 -11 3 -14 6 -6 3 7 2 16 -1 19 -3 4 -6 -2 -5 -13z"/>
<path d="M1180 1375 c0 -8 5 -15 10 -15 6 0 10 7 10 15 0 8 -4 15 -10 15 -5 0
-10 -7 -10 -15z"/>
<path d="M2211 1374 c0 -11 3 -14 6 -6 3 7 2 16 -1 19 -3 4 -6 -2 -5 -13z"/>
<path d="M3311 1374 c0 -11 3 -14 6 -6 3 7 2 16 -1 19 -3 4 -6 -2 -5 -13z"/>
<path d="M1571 1000 c-2 -3 -3 -20 -4 -38 -2 -26 2 -32 18 -32 12 0 16 3 8 8
-6 4 -13 21 -16 37 -2 17 -5 28 -6 25z"/>
<path d="M1341 954 c0 -11 3 -14 6 -6 3 7 2 16 -1 19 -3 4 -6 -2 -5 -13z"/>
<path d="M791 954 c0 -11 3 -14 6 -6 3 7 2 16 -1 19 -3 4 -6 -2 -5 -13z"/>
<path d="M1181 620 c-2 -3 -3 -20 -4 -38 -2 -26 2 -32 18 -32 12 0 16 3 8 8
-6 4 -13 21 -16 37 -2 17 -5 28 -6 25z"/>
<path d="M980 575 c0 -8 5 -15 10 -15 6 0 10 7 10 15 0 8 -4 15 -10 15 -5 0
-10 -7 -10 -15z"/>
<path d="M1031 574 c0 -11 3 -14 6 -6 3 7 2 16 -1 19 -3 4 -6 -2 -5 -13z"/>
<path d="M1421 400 c-2 -3 -3 -20 -4 -38 -2 -26 2 -32 18 -32 12 0 16 3 8 8
-6 4 -13 21 -16 37 -2 17 -5 28 -6 25z"/>
<path d="M1191 354 c0 -11 3 -14 6 -6 3 7 2 16 -1 19 -3 4 -6 -2 -5 -13z"/>
<path d="M641 354 c0 -11 3 -14 6 -6 3 7 2 16 -1 19 -3 4 -6 -2 -5 -13z"/>
</g>
</svg>
