<svg width="463" height="676" xmlns="http://www.w3.org/2000/svg" xmlns:svg="http://www.w3.org/2000/svg" xmlns:xlink="http://www.w3.org/1999/xlink">
 <defs>
  <g transform="scale(0.65) translate(-3 4)" id="greenFlag">
   <path d="m20.799999,3.7c-0.4,-0.2 -0.9,-0.1 -1.200001,0.2c-2,1.6 -4.799999,1.6 -6.799999,0c-2.3,-1.9 -5.6,-2.3 -8.3,-1l0,-0.4c0,-0.6 -0.5,-1 -1,-1s-1,0.4 -1,1l0,18.799999c0,0.5 0.5,1 1,1l0.1,0c0.5,0 1,-0.5 1,-1l0,-6.400002c1,-0.7 2.1,-1.2 3.4,-1.299998c1.2,0 2.4,0.4 3.4,1.2c2.900002,2.299999 7.000001,2.299999 9.8,0c0.299999,-0.2 0.4,-0.5 0.4,-0.900002l0,-9.199999c0,-0.5 -0.299999,-0.9 -0.799999,-1l0,0.000001zm-0.300001,10.2c-2.499998,2.1 -6.099998,2.1 -8.599998,0.1c-1.099998,-0.9 -2.5,-1.4 -4,-1.4c-1.2,0.099998 -2.3,0.5 -3.4,1.099998l0,-9.7c2.5,-1.4 5.5,-1.1 7.699999,0.6c2.400002,1.9 5.700001,1.9 8.1,0l0.200001,0l0.1,0.1l-0.1,9.2l-0.000002,0l0,0.000001z" fill="#45993d" id="svg_1"/>
   <path d="m20.6,4.8l-0.1,9.1l0,0.1c-2.5,2.000001 -6.1,2.000001 -8.6,0c-1.099998,-0.9 -2.5,-1.4 -4,-1.4c-1.2,0.099998 -2.3,0.5 -3.4,1.099998l0,-9.700001c2.5,-1.4 5.5,-1.1 7.7,0.6c2.400002,1.9 5.7,1.9 8.099999,0l0.200001,0c0,0.1 0.1,0.1 0.1,0.2l0,0.000001z" fill="#4cbf56" id="svg_2"/>
  </g>
  <g transform="scale(0.65) translate(-2 -5)" id="turnRight">
   <path d="m22.68,12.2a1.6,1.6 0 0 1 -1.27,0.63l-7.69,0a1.59,1.59 0 0 1 -1.16,-2.58l1.12,-1.41a4.82,4.82 0 0 0 -3.14,-0.77a4.31,4.31 0 0 0 -2,0.8a4.25,4.25 0 0 0 -1.34,1.73a5.06,5.06 0 0 0 0.54,4.62a5.58,5.58 0 0 0 4.26,2.52a2.26,2.26 0 0 1 -0.16,4.52a10.25,10.25 0 0 1 -8.1,-4.26a10.14,10.14 0 0 1 -1.49,-9.220001a9.7,9.7 0 0 1 2.83,-4.14a9.92,9.92 0 0 1 4.58,-2.14a10.66,10.66 0 0 1 7.719999,1.68l1.08,-1.35a1.57,1.57 0 0 1 1.240002,-0.6a1.6,1.6 0 0 1 1.539999,1.21l1.700001,7.37a1.57,1.57 0 0 1 -0.26,1.389998l0,0.000002z" fill="#3d79cc" id="svg_3"/>
   <path d="m21.379999,11.83l-7.610002,0a0.59,0.59 0 0 1 -0.429998,-1l1.75,-2.19a5.9,5.9 0 0 0 -4.7,-1.58a5.07,5.07 0 0 0 -4.110002,3.17a6,6 0 0 0 0.720001,5.540002a6.51,6.51 0 0 0 5,2.919999a1.31,1.31 0 0 1 -0.08,2.619999a9.3,9.3 0 0 1 -7.35,-3.82a9.16,9.16 0 0 1 -1.4,-8.369999a8.51,8.51 0 0 1 2.54,-3.720001a8.76,8.76 0 0 1 4.11,-1.92a9.71,9.71 0 0 1 7.750001,2.07l1.67,-2.1a0.59,0.59 0 0 1 1,0.21l1.759998,7.42a0.59,0.59 0 0 1 -0.620001,0.75l0.000002,0z" fill="#fff" id="svg_4"/>
  </g>
  <g transform="scale(0.65) translate(-2 -5)" id="turnLeft">
   <path d="m20.34,18.209999a10.24,10.24 0 0 1 -8.1,4.219999a2.26,2.26 0 0 1 -0.16,-4.519999a5.58,5.58 0 0 0 4.25,-2.530002a5.06,5.06 0 0 0 0.540001,-4.62a4.25,4.25 0 0 0 -1.320001,-1.759999a4.31,4.31 0 0 0 -2,-0.8a4.82,4.82 0 0 0 -3.150002,0.8l1.120002,1.41a1.59,1.59 0 0 1 -1.160002,2.59l-7.69,0a1.56,1.56 0 0 1 -1.26,-0.63a1.54,1.54 0 0 1 -0.28,-1.37l1.72,-7.43a1.59,1.59 0 0 1 1.53,-1.17a1.57,1.57 0 0 1 1.24,0.6l1.08,1.35a10.66,10.66 0 0 1 7.719999,-1.68a9.88,9.88 0 0 1 4.58,2.14a9.61,9.61 0 0 1 2.83,4.19a10.08,10.08 0 0 1 -1.49,9.209998l0.000002,0.000002z" fill="#3d79cc" id="svg_5"/>
   <path d="m19.559999,17.65a9.29,9.29 0 0 1 -7.349998,3.83a1.31,1.31 0 0 1 -0.08,-2.619999a6.53,6.53 0 0 0 4.999998,-2.920001a6.05,6.05 0 0 0 0.67,-5.51a5.32,5.32 0 0 0 -1.639997,-2.160002a5.21,5.21 0 0 0 -2.48,-1a5.86,5.86 0 0 0 -4.68,1.570001l1.74,2.16a0.59,0.59 0 0 1 -0.429998,1l-7.61,0a0.6,0.6 0 0 1 -0.6,-0.75l1.71,-7.42a0.59,0.59 0 0 1 1,-0.21l1.67,2.1a9.71,9.71 0 0 1 7.75,-2.07a8.84,8.84 0 0 1 4.12,1.92a8.68,8.68 0 0 1 2.539999,3.72a9.14,9.14 0 0 1 -1.33,8.360001l-0.000002,0z" fill="#fff" id="svg_6"/>
  </g>
  <path d="m0,0l4,4l-4,4l0,-8z" fill="#111" id="addInput"/>
  <path d="m4,0l0,8l-4,-4l4,-4z" fill="#111" id="delInput"/>
  <g transform="scale(0.65) translate(-15 -25)" id="loopArrow">
   <path d="m23.299999,11c-0.300001,0.6 -0.9,1 -1.5,1l-1.6,0c-0.1,1.3 -0.5,2.5 -1.1,3.6c-0.9,1.699999 -2.299999,3.199999 -4.099998,4.1c-1.7,0.9 -3.6,1.199999 -5.5,0.9c-1.8,-0.300001 -3.5,-1.1 -4.9,-2.300001c-0.7,-0.699999 -0.7,-1.9 0,-2.599999c0.6,-0.599998 1.6,-0.7 2.3,-0.2l0.100001,0c0.9,0.6 1.9,0.9 2.9,0.9s1.900002,-0.299999 2.700002,-0.9c1.099998,-0.8 1.799998,-2.1 1.799998,-3.5l-1.5,0c-0.9,0 -1.7,-0.7 -1.7,-1.7c0,-0.400002 0.2,-0.900002 0.5,-1.2l4.400002,-4.400002c0.699999,-0.6 1.699999,-0.6 2.4,0l4.5,4.5c0.5,0.5 0.6,1.2 0.299999,1.8l-0.000002,0.000001z" fill="#cf8b17" id="svg_7"/>
   <path d="m21.799999,11l-2.6,0c0,1.5 -0.299999,2.9 -1,4.2c-0.799999,1.599999 -2.1,2.8 -3.7,3.599999c-1.5,0.800001 -3.3,1.1 -4.9,0.800001c-1.6,-0.200001 -3.2,-1 -4.400002,-2.1c-0.4,-0.299999 -0.4,-0.9 -0.1,-1.200001c0.3,-0.400001 0.9,-0.400001 1.2,-0.099998c1,0.699999 2.2,1.099998 3.4,1.099998s2.3,-0.299999 3.3,-1c0.9,-0.599999 1.6,-1.499999 2,-2.599999c0.3,-0.9 0.4,-1.8 0.2,-2.8l-2.4,0c-0.400002,0 -0.7,-0.299998 -0.7,-0.7c0,-0.2 0.099998,-0.3 0.2,-0.4l4.400001,-4.4c0.299997,-0.3 0.700001,-0.3 0.9,0l4.400002,4.4c0.299999,0.3 0.4,0.599998 0.299999,0.9s-0.299999,0.3 -0.5,0.3z" fill="#fff" id="svg_8"/>
  </g>
  <g transform="scale(0.65)" id="whiteDropdownArrow">
   <path d="m12.71,2.44a2.41,2.41 0 0 1 -0.71,1.72l-3.92,3.92a2.45,2.45 0 0 1 -3.45,0l-3.91,-3.92a2.42,2.42 0 0 1 -0.72,-1.72a2.48,2.48 0 0 1 0.71,-1.73c0.29,-0.24 0.72,-0.71 5.65,-0.71s5.39,0.46 5.64,0.71a2.44,2.44 0 0 1 0.71,1.73z" fill="#231f20" opacity="0.1" id="svg_9"/>
   <path d="m6.36,7.79a1.43,1.43 0 0 1 -1,-0.42l-3.94,-3.92a1.44,1.44 0 0 1 0,-2c0.56,-0.56 9.31,-0.56 9.87,0a1.44,1.44 0 0 1 0,2l-3.92,3.92a1.43,1.43 0 0 1 -1.01,0.42z" fill="#fff" id="svg_10"/>
  </g>
  <g transform="scale(0.65)" id="blackDropdownArrow">
   <path d="m12.71,2.44a2.41,2.41 0 0 1 -0.71,1.72l-3.92,3.92a2.45,2.45 0 0 1 -3.45,0l-3.91,-3.92a2.42,2.42 0 0 1 -0.72,-1.72a2.48,2.48 0 0 1 0.71,-1.73c0.29,-0.24 0.72,-0.71 5.65,-0.71s5.39,0.46 5.64,0.71a2.44,2.44 0 0 1 0.71,1.73z" fill="#231f20" opacity="0.1" id="svg_11"/>
   <path d="m6.36,7.79a1.43,1.43 0 0 1 -1,-0.42l-3.94,-3.92a1.44,1.44 0 0 1 0,-2c0.56,-0.56 9.31,-0.56 9.87,0a1.44,1.44 0 0 1 0,2l-3.92,3.92a1.43,1.43 0 0 1 -1.01,0.42z" fill="#111" id="svg_12"/>
  </g>
  <g transform="scale(0.65)" fill="none" id="music">
   <path d="m28.455999,21.674999c-0.009001,-0.312 -0.087,-0.825001 -0.256001,-1.702c-0.096003,-0.495001 -0.612001,-3.022001 -0.753,-3.730001c-0.395,-1.98 -0.76,-3.919999 -1.142,-6.112999c-0.732,-4.223 -0.692999,-6.05 0.344,-6.527c0.502001,-0.23 1.060001,-0.081 1.842001,0.35c0.413,0.227 2.181,1.365 2.07,1.296c1.993002,1.243 3.462999,1.775 4.927999,1.549c1.527,-0.237 2.505001,-0.06 2.876999,0.618c0.348003,0.635 0.015003,1.416 -0.729,2.18c-1.473,1.516 -3.975998,2.514 -5.848999,2.023c-0.821999,-0.217999 -1.237999,-0.464 -2.379999,-1.266a9.737,9.737 0 0 0 -0.094999,-0.066c0.046999,0.593 0.264,1.740002 0.716999,3.803c0.294001,1.335999 2.078999,9.187001 2.637001,11.674001l0.001999,0.011999c0.528999,2.636999 -1.872,4.723999 -5.235001,4.723999c-3.289999,0 -6.362999,-1.987999 -6.862,-4.528c-0.529999,-2.639999 1.873001,-4.733999 5.233,-4.733999a8.411,8.411 0 0 1 2.650002,0.437l0.000999,0zm-16.995998,5.991001c-0.01,-0.319 -0.091,-0.84 -0.266,-1.738001c-0.09,-0.459999 -0.595,-2.937 -0.753,-3.726999c-0.39,-1.960001 -0.752,-3.892 -1.131,-6.07c-0.732,-4.224002 -0.692,-6.052 0.344,-6.527c0.502,-0.23 1.059999,-0.082 1.841,0.349c0.414001,0.228 2.181,1.365 2.07,1.296c1.992002,1.243 3.460999,1.775002 4.925001,1.549002c1.525,-0.240002 2.504,-0.064 2.875998,0.613998c0.348001,0.635 0.015001,1.415 -0.727999,2.18c-1.474001,1.516999 -3.977001,2.513 -5.846999,2.016999c-0.822001,-0.217999 -1.237,-0.462999 -2.38,-1.265999a9.729,9.729 0 0 0 -0.094,-0.065001c0.047,0.592999 0.264,1.74 0.717,3.802c0.294,1.337 2.078,9.190001 2.636,11.675001l0.003,0.013c0.516999,2.638 -1.884002,4.731995 -5.234001,4.731995c-3.286,0 -6.359001,-1.993 -6.869999,-4.539999c-0.518,-2.639 1.885,-4.73 5.242,-4.73c0.904,0 1.802,0.15 2.650002,0.436001l-0.001,0l-0.000001,0.000002z" stroke-opacity="0.1" stroke="#000" id="svg_13"/>
   <path d="m32.18,25.874001c0.456001,2.282999 -1.668001,4.125999 -4.747,4.125999c-3.07,0 -5.923,-1.843 -6.372,-4.125999c-0.458,-2.285 1.664999,-4.136 4.743,-4.136c0.646997,0 1.282999,0.084 1.889997,0.233997a7,7 0 0 1 0.938,0.302c0.870003,-0.019999 -0.103998,-2.294001 -1.834997,-12.228999c-2.134003,-12.303001 3.059998,-1.87 8.767998,-2.753c5.708,-0.885 0.076,4.820002 -3.649998,3.844c-3.724003,-0.987 -4.650003,-7.153 0.263,14.738002l0.001999,0zm-16.999998,5.99c0.449999,2.283998 -1.673001,4.136 -4.741001,4.136c-3.068,0 -5.92,-1.852001 -6.379,-4.136c-0.448,-2.284 1.674,-4.135 4.751,-4.135c1.002,0 1.974,0.197001 2.854,0.544001c0.822001,-0.055 -0.15,-2.377001 -1.862,-12.228001c-2.133,-12.303 3.059,-1.87 8.763998,-2.753c5.706001,-0.894 0.076,4.821001 -3.648,3.834002c-3.723,-0.987 -4.648,-7.151999 0.263,14.737999l-0.001999,0l0.000001,0z" fill="#fff" id="svg_14"/>
  </g>
  <g transform="scale(0.65)" stroke-linejoin="round" stroke="#575e75" fill="none" id="pen">
   <path d="m8.753,34.602001l-4.251,1.778999l1.784,-4.236c1.218,-2.892 2.907,-5.423 5.030002,-7.538l19.749998,-19.677002c0.846001,-0.842 2.65,-0.41 4.032,0.967c1.380001,1.375 1.816002,3.173 0.970001,4.015l-19.75,19.677999c-2.123,2.115999 -4.664,3.799 -7.565,5.012001" fill="#fff" id="svg_15"/>
   <path d="m29.41,6.111s-4.450001,-2.379 -8.202,5.771c-1.733999,3.766 -4.35,1.546 -4.35,1.546" id="svg_16"/>
   <path d="m36.419998,8.825c0,0.463 -0.139999,0.873 -0.431999,1.164001l-9.335001,9.300998c0.282,-0.290001 0.41,-0.667999 0.41,-1.120001c0,-0.873999 -0.507,-1.962997 -1.406,-2.867999c-1.362,-1.358 -3.146999,-1.8 -4.001999,-0.99l9.335001,-9.301999c0.844,-0.84 2.65,-0.41 4.035002,0.96c0.897999,0.904 1.396,1.982 1.396,2.855m-25.905999,24.948998a23.74,23.74 0 0 1 -1.764,0.829998l-4.251,1.778004l1.786,-4.235001c0.258,-0.604 0.529,-1.185999 0.833,-1.757c0.69,0.183001 1.449,0.625 2.109,1.282001c0.659,0.658001 1.102,1.411999 1.287002,2.101997" fill="#4c97ff" id="svg_17"/>
   <path d="m36.498001,8.748c0,0.464 -0.140999,0.874 -0.432999,1.165l-19.742001,19.68c-2.131001,2.111 -4.673001,3.793001 -7.572001,5.01l-4.251,1.778l0.974,-2.317001l1.925,-0.807999c2.898999,-1.217999 5.441,-2.899 7.572,-5.01l19.742001,-19.68c0.292004,-0.292 0.431999,-0.702 0.431999,-1.165c0,-0.647 -0.269997,-1.4 -0.778999,-2.123c0.249004,0.172 0.498001,0.377 0.736,0.614c0.898003,0.905 1.396,1.983 1.396,2.856" fill="#575e75" opacity="0.15" id="svg_18"/>
   <path d="m18.450001,12.831a0.904,0.904 0 1 1 -1.806999,0a0.904,0.904 0 0 1 1.806999,0z" fill="#575e75" id="svg_19"/>
  </g>
  <g transform="scale(0.65)" stroke-opacity="0.15" stroke="#000" fill="#fff" id="video">
   <circle r="4.5" cy="16" cx="32" opacity="0.25" id="svg_20"/>
   <circle r="4.5" cy="12" cx="32" opacity="0.5" id="svg_21"/>
   <circle r="4.5" cy="8" cx="32" opacity="0.75" id="svg_22"/>
   <circle r="4.5" cy="4" cx="32" id="svg_23"/>
   <path d="m22.672001,4.42l-6.171999,4l0,-2.32c0,-2.01 -1.563001,-3.6 -3.500001,-3.6l-8.900001,0c-2.024,0 -3.6,1.576 -3.6,3.6l0,7.9c0,1.927 1.584,3.511999 3.6,3.6l8.9,0c1.902,0 3.5,-1.653002 3.5,-3.6l0,-2.283l6.257,3.754l0.097,0.075c0.02,0.02 0.098,0.054002 0.146,0.054002c0.267,0 0.5,-0.217 0.5,-0.5l0,-10.3c0,0.037 -0.056,-0.094 -0.129,-0.243c-0.145,-0.242 -0.43,-0.299 -0.700001,-0.137l0.001001,0l0,-0.000001z" stroke-linejoin="round" fill="#4d4d4d" id="svg_24"/>
  </g>
  <g transform="scale(0.65)" stroke-opacity="0.15" stroke="#000" id="tts">
   <path d="m25.643999,20.5c-1.667,1.937 -4.539,3.429001 -5.976999,3.429001a1.25,1.25 0 0 1 -0.557001,-0.137001c-0.372,-0.185999 -0.610001,-0.542 -0.610001,-1.030001c0,-0.105 0.017,-0.206999 0.050001,-0.307999c0.076,-0.236 0.624001,-0.986 0.726999,-1.173c0.269999,-0.483999 0.462,-1.075001 0.566,-1.865a8.5,8.5 0 0 1 4.157,-15.916l4,0a8.5,8.5 0 1 1 0,17l-2.356001,0l0.000002,0z" fill="#fff" id="svg_25"/>
   <path d="m15.5,21.67c0,-1.016001 -1.494,-1.586 -2.387,-0.782l-2.7,2.163a5.958,5.958 0 0 1 -3.713,1.278999l-0.4,0c-1.035,0 -1.8,0.690001 -1.8,1.573l0,4.235001c0,0.882999 0.765,1.571999 1.8,1.571999l0.4,0c1.458,0 2.754002,0.423 3.820002,1.287003l2.598,2.160999c0.908,0.75 2.382,0.188 2.382,-0.875999l0,-12.612001l-0.000001,0z" fill="#4d4d4d" id="svg_26"/>
  </g>
  <image height="40px" width="40px" transform="scale(0.65)" id="translate"/>
  <image height="40px" width="40px" transform="scale(0.65)" id="microbit"/>
  <g transform="scale(0.65)" fill="none" id="wedo">
   <path d="m23.513,11.17l-0.73,0c-0.319,0 -0.576,0.213 -0.576,0.478l0,1.08l1.882,0l0,-1.08c0,-0.264998 -0.258001,-0.479 -0.576,-0.479" fill="#7c87a5" id="svg_27"/>
   <path d="m24.91,11.17l-0.73,0c-0.319,0 -0.576,0.213 -0.576,0.478l0,1.08l1.882,0l0,-1.08c0,-0.264998 -0.257999,-0.479 -0.576,-0.479l0,0.001z" id="svg_28"/>
   <path d="m9.54,11.17l-0.728,0c-0.320002,0 -0.576,0.213 -0.576,0.478l0,1.08l1.882,0l0,-1.08c0,-0.264998 -0.257,-0.479 -0.577,-0.479" fill="#7c87a5" id="svg_29"/>
   <path d="m10.938,11.17l-0.729,0c-0.32,0 -0.575998,0.213 -0.575998,0.478l0,1.08l1.882,0l0,-1.08c0,-0.264998 -0.257,-0.479 -0.577002,-0.479l0,0.001z" id="svg_30"/>
   <path d="m26.305,11.17l-0.73,0c-0.318003,0 -0.574001,0.213 -0.574001,0.478l0,1.08l1.882,0l0,-1.08c0,-0.264998 -0.26,-0.479 -0.577999,-0.479" fill="#7c87a5" id="svg_31"/>
   <path d="m27.702,11.17l-0.73,0c-0.318001,0 -0.573999,0.213 -0.573999,0.478l0,1.08l1.882,0l0,-1.08c0,-0.264998 -0.26,-0.479 -0.578001,-0.479l0,0.001z" id="svg_32"/>
   <path d="m29.101,11.17l-0.73,0c-0.318001,0 -0.576,0.213 -0.576,0.478l0,1.08l1.882,0l0,-1.08c0,-0.264998 -0.257999,-0.479 -0.576,-0.479" fill="#7c87a5" id="svg_33"/>
   <path d="m30.497999,11.17l-0.73,0c-0.318001,0 -0.576,0.213 -0.576,0.478l0,1.08l1.882,0l0,-1.08c0,-0.264998 -0.258001,-0.479 -0.576,-0.479l0,0.001z" id="svg_34"/>
   <path d="m17.924999,11.17l-0.73,0c-0.319,0 -0.577003,0.213 -0.577003,0.478l0,1.08l1.883001,0l0,-1.08c0,-0.264998 -0.258001,-0.479 -0.576,-0.479" fill="#7c87a5" id="svg_35"/>
   <path d="m19.322001,11.17l-0.730001,0c-0.318996,0 -0.577,0.213 -0.577,0.478l0,1.08l1.883001,0l0,-1.08c0,-0.264998 -0.258001,-0.479 -0.576,-0.479l0,0.001z" id="svg_36"/>
   <path d="m20.716999,11.17l-0.73,0c-0.319,0 -0.575001,0.213 -0.575001,0.478l0,1.08l1.882998,0l0,-1.08c0,-0.264998 -0.259996,-0.479 -0.577999,-0.479" fill="#7c87a5" id="svg_37"/>
   <path d="m22.114,11.17l-0.73,0c-0.319,0 -0.575003,0.213 -0.575003,0.478l0,1.08l1.882999,0l0,-1.08c0,-0.264998 -0.26,-0.479 -0.577999,-0.479l0,0.001l0.000002,0z" id="svg_38"/>
   <path d="m15.129,11.17l-0.729,0c-0.32,0 -0.575998,0.213 -0.575998,0.478l0,1.08l1.882998,0l0,-1.08c0,-0.264998 -0.257998,-0.479 -0.578,-0.479" fill="#7c87a5" id="svg_39"/>
   <path d="m16.525999,11.17l-0.729,0c-0.32,0 -0.576,0.213 -0.576,0.478l0,1.08l1.882999,0l0,-1.08c0,-0.264998 -0.257999,-0.479 -0.577999,-0.479l0,0.001z" id="svg_40"/>
   <path d="m12.335,11.17l-0.73,0c-0.318998,0 -0.575,0.213 -0.575,0.478l0,1.08l1.882,0l0,-1.08c0,-0.264998 -0.259998,-0.479 -0.577,-0.479" fill="#7c87a5" id="svg_41"/>
   <path d="m13.732,11.17l-0.73,0c-0.319,0 -0.575,0.213 -0.575,0.478l0,1.08l1.883,0l0,-1.08c0,-0.264998 -0.26,-0.479 -0.578,-0.479l0,0.001z" id="svg_42"/>
   <path d="m31.893,11.17l-0.73,0c-0.318001,0 -0.573999,0.213 -0.573999,0.478l0,1.08l1.882,0l0,-1.08c0,-0.264998 -0.260002,-0.479 -0.578001,-0.479" fill="#7c87a5" id="svg_43"/>
   <path d="m33.290001,11.17l-0.73,0c-0.318001,0 -0.574001,0.213 -0.574001,0.478l0,1.08l1.882,0l0,-1.08c0,-0.264998 -0.259998,-0.479 -0.577999,-0.479l0,0.001z" id="svg_44"/>
   <path d="m33.646999,28.407l-17.881998,0l0,-15.874l17.881998,0c0.52,0 0.941002,0.445 0.941002,0.992l0,13.890001c0,0.546999 -0.421001,0.991999 -0.940002,0.991999" fill="#fff" id="svg_45"/>
   <path d="m33.646999,28.407l-17.881998,0l0,-15.874l17.881998,0c0.52,0 0.941002,0.445 0.941002,0.992l0,13.890001c0,0.546999 -0.421001,0.991999 -0.940002,0.991999l-0.000999,0z" stroke-width="0.893" stroke="#7c87a5" id="svg_46"/>
   <path d="m15.765,28.407l-10.352999,0c-0.52,0 -0.941,-0.445 -0.941,-0.993l0,-10.911999c0,-2.19 1.686,-3.969 3.763999,-3.969l15.06,0l-3.765999,0c-2.078001,0 -3.764,1.778 -3.764,3.969l0,11.905001l-0.000001,-0.000002z" fill="#fff" id="svg_47"/>
   <path d="m15.765,28.407l-10.352999,0c-0.52,0 -0.941,-0.445 -0.941,-0.993l0,-10.911999c0,-2.19 1.686,-3.969 3.763999,-3.969l15.06,0l-3.765999,0c-2.078001,0 -3.764,1.778 -3.764,3.969l0,11.905001l-0.000001,-0.000002z" stroke-width="0.893" stroke="#7c87a5" id="svg_48"/>
   <path d="m12.941,12.533l-1.881,0c-1.559,0 -2.823999,1.334 -2.823999,2.977l0,1.986c0,0.546999 0.422,0.992001 0.941,0.992001l2.822999,0c0.52,0 0.941,-0.445002 0.941,-0.992001l0,-1.986c0,-1.643002 1.265,-2.977 2.824,-2.977l0.94,0l-3.764,0z" fill="#4c97ff" id="svg_49"/>
   <path d="m12.941,12.533l-1.881,0c-1.559,0 -2.823999,1.334 -2.823999,2.977l0,1.986c0,0.546999 0.422,0.992001 0.941,0.992001l2.822999,0c0.52,0 0.941,-0.445002 0.941,-0.992001l0,-1.986c0,-1.643002 1.265,-2.977 2.824,-2.977l0.94,0l-3.764,0z" stroke-width="0.893" stroke="#3d79cc" id="svg_50"/>
   <path d="m4.47,20.474001l27.961,0l2.157001,2.974001" stroke-width="0.893" stroke="#7c87a5" id="svg_51"/>
   <path d="m15.765,28.407l-10.352999,0c-0.52,0 -0.941,-0.445 -0.941,-0.993l0,-10.911999c0,-2.19 1.686,-3.969 3.763999,-3.969l15.06,0l-3.765999,0c-2.078001,0 -3.764,1.778 -3.764,3.969l0,11.905001l-0.000001,-0.000002z" stroke-width="0.893" stroke="#7c87a5" id="svg_52"/>
   <path d="m21.306999,18.964001l-0.73,0c-0.319,0 -0.576,0.214001 -0.576,0.479l0,1.08l1.882,0l0,-1.08c0,-0.264999 -0.258001,-0.479 -0.576,-0.479" fill="#7c87a5" id="svg_53"/>
   <path d="m21.306999,18.964001l-0.73,0c-0.319,0 -0.576,0.214001 -0.576,0.479l0,1.08l1.882,0l0,-1.08c0,-0.264999 -0.258001,-0.479 -0.576,-0.479z" id="svg_54"/>
   <path d="m24.177999,18.964001l-0.727999,0c-0.320002,0 -0.576,0.214001 -0.576,0.479l0,1.08l1.882,0l0,-1.08c0,-0.264999 -0.258001,-0.479 -0.578001,-0.479" fill="#7c87a5" id="svg_55"/>
   <path d="m24.177999,18.964001l-0.727999,0c-0.320002,0 -0.576,0.214001 -0.576,0.479l0,1.08l1.882,0l0,-1.08c0,-0.264999 -0.258001,-0.479 -0.578001,-0.479z" id="svg_56"/>
   <path d="m27.051001,18.964001l-0.73,0c-0.318001,0 -0.576,0.214001 -0.576,0.479l0,1.08l1.882,0l0,-1.08c0,-0.264999 -0.257,-0.479 -0.576,-0.479" fill="#7c87a5" id="svg_57"/>
   <path d="m27.051001,18.964001l-0.73,0c-0.318001,0 -0.576,0.214001 -0.576,0.479l0,1.08l1.882,0l0,-1.08c0,-0.264999 -0.257,-0.479 -0.576,-0.479z" id="svg_58"/>
   <path d="m29.923,18.964001l-0.729,0c-0.32,0 -0.576,0.214001 -0.576,0.479l0,1.08l1.882999,0l0,-1.08c0,-0.264999 -0.257999,-0.479 -0.577999,-0.479" fill="#7c87a5" id="svg_59"/>
   <path d="m29.923,18.964001l-0.729,0c-0.32,0 -0.576,0.214001 -0.576,0.479l0,1.08l1.882999,0l0,-1.08c0,-0.264999 -0.257999,-0.479 -0.577999,-0.479z" id="svg_60"/>
   <path d="m33.646999,28.407l-17.881998,0l0,-7.937l16.664999,0l2.157001,2.977999l0,3.966003c0,0.548 -0.421001,0.993 -0.940002,0.993" fill="#e6e7e8" id="svg_61"/>
   <path d="m33.646999,28.407l-17.881998,0l0,-7.937l16.664999,0l2.157001,2.977999l0,3.966003c0,0.548 -0.421001,0.993 -0.940002,0.993l0,-0.000002z" stroke-width="0.893" stroke="#7c87a5" id="svg_62"/>
   <path d="m15.765,28.407l-10.352999,0c-0.52,0 -0.941,-0.445 -0.941,-0.993l0,-6.944l11.293999,0l0,7.937z" fill="#e6e7e8" id="svg_63"/>
   <path d="m15.765,28.407l-10.352999,0c-0.52,0 -0.941,-0.445 -0.941,-0.993l0,-6.944l11.293999,0l0,7.937z" stroke-width="0.893" stroke="#7c87a5" id="svg_64"/>
   <path d="m19.530001,24.438l11.293999,0l0,-3.968l-11.295,0l0.001001,3.968z" fill="#e6e7e8" id="svg_65"/>
   <path d="m19.530001,24.438l11.293999,0l0,-3.968l-11.295,0l0.001001,3.968zm12.900999,-7.932001l2.157001,-2.794" stroke-width="0.893" stroke="#7c87a5" id="svg_66"/>
  </g>
  <g transform="scale(0.65)" id="ev3">
   <rect rx="1" height="25.81" width="28" y="3.59" x="0.5" stroke="#7c87a5" fill="#fff" id="svg_67"/>
   <rect rx="1" height="32" width="24" y="0.5" x="2.5" stroke="#7c87a5" fill="#e6e7e8" id="svg_68"/>
   <path d="m2.5,14.5l24,0l0,13l-24,0l0,-13z" stroke="#7c87a5" fill="#fff" id="svg_69"/>
   <path d="m14.5,10.5l0,4" stroke="#7c87a5" fill="#e6e7e8" id="svg_70"/>
   <rect rx="1" height="10" width="20" y="2.5" x="4.5" fill="#414757" id="svg_71"/>
   <rect rx="0.5" height="2" width="2" y="20.13" x="13.5" fill="#7c87a5" opacity="0.5" id="svg_72"/>
   <path d="m9.06,20.129999l1.5,0a0.5,0.5 0 0 1 0.5,0.5l0,1a0.5,0.5 0 0 1 -0.5,0.5l-1.5,0a1,1 0 0 1 0,-2zm10.87,2l-1.51,0a0.5,0.5 0 0 1 -0.5,-0.5l0,-1a0.5,0.5 0 0 1 0.5,-0.5l1.5,0a1,1 0 0 1 0.01,2zm-11.700001,-4.629999l-3.23,0a0.5,0.5 0 0 1 -0.5,-0.5l0,-2.5l6,0l-1.850001,2.780001a0.51,0.51 0 0 1 -0.419999,0.219999zm9.92,1.35l-0.5,0.5a0.49,0.49 0 0 0 -0.15,0.359999l0,0.290001a0.5,0.5 0 0 1 -0.5,0.5l-0.5,0a0.5,0.5 0 0 1 -0.5,-0.5a0.5,0.5 0 0 0 -0.5,-0.5l-2,0a0.5,0.5 0 0 0 -0.5,0.5a0.5,0.5 0 0 1 -0.5,0.5l-0.5,0a0.5,0.5 0 0 1 -0.5,-0.5l0,-0.290001a0.49,0.49 0 0 0 -0.15,-0.359999l-0.5,-0.5a0.51,0.51 0 0 1 0,-0.710001l1.509998,-1.49a0.47,0.47 0 0 1 0.35,-0.150002l3.580002,0a0.47,0.47 0 0 1 0.349997,0.150002l1.51,1.49a0.51,0.51 0 0 1 0,0.710001l0.000002,0zm-7.299999,4.6l0.5,-0.5a0.49,0.49 0 0 0 0.15,-0.360003l0,-0.289999a0.5,0.5 0 0 1 0.5,-0.5l0.5,0a0.5,0.5 0 0 1 0.5,0.5a0.5,0.5 0 0 0 0.5,0.5l2,0a0.5,0.5 0 0 0 0.5,-0.5a0.5,0.5 0 0 1 0.5,-0.5l0.5,0a0.5,0.5 0 0 1 0.5,0.5l0,0.289999a0.49,0.49 0 0 0 0.15,0.360003l0.5,0.5a0.5,0.5 0 0 1 0,0.700001l-1.51,1.5a0.47,0.47 0 0 1 -0.349997,0.15l-3.580002,0a0.47,0.47 0 0 1 -0.35,-0.15l-1.509997,-1.5a0.5,0.5 0 0 1 0,-0.700001l-0.000001,0l-0.000002,0z" fill="#7c87a5" opacity="0.5" id="svg_73"/>
   <path d="m21.5,27.5l5,0l0,4a1,1 0 0 1 -1,1l-4,0l0,-5z" stroke="#cc4c23" fill="#f15a29" id="svg_74"/>
  </g>
  <g transform="scale(0.65)" fill="none" id="makeymakey">
   <path d="m35,28l-30,0a1,1 0 0 1 -1,-1l0,-15c0,-0.6 0.4,-1 1,-1l30,0c0.5,0 1,0.4 1,1l0,15c0,0.5 -0.5,1 -1,1z" fill="#fff" id="svg_75"/>
   <path d="m4,25l32,0l0,2.700001l-32,0l0,-2.700001zm9,1.700001l-2.2,0a1,1 0 0 1 -1,-1l0,-9.700001c0,-0.6 0.4,-1 1,-1l2.2,0c0.6,0 1,0.4 1,1l0,7c0,0.6 -0.5,1 -1,1l0,2.700001z" fill="red" id="svg_76"/>
   <path d="m6.1,19.299999l0,-2.200001c0,-0.5 0.4,-1 1,-1l9.699999,0c0.5,0 1,0.5 1,1l0,2.200001c0,0.5 -0.5,1 -1,1l-9.699999,0a1,1 0 0 1 -1,-1z" fill="red" id="svg_77"/>
   <circle r="3.4" cy="18.2" cx="22.8" fill="red" id="svg_78"/>
   <circle r="3.4" cy="18.2" cx="30.6" fill="red" id="svg_79"/>
   <path d="m4.2,27l31.899999,0l0,0.700001l-31.899999,0l0,-0.700001z" fill="red" id="svg_80"/>
   <circle r="2.3" cy="18.2" cx="22.8" fill="#e0e0e0" id="svg_81"/>
   <circle r="2.3" cy="18.2" cx="30.6" fill="#e0e0e0" id="svg_82"/>
   <path d="m12.5,22.9l-1.2,0c-0.3,0 -0.5,-0.199999 -0.5,-0.5l0,-8.4c0,-0.3 0.2,-0.5 0.5,-0.5l1.2,0c0.3,0 0.5,0.2 0.5,0.5l0,8.4c0,0.300001 -0.2,0.5 -0.5,0.5z" fill="#e0e0e0" id="svg_83"/>
   <path d="m7.2,18.700001l0,-1.199999c0,-0.300001 0.2,-0.5 0.5,-0.5l8.399999,0c0.300001,0 0.5,0.199999 0.5,0.5l0,1.199999c0,0.300001 -0.199999,0.5 -0.5,0.5l-8.399999,0c-0.3,0 -0.5,-0.199999 -0.5,-0.5zm-3.2,7.299999l32,0l0,2l-32,0l0,-2z" fill="#e0e0e0" id="svg_84"/>
   <path d="m35.200001,27.9l-30.400002,0a1,1 0 0 1 -1,-1l0,-14.799999c0,-0.6 0.5,-1 1,-1l30.499996,0c0.5,0 1,0.4 1,1l0,14.9a1,1 0 0 1 -1.099995,0.9z" stroke-width="0.5" stroke="#666" id="svg_85"/>
   <path d="m35.200001,27.9l-30.400002,0a1,1 0 0 1 -1,-1l0,-14.799999c0,-0.6 0.5,-1 1,-1l30.499996,0c0.5,0 1,0.4 1,1l0,14.9a1,1 0 0 1 -1.099995,0.9z" stroke-width="0.5" stroke="#666" id="svg_86"/>
  </g>
  <style>
   <![CDATA[ .sb-label {      font-family: "Helvetica Neue", Helvetica, sans-serif;      font-weight: normal;      fill: #fff;      font-size: 11px;      word-spacing: 0px;      opacity: 1;    }    .sb-obsolete { fill: #ED4242; }    .sb-motion { fill: #4C97FF; }    .sb-looks { fill: #9966FF; }    .sb-sound { fill: #CF63CF; }    .sb-pen { fill: #0fBD8C;  }    .sb-events { fill: #FFBF00; }    .sb-control { fill: #FFAB19; }    .sb-sensing { fill: #5CB1D6; }    .sb-operators { fill: #59C059; }    .sb-variables { fill: #FF8C1A; }    .sb-list { fill: #FF661A }    .sb-custom { fill: #FF6680; }    .sb-custom-arg { fill: #FF6680; }    .sb-oldextension { fill: #4b4a60; }    .sb-extension { fill: #0fbd8c; }    .sb-grey { fill: #969696; }    .sb-bevel {      filter2: url(#bevelFilter);      stroke: #000;      stroke-opacity: 0.15;      stroke-alignment: inner;    }    .sb-input-round-dropdown,    .sb-input-boolean {      filter: url(#inputDarkFilter);    }    .sb-input {      filter2: url(#inputBevelFilter);      stroke: #000;      stroke-opacity: 0.15;      stroke-alignment: inner;    }    .sb-input-number,    .sb-input-string,    .sb-input-number-dropdown {      fill: #fff;    }    .sb-literal-number,    .sb-literal-string,    .sb-literal-number-dropdown,    .sb-literal-dropdown {      font-weight: normal;      font-size: 11px;      word-spacing: 0;    }    .sb-literal-number,    .sb-literal-string,    .sb-literal-number-dropdown {      fill: #444;    }    .sb-darker {      filter2: url(#inputDarkFilter);      stroke: #000;      stroke-opacity: 0.1;      stroke-alignment: inner;    }    .sb-desaturate {      filter: url(#desaturateFilter);    }    .sb-outline {      stroke: #000;      stroke-opacity: 0.1;      stroke-width: 1;      fill: #FF4D6A;    }    .sb-define-hat-cap {      stroke: #632d99;      stroke-width: 1;      fill: #8e2ec2;    }    .sb-comment {      fill: #E4DB8C;      stroke: #000;      stroke-opacity: 0.2;      stroke-width: 1;    }    .sb-comment-line {      fill: #000;      opacity: 0.2;    }    .sb-comment-label {      font-family: "Helvetica Neue", Helvetica, sans-serif;      font-weight: normal;      fill: #000;      font-size: 11px;      word-spacing: 0px;      opacity: 1;    }    .sb-diff {      fill: none;      stroke: #000;    }    .sb-diff-ins {      stroke-width: 2px;    }    .sb-diff-del {      stroke-width: 3px;    }  ]]>
  </style>
 </defs>
 <g class="layer">
  <title>Layer 1</title>
  <g id="svg_87">
   <g transform="translate(0)" id="svg_88">
    <g transform="translate(2)" id="svg_89">
     <g transform="translate(0 12)" id="svg_90">
      <path d="m-1.538462,-35.615387l0,-39q1,-14 15,-15l100.000002,0q14,1 14.999992,15l0,38q0,4 -3.999992,4l-91.000004,0c-2,0 -3,1 -4,2l-1.5,1.5c-1,1 -2,2 -4,2l-7.999999,0c-2,0 -3,-1 -4,-2l-1.5,-1.5c-1,-1 -2,-2 -4,-2l-4,0a4,4 0 0 1 -4,-4" id="svg_91" class="sb-custom sb-bevel"/>
     </g>
     <text y="-74.6153" x="-1.5384" transform="translate(8 33)" id="svg_92" class="sb-label ">define</text>
     <g transform="translate(48 24)" id="svg_93">
      <path d="m-1.53846,-80.615387q0,-4 4,-4l4,0c2,0 3,1 4,2l1.5,1.5c1,1 2,2 4,2l8,0c2,0 3,-1 4,-2l1.5,-1.5c1,-1 2,-2 4,-2l35,0q4,0 4,4l0,0l0,21q0,4 -4,4l-35,0c-2,0 -3,1 -4,2l-1.5,1.5c-1,1 -2,2 -4,2l-8,0c-2,0 -3,-1 -4,-2l-1.5,-1.5c-1,-1 -2,-2 -4,-2l-4,0a4,4 0 0 1 -4,-4l0,-21z" id="svg_94" class="sb-outline"/>
      <text y="-74.6153" x="-1.5384" transform="translate(6 9)" id="svg_95" class="sb-label ">BubbleSort</text>
     </g>
    </g>
   </g>
   <g transform="translate(0 82)" id="svg_96">
    <g transform="translate(2)" id="svg_97">
     <g transform="translate(0 12)" id="svg_98">
      <path d="m-1.538462,-35.615387l0,-39q1,-14 15,-15l100.000002,0q14,1 14.999992,15l0,38q0,4 -3.999992,4l-91.000004,0c-2,0 -3,1 -4,2l-1.5,1.5c-1,1 -2,2 -4,2l-7.999999,0c-2,0 -3,-1 -4,-2l-1.5,-1.5c-1,-1 -2,-2 -4,-2l-4,0a4,4 0 0 1 -4,-4" id="svg_99" class="sb-custom sb-bevel"/>
     </g>
     <text y="-74.6153" x="-1.5384" transform="translate(8 33)" id="svg_100" class="sb-label ">define</text>
     <g transform="translate(48 24)" id="svg_101">
      <path d="m-1.53846,-80.615387q0,-4 4,-4l4,0c2,0 3,1 4,2l1.5,1.5c1,1 2,2 4,2l8,0c2,0 3,-1 4,-2l1.5,-1.5c1,-1 2,-2 4,-2l35,0q4,0 4,4l0,0l0,21q0,4 -4,4l-35,0c-2,0 -3,1 -4,2l-1.5,1.5c-1,1 -2,2 -4,2l-8,0c-2,0 -3,-1 -4,-2l-1.5,-1.5c-1,-1 -2,-2 -4,-2l-4,0a4,4 0 0 1 -4,-4l0,-21z" id="svg_102" class="sb-outline"/>
      <text y="-74.6153" x="-1.5384" transform="translate(6 9)" id="svg_103" class="sb-label ">BubbleSort</text>
     </g>
    </g>
    <g transform="translate(2 64)" id="svg_104">
     <path d="m-1.538462,-80.615387q0,-4 4,-4l4,0c2,0 3,1 4,2l1.5,1.5c1,1 2,2 4,2l8,0c2,0 3,-1 4,-2l1.5,-1.5c1,-1 2,-2 4.000002,-2l89,0q4,0 4,4l0,0l0,25q0,4 -4,4l-89,0c-2.000002,0 -3.000002,1 -4.000002,2l-1.5,1.5c-1,1 -2,2 -4,2l-8,0c-2,0 -3,-1 -4,-2l-1.5,-1.5c-1,-1 -2,-2 -4,-2l-4,0a4,4 0 0 1 -4,-4l0,-25z" id="svg_105" class="sb-variables sb-bevel"/>
     <line y2="-64.6154" x2="-1.53846" y1="-84.6154" x1="-1.53846" transform="translate(6 7)" id="svg_106"/>
     <text y="-74.6153" x="-1.5384" transform="translate(7 11)" id="svg_107" class="sb-label ">set</text>
     <g transform="translate(32 7)" id="svg_108">
      <g id="svg_109" class="sb-input sb-input-dropdown">
       <rect ry="4" rx="4" height="20" width="42" y="-84.6154" x="-1.53846" id="svg_110" class="sb-variables sb-darker"/>
      </g>
      <text y="-74.6153" x="-1.5384" transform="translate(6 4)" id="svg_111" class="sb-label sb-literal-dropdown">it1</text>
      <use xmlns:a0="http://www.w3.org/1999/xlink" a0:href="#whiteDropdownArrow" y="-84.6154" x="-1.53846" transform="translate(26 8)" id="svg_112"/>
     </g>
     <text y="-74.6153" x="-1.5384" transform="translate(79 11)" id="svg_113" class="sb-label ">to</text>
     <g transform="translate(95 7)" id="svg_114">
      <rect ry="10" rx="10" height="20" width="27" y="-84.6154" x="-1.53846" id="svg_115" class="sb-input sb-input-number"/>
      <text y="-74.6153" x="-1.5384" transform="translate(10 4)" id="svg_116" class="sb-label sb-literal-number">1</text>
     </g>
    </g>
    <g transform="translate(2 97)" id="svg_117">
     <path d="m-1.538462,-80.615387q0,-4 4,-4l4,0c2,0 3,1 4,2l1.5,1.5c1,1 2,2 4,2l8,0c2,0 3,-1 4,-2l1.5,-1.5c1,-1 2,-2 4.000002,-2l89,0q4,0 4,4l0,0l0,25q0,4 -4,4l-89,0c-2.000002,0 -3.000002,1 -4.000002,2l-1.5,1.5c-1,1 -2,2 -4,2l-8,0c-2,0 -3,-1 -4,-2l-1.5,-1.5c-1,-1 -2,-2 -4,-2l-4,0a4,4 0 0 1 -4,-4l0,-25z" id="svg_118" class="sb-variables sb-bevel"/>
     <line y2="-64.6154" x2="-1.53846" y1="-84.6154" x1="-1.53846" transform="translate(6 7)" id="svg_119"/>
     <text y="-74.6153" x="-1.5384" transform="translate(7 11)" id="svg_120" class="sb-label ">set</text>
     <g transform="translate(32 7)" id="svg_121">
      <g id="svg_122" class="sb-input sb-input-dropdown">
       <rect ry="4" rx="4" height="20" width="42" y="-84.6154" x="-1.53846" id="svg_123" class="sb-variables sb-darker"/>
      </g>
      <text y="-74.6153" x="-1.5384" transform="translate(6 4)" id="svg_124" class="sb-label sb-literal-dropdown">it2</text>
      <use xmlns:a1="http://www.w3.org/1999/xlink" a1:href="#whiteDropdownArrow" y="-84.6154" x="-1.53846" transform="translate(26 8)" id="svg_125"/>
     </g>
     <text y="-74.6153" x="-1.5384" transform="translate(79 11)" id="svg_126" class="sb-label ">to</text>
     <g transform="translate(95 7)" id="svg_127">
      <rect ry="10" rx="10" height="20" width="27" y="-84.6154" x="-1.53846" id="svg_128" class="sb-input sb-input-number"/>
      <text y="-74.6153" x="-1.5384" transform="translate(10 4)" id="svg_129" class="sb-label sb-literal-number">1</text>
     </g>
    </g>
    <g transform="translate(2 130)" id="svg_130">
     <path d="m-1.538462,-80.615387q0,-4 4,-4l4,0c2,0 3,1 4,2l1.5,1.5c1,1 2,2 4,2l8,0c2,0 3,-1 4,-2l1.5,-1.5c1,-1 2,-2 4.000002,-2l132.999992,0q4,0 4,4l0,0l0,33q0,4 -4,4l-123,0c-2,0 -3,1 -4,2l-1.5,1.5c-1,1 -2,2 -4,2l-8.000002,0c-2,0 -3,-1 -4,-2l-1.5,-1.5c-1,-1 -2,-2 -4,-2l-4.000001,0a4,4 0 0 0 -4,4l0,386a-4,-4 0 0 0 4,4l154.000003,0a4,4 0 0 1 4,4l0,13q0,4 -4,4l-132.999985,0c-2.000004,0 -3.000004,1 -4.000004,2l-1.5,1.5c-1,1 -2,2 -4,2l-8,0c-2,0 -3,-1 -4,-2l-1.5,-1.5c-1,-1 -2,-2 -4,-2l-4,0a4,4 0 0 1 -4,-4l0,-448l-0.000006,0z" id="svg_131" class="sb-control sb-bevel"/>
     <line y2="-64.6154" x2="-1.53846" y1="-84.6154" x1="-1.53846" transform="translate(6 11)" id="svg_132"/>
     <text y="-74.6153" x="-1.5384" transform="translate(7 15)" id="svg_133" class="sb-label ">repeat</text>
     <g transform="translate(49 7)" id="svg_134">
      <rect ry="14" rx="14" height="28" width="117" y="-84.6154" x="-1.53846" id="svg_135" class="sb-list sb-bevel"/>
      <text y="-74.6153" x="-1.5384" transform="translate(7 8)" id="svg_136" class="sb-label ">length</text>
      <text y="-74.6153" x="-1.5384" transform="translate(47 8)" id="svg_137" class="sb-label ">of</text>
      <g transform="translate(63 4)" id="svg_138">
       <g id="svg_139" class="sb-input sb-input-dropdown">
        <rect ry="4" rx="4" height="20" width="46" y="-84.6154" x="-1.53846" id="svg_140" class="sb-list sb-darker"/>
       </g>
       <text y="-74.6153" x="-1.5384" transform="translate(6 4)" id="svg_141" class="sb-label sb-literal-dropdown">List</text>
       <use xmlns:a2="http://www.w3.org/1999/xlink" a2:href="#whiteDropdownArrow" y="-84.6154" x="-1.53846" transform="translate(30 8)" id="svg_142"/>
      </g>
     </g>
     <use xmlns:a3="http://www.w3.org/1999/xlink" a3:href="#loopArrow" y="-84.6154" x="-1.53847" transform="translate(162 453)" id="svg_143"/>
     <g transform="translate(10 41)" id="svg_144">
      <g transform="translate(0)" id="svg_145">
       <path d="m-1.538462,-80.615387q0,-4 4,-4l4,0c2,0 3,1 4,2l1.5,1.5c1,1 2,2 4,2l8,0c2,0 3,-1 4,-2l1.5,-1.5c1,-1 2,-2 4.000002,-2l179.999992,0q4,0 4,4l0,0l0,41q0,4 -4,4l-169.999992,0c-2,0 -3,1 -4,2l-1.5,1.5c-1,1 -2,2 -4,2l-8.000002,0c-2,0 -3,-1 -4,-2l-1.5,-1.5c-1,-1 -2,-2 -4,-2l-4,0a4,4 0 0 0 -4,4l0,250a-4,-4 0 0 0 4,4l200.999994,0a4,4 0 0 1 4,4l0,13q0,4 -4,4l-179.999981,0c-2,0 -3,1 -4,2l-1.5,1.5c-1,1 -2,2 -4,2l-8.000001,0c-2,0 -3,-1 -4,-2l-1.5,-1.5c-1,-1 -2,-2 -4,-2l-4,0a4,4 0 0 1 -4,-4l0,-320l-0.000013,0z" id="svg_146" class="sb-control sb-bevel"/>
       <line y2="-64.6154" x2="-1.53846" y1="-84.6154" x1="-1.53846" transform="translate(6 15)" id="svg_147"/>
       <text y="-74.6153" x="-1.5384" transform="translate(7 19)" id="svg_148" class="sb-label ">repeat</text>
       <g transform="translate(49 7)" id="svg_149">
        <rect ry="18" rx="18" height="36" width="164" y="-84.6154" x="-1.53846" id="svg_150" class="sb-operators sb-bevel"/>
        <g transform="translate(3 4)" id="svg_151">
         <rect ry="14" rx="14" height="28" width="117" y="-84.6154" x="-1.53846" id="svg_152" class="sb-list sb-bevel"/>
         <text y="-74.6153" x="-1.5384" transform="translate(7 8)" id="svg_153" class="sb-label ">length</text>
         <text y="-74.6153" x="-1.5384" transform="translate(47 8)" id="svg_154" class="sb-label ">of</text>
         <g transform="translate(63 4)" id="svg_155">
          <g id="svg_156" class="sb-input sb-input-dropdown">
           <rect ry="4" rx="4" height="20" width="46" y="-84.6154" x="-1.53846" id="svg_157" class="sb-list sb-darker"/>
          </g>
          <text y="-74.6153" x="-1.5384" transform="translate(6 4)" id="svg_158" class="sb-label sb-literal-dropdown">List</text>
          <use xmlns:a4="http://www.w3.org/1999/xlink" a4:href="#whiteDropdownArrow" y="-84.6154" x="-1.53846" transform="translate(30 8)" id="svg_159"/>
         </g>
        </g>
        <text y="-74.6153" x="-1.5384" transform="translate(125 12)" id="svg_160" class="sb-label ">-</text>
        <g transform="translate(134 8)" id="svg_161">
         <rect ry="10" rx="10" height="20" width="27" y="-84.6154" x="-1.53845" id="svg_162" class="sb-input sb-input-number"/>
         <text y="-74.6153" x="-1.5384" transform="translate(10 4)" id="svg_163" class="sb-label sb-literal-number">1</text>
        </g>
       </g>
       <use xmlns:a5="http://www.w3.org/1999/xlink" a5:href="#loopArrow" y="-84.6154" x="-1.53847" transform="translate(209 325)" id="svg_164"/>
       <g transform="translate(10 49)" id="svg_165">
        <g transform="translate(0)" id="svg_166">
         <path d="m-1.538462,-80.615387q0,-4 4,-4l4,0c2,0 3,1 4,2l1.5,1.5c1,1 2,2 4,2l8,0c2,0 3,-1 4,-2l1.5,-1.5c1,-1 2,-2 4.000002,-2l400.000008,0q4,0 4,4l0,0l0,53q0,4 -4,4l-390.000008,0c-2,0 -3,1 -4,2l-1.5,1.5c-1,1 -2,2 -4,2l-8.000002,0c-2,0 -3,-1 -4,-2l-1.5,-1.5c-1,-1 -2,-2 -4,-2l-4,0a4,4 0 0 0 -4,4l0,135a-4,-4 0 0 0 4,4l421.00001,0a4,4 0 0 1 4,4l0,13q0,4 -4,4l-400.000011,0c-2,0 -3,1 -4,2l-1.5,1.5c-1,1 -2,2 -4,2l-8,0c-2,0 -3,-1 -4,-2l-1.5,-1.5c-1,-1 -2,-2 -4,-2l-4,0a4,4 0 0 1 -4,-4l0,-217l0.000002,0z" id="svg_167" class="sb-control sb-bevel"/>
         <line y2="-64.6154" x2="-1.53846" y1="-84.6154" x1="-1.53846" transform="translate(6 21)" id="svg_168"/>
         <text y="-74.6153" x="-1.5384" transform="translate(7 25)" id="svg_169" class="sb-label ">if</text>
         <g transform="translate(32 7)" id="svg_170">
          <path d="m22.461538,-84.615387l323.00001,0l24,24l0,0l-24,24l-323.00001,0l-24,-24l0,0l24,-24z" id="svg_171" class="sb-operators sb-bevel"/>
          <g transform="translate(14 4)" id="svg_172">
           <rect ry="20" rx="20" height="40" width="189" y="-84.6154" x="-1.53846" id="svg_173" class="sb-list sb-bevel"/>
           <text y="-74.6153" x="-1.5384" transform="translate(7 14)" id="svg_174" class="sb-label ">item</text>
           <g transform="translate(36 4)" id="svg_175">
            <rect ry="16" rx="16" height="32" width="78" y="-84.6154" x="-1.53846" id="svg_176" class="sb-operators sb-bevel"/>
            <g transform="translate(3 4)" id="svg_177">
             <rect ry="12" rx="12" height="24" width="28" y="-84.6154" x="-1.53846" id="svg_178" class="sb-variables sb-bevel"/>
             <text y="-74.6153" x="-1.5384" transform="translate(7 6)" id="svg_179" class="sb-label ">it2</text>
            </g>
            <text y="-74.6153" x="-1.5384" transform="translate(36 10)" id="svg_180" class="sb-label ">+</text>
            <g transform="translate(48 6)" id="svg_181">
             <rect ry="10" rx="10" height="20" width="27" y="-84.6154" x="-1.53846" id="svg_182" class="sb-input sb-input-number"/>
             <text y="-74.6153" x="-1.5384" transform="translate(10 4)" id="svg_183" class="sb-label sb-literal-number">1</text>
            </g>
           </g>
           <text y="-74.6153" x="-1.5384" transform="translate(119 14)" id="svg_184" class="sb-label ">of</text>
           <g transform="translate(135 10)" id="svg_185">
            <g id="svg_186" class="sb-input sb-input-dropdown">
             <rect ry="4" rx="4" height="20" width="46" y="-84.6154" x="-1.53847" id="svg_187" class="sb-list sb-darker"/>
            </g>
            <text y="-74.6153" x="-1.5384" transform="translate(6 4)" id="svg_188" class="sb-label sb-literal-dropdown">List</text>
            <use xmlns:a6="http://www.w3.org/1999/xlink" a6:href="#whiteDropdownArrow" y="-84.6154" x="-1.53847" transform="translate(30 8)" id="svg_189"/>
           </g>
          </g>
          <text y="-74.6153" x="-1.5384" transform="translate(208 18)" id="svg_190" class="sb-label ">&lt;</text>
          <g transform="translate(220 8)" id="svg_191">
           <rect ry="16" rx="16" height="32" width="139" y="-84.6154" x="-1.53847" id="svg_192" class="sb-list sb-bevel"/>
           <text y="-74.6153" x="-1.5384" transform="translate(7 10)" id="svg_193" class="sb-label ">item</text>
           <g transform="translate(36 4)" id="svg_194">
            <rect ry="12" rx="12" height="24" width="28" y="-84.6154" x="-1.53847" id="svg_195" class="sb-variables sb-bevel"/>
            <text y="-74.6153" x="-1.5384" transform="translate(7 6)" id="svg_196" class="sb-label ">it2</text>
           </g>
           <text y="-74.6153" x="-1.5384" transform="translate(69 10)" id="svg_197" class="sb-label ">of</text>
           <g transform="translate(85 6)" id="svg_198">
            <g id="svg_199" class="sb-input sb-input-dropdown">
             <rect ry="4" rx="4" height="20" width="46" y="-84.6154" x="-1.53847" id="svg_200" class="sb-list sb-darker"/>
            </g>
            <text y="-74.6153" x="-1.5384" transform="translate(6 4)" id="svg_201" class="sb-label sb-literal-dropdown">List</text>
            <use xmlns:a7="http://www.w3.org/1999/xlink" a7:href="#whiteDropdownArrow" y="-84.6154" x="-1.53847" transform="translate(30 8)" id="svg_202"/>
           </g>
          </g>
         </g>
         <text y="-74.6153" x="-1.5384" transform="translate(408 25)" id="svg_203" class="sb-label ">then</text>
         <g transform="translate(10 61)" id="svg_204">
          <g transform="translate(0)" id="svg_205">
           <path d="m-1.538462,-80.615387q0,-4 4,-4l4,0c2,0 3,1 4,2l1.5,1.5c1,1 2,2 4,2l8,0c2,0 3,-1 4,-2l1.5,-1.5c1,-1 2,-2 4.000002,-2l207.999992,0q4,0 4,4l0,0l0,37q0,4 -4,4l-207.999992,0c-2.000002,0 -3.000002,1 -4.000002,2l-1.5,1.5c-1,1 -2,2 -4,2l-8,0c-2,0 -3,-1 -4,-2l-1.5,-1.5c-1,-1 -2,-2 -4,-2l-4,0a4,4 0 0 1 -4,-4l0,-37z" id="svg_206" class="sb-variables sb-bevel"/>
           <line y2="-64.6154" x2="-1.53846" y1="-84.6154" x1="-1.53846" transform="translate(6 13)" id="svg_207"/>
           <text y="-74.6153" x="-1.5384" transform="translate(7 17)" id="svg_208" class="sb-label ">set</text>
           <g transform="translate(32 13)" id="svg_209">
            <g id="svg_210" class="sb-input sb-input-dropdown">
             <rect ry="4" rx="4" height="20" width="49" y="-84.6154" x="-1.53846" id="svg_211" class="sb-variables sb-darker"/>
            </g>
            <text y="-74.6153" x="-1.5384" transform="translate(6 4)" id="svg_212" class="sb-label sb-literal-dropdown">tmp</text>
            <use xmlns:a8="http://www.w3.org/1999/xlink" a8:href="#whiteDropdownArrow" y="-84.6154" x="-1.53846" transform="translate(33 8)" id="svg_213"/>
           </g>
           <text y="-74.6153" x="-1.5384" transform="translate(86 17)" id="svg_214" class="sb-label ">to</text>
           <g transform="translate(102 7)" id="svg_215">
            <rect ry="16" rx="16" height="32" width="139" y="-84.6154" x="-1.53846" id="svg_216" class="sb-list sb-bevel"/>
            <text y="-74.6153" x="-1.5384" transform="translate(7 10)" id="svg_217" class="sb-label ">item</text>
            <g transform="translate(36 4)" id="svg_218">
             <rect ry="12" rx="12" height="24" width="28" y="-84.6154" x="-1.53846" id="svg_219" class="sb-variables sb-bevel"/>
             <text y="-74.6153" x="-1.5384" transform="translate(7 6)" id="svg_220" class="sb-label ">it2</text>
            </g>
            <text y="-74.6153" x="-1.5384" transform="translate(69 10)" id="svg_221" class="sb-label ">of</text>
            <g transform="translate(85 6)" id="svg_222">
             <g id="svg_223" class="sb-input sb-input-dropdown">
              <rect ry="4" rx="4" height="20" width="46" y="-84.6154" x="-1.53846" id="svg_224" class="sb-list sb-darker"/>
             </g>
             <text y="-74.6153" x="-1.5384" transform="translate(6 4)" id="svg_225" class="sb-label sb-literal-dropdown">List</text>
             <use xmlns:a9="http://www.w3.org/1999/xlink" a9:href="#whiteDropdownArrow" y="-84.6154" x="-1.53846" transform="translate(30 8)" id="svg_226"/>
            </g>
           </g>
          </g>
          <g transform="translate(0 45)" id="svg_227">
           <path d="m-1.538462,-80.615387q0,-4 4,-4l4,0c2,0 3,1 4,2l1.5,1.5c1,1 2,2 4,2l8,0c2,0 3,-1 4,-2l1.5,-1.5c1,-1 2,-2 4.000002,-2l367.000008,0q4,0 4,4l0,0l0,45q0,4 -4,4l-367.000008,0c-2.000002,0 -3.000002,1 -4.000002,2l-1.5,1.5c-1,1 -2,2 -4,2l-8,0c-2,0 -3,-1 -4,-2l-1.5,-1.5c-1,-1 -2,-2 -4,-2l-4,0a4,4 0 0 1 -4,-4l0,-45z" id="svg_228" class="sb-list sb-bevel"/>
           <line y2="-64.6154" x2="-1.53846" y1="-84.6154" x1="-1.53846" transform="translate(6 17)" id="svg_229"/>
           <text y="-74.6153" x="-1.5384" transform="translate(7 21)" id="svg_230" class="sb-label ">replace</text>
           <text y="-74.6153" x="-1.5384" transform="translate(54 21)" id="svg_231" class="sb-label ">item</text>
           <g transform="translate(83 15)" id="svg_232">
            <rect ry="12" rx="12" height="24" width="28" y="-84.6154" x="-1.53846" id="svg_233" class="sb-variables sb-bevel"/>
            <text y="-74.6153" x="-1.5384" transform="translate(7 6)" id="svg_234" class="sb-label ">it2</text>
           </g>
           <text y="-74.6153" x="-1.5384" transform="translate(116 21)" id="svg_235" class="sb-label ">of</text>
           <g transform="translate(132 17)" id="svg_236">
            <g id="svg_237" class="sb-input sb-input-dropdown">
             <rect ry="4" rx="4" height="20" width="46" y="-84.6154" x="-1.53847" id="svg_238" class="sb-list sb-darker"/>
            </g>
            <text y="-74.6153" x="-1.5384" transform="translate(6 4)" id="svg_239" class="sb-label sb-literal-dropdown">List</text>
            <use xmlns:a10="http://www.w3.org/1999/xlink" a10:href="#whiteDropdownArrow" y="-84.6154" x="-1.53847" transform="translate(30 8)" id="svg_240"/>
           </g>
           <text y="-74.6153" x="-1.5384" transform="translate(183 21)" id="svg_241" class="sb-label ">with</text>
           <g transform="translate(211 7)" id="svg_242">
            <rect ry="20" rx="20" height="40" width="189" y="-84.6154" x="-1.53847" id="svg_243" class="sb-list sb-bevel"/>
            <text y="-74.6153" x="-1.5384" transform="translate(7 14)" id="svg_244" class="sb-label ">item</text>
            <g transform="translate(36 4)" id="svg_245">
             <rect ry="16" rx="16" height="32" width="78" y="-84.6154" x="-1.53847" id="svg_246" class="sb-operators sb-bevel"/>
             <g transform="translate(3 4)" id="svg_247">
              <rect ry="12" rx="12" height="24" width="28" y="-84.6154" x="-1.53847" id="svg_248" class="sb-variables sb-bevel"/>
              <text y="-74.6153" x="-1.5384" transform="translate(7 6)" id="svg_249" class="sb-label ">it2</text>
             </g>
             <text y="-74.6153" x="-1.5384" transform="translate(36 10)" id="svg_250" class="sb-label ">+</text>
             <g transform="translate(48 6)" id="svg_251">
              <rect ry="10" rx="10" height="20" width="27" y="-84.6154" x="-1.53847" id="svg_252" class="sb-input sb-input-number"/>
              <text y="-74.6153" x="-1.5384" transform="translate(10 4)" id="svg_253" class="sb-label sb-literal-number">1</text>
             </g>
            </g>
            <text y="-74.6153" x="-1.5384" transform="translate(119 14)" id="svg_254" class="sb-label ">of</text>
            <g transform="translate(135 10)" id="svg_255">
             <g id="svg_256" class="sb-input sb-input-dropdown">
              <rect ry="4" rx="4" height="20" width="46" y="-84.6154" x="-1.53847" id="svg_257" class="sb-list sb-darker"/>
             </g>
             <text y="-74.6153" x="-1.5384" transform="translate(6 4)" id="svg_258" class="sb-label sb-literal-dropdown">List</text>
             <use xmlns:a11="http://www.w3.org/1999/xlink" a11:href="#whiteDropdownArrow" y="-84.6154" x="-1.53847" transform="translate(30 8)" id="svg_259"/>
            </g>
           </g>
          </g>
          <g transform="translate(0 98)" id="svg_260">
           <path d="m-1.538462,-80.615387q0,-4 4,-4l4,0c2,0 3,1 4,2l1.5,1.5c1,1 2,2 4,2l8,0c2,0 3,-1 4,-2l1.5,-1.5c1,-1 2,-2 4.000002,-2l263.000008,0q4,0 4,4l0,0l0,37q0,4 -4,4l-263.000008,0c-2.000002,0 -3.000002,1 -4.000002,2l-1.5,1.5c-1,1 -2,2 -4,2l-8,0c-2,0 -3,-1 -4,-2l-1.5,-1.5c-1,-1 -2,-2 -4,-2l-4,0a4,4 0 0 1 -4,-4l0,-37z" id="svg_261" class="sb-list sb-bevel"/>
           <line y2="-64.6154" x2="-1.53846" y1="-84.6154" x1="-1.53846" transform="translate(6 13)" id="svg_262"/>
           <text y="-74.6153" x="-1.5384" transform="translate(7 17)" id="svg_263" class="sb-label ">replace</text>
           <text y="-74.6153" x="-1.5384" transform="translate(54 17)" id="svg_264" class="sb-label ">item</text>
           <g transform="translate(83 7)" id="svg_265">
            <rect ry="16" rx="16" height="32" width="78" y="-84.6154" x="-1.53846" id="svg_266" class="sb-operators sb-bevel"/>
            <g transform="translate(3 4)" id="svg_267">
             <rect ry="12" rx="12" height="24" width="28" y="-84.6154" x="-1.53846" id="svg_268" class="sb-variables sb-bevel"/>
             <text y="-74.6153" x="-1.5384" transform="translate(7 6)" id="svg_269" class="sb-label ">it2</text>
            </g>
            <text y="-74.6153" x="-1.5384" transform="translate(36 10)" id="svg_270" class="sb-label ">+</text>
            <g transform="translate(48 6)" id="svg_271">
             <rect ry="10" rx="10" height="20" width="27" y="-84.6154" x="-1.53846" id="svg_272" class="sb-input sb-input-number"/>
             <text y="-74.6153" x="-1.5384" transform="translate(10 4)" id="svg_273" class="sb-label sb-literal-number">1</text>
            </g>
           </g>
           <text y="-74.6153" x="-1.5384" transform="translate(166 17)" id="svg_274" class="sb-label ">of</text>
           <g transform="translate(182 13)" id="svg_275">
            <g id="svg_276" class="sb-input sb-input-dropdown">
             <rect ry="4" rx="4" height="20" width="46" y="-84.6154" x="-1.53847" id="svg_277" class="sb-list sb-darker"/>
            </g>
            <text y="-74.6153" x="-1.5384" transform="translate(6 4)" id="svg_278" class="sb-label sb-literal-dropdown">List</text>
            <use xmlns:a12="http://www.w3.org/1999/xlink" a12:href="#whiteDropdownArrow" y="-84.6154" x="-1.53847" transform="translate(30 8)" id="svg_279"/>
           </g>
           <text y="-74.6153" x="-1.5384" transform="translate(233 17)" id="svg_280" class="sb-label ">with</text>
           <g transform="translate(261 11)" id="svg_281">
            <rect ry="12" rx="12" height="24" width="35" y="-84.6154" x="-1.53845" id="svg_282" class="sb-variables sb-bevel"/>
            <text y="-74.6153" x="-1.5384" transform="translate(7 6)" id="svg_283" class="sb-label ">tmp</text>
           </g>
          </g>
         </g>
        </g>
        <g transform="translate(0 225)" id="svg_284">
         <path d="m-1.538462,-80.615387q0,-4 4,-4l4,0c2,0 3,1 4,2l1.5,1.5c1,1 2,2 4,2l8,0c2,0 3,-1 4,-2l1.5,-1.5c1,-1 2,-2 4.000002,-2l111.999992,0q4,0 4,4l0,0l0,25q0,4 -4,4l-111.999992,0c-2.000002,0 -3.000002,1 -4.000002,2l-1.5,1.5c-1,1 -2,2 -4,2l-8,0c-2,0 -3,-1 -4,-2l-1.5,-1.5c-1,-1 -2,-2 -4,-2l-4,0a4,4 0 0 1 -4,-4l0,-25z" id="svg_285" class="sb-variables sb-bevel"/>
         <line y2="-64.6154" x2="-1.53846" y1="-84.6154" x1="-1.53846" transform="translate(6 7)" id="svg_286"/>
         <text y="-74.6153" x="-1.5384" transform="translate(7 11)" id="svg_287" class="sb-label ">change</text>
         <g transform="translate(53 7)" id="svg_288">
          <g id="svg_289" class="sb-input sb-input-dropdown">
           <rect ry="4" rx="4" height="20" width="42" y="-84.6154" x="-1.53846" id="svg_290" class="sb-variables sb-darker"/>
          </g>
          <text y="-74.6153" x="-1.5384" transform="translate(6 4)" id="svg_291" class="sb-label sb-literal-dropdown">it2</text>
          <use xmlns:a13="http://www.w3.org/1999/xlink" a13:href="#whiteDropdownArrow" y="-84.6154" x="-1.53846" transform="translate(26 8)" id="svg_292"/>
         </g>
         <text y="-74.6153" x="-1.5384" transform="translate(100 11)" id="svg_293" class="sb-label ">by</text>
         <g transform="translate(118 7)" id="svg_294">
          <rect ry="10" rx="10" height="20" width="27" y="-84.6154" x="-1.53846" id="svg_295" class="sb-input sb-input-number"/>
          <text y="-74.6153" x="-1.5384" transform="translate(10 4)" id="svg_296" class="sb-label sb-literal-number">1</text>
         </g>
        </g>
       </g>
      </g>
      <g transform="translate(0 328)" id="svg_297">
       <path d="m-1.538462,-80.615387q0,-4 4,-4l4,0c2,0 3,1 4,2l1.5,1.5c1,1 2,2 4,2l8,0c2,0 3,-1 4,-2l1.5,-1.5c1,-1 2,-2 4.000002,-2l89,0q4,0 4,4l0,0l0,25q0,4 -4,4l-89,0c-2.000002,0 -3.000002,1 -4.000002,2l-1.5,1.5c-1,1 -2,2 -4,2l-8,0c-2,0 -3,-1 -4,-2l-1.5,-1.5c-1,-1 -2,-2 -4,-2l-4,0a4,4 0 0 1 -4,-4l0,-25z" id="svg_298" class="sb-variables sb-bevel"/>
       <line y2="-64.6154" x2="-1.53846" y1="-84.6154" x1="-1.53846" transform="translate(6 7)" id="svg_299"/>
       <text y="-74.6153" x="-1.5384" transform="translate(7 11)" id="svg_300" class="sb-label ">set</text>
       <g transform="translate(32 7)" id="svg_301">
        <g id="svg_302" class="sb-input sb-input-dropdown">
         <rect ry="4" rx="4" height="20" width="42" y="-84.6154" x="-1.53846" id="svg_303" class="sb-variables sb-darker"/>
        </g>
        <text y="-74.6153" x="-1.5384" transform="translate(6 4)" id="svg_304" class="sb-label sb-literal-dropdown">it2</text>
        <use xmlns:a14="http://www.w3.org/1999/xlink" a14:href="#whiteDropdownArrow" y="-84.6154" x="-1.53846" transform="translate(26 8)" id="svg_305"/>
       </g>
       <text y="-74.6153" x="-1.5384" transform="translate(79 11)" id="svg_306" class="sb-label ">to</text>
       <g transform="translate(95 7)" id="svg_307">
        <rect ry="10" rx="10" height="20" width="27" y="-84.6154" x="-1.53846" id="svg_308" class="sb-input sb-input-number"/>
        <text y="-74.6153" x="-1.5384" transform="translate(10 4)" id="svg_309" class="sb-label sb-literal-number">1</text>
       </g>
      </g>
      <g transform="translate(0 361)" id="svg_310">
       <path d="m-1.538462,-80.615387q0,-4 4,-4l4,0c2,0 3,1 4,2l1.5,1.5c1,1 2,2 4,2l8,0c2,0 3,-1 4,-2l1.5,-1.5c1,-1 2,-2 4.000002,-2l111.999992,0q4,0 4,4l0,0l0,25q0,4 -4,4l-111.999992,0c-2.000002,0 -3.000002,1 -4.000002,2l-1.5,1.5c-1,1 -2,2 -4,2l-8,0c-2,0 -3,-1 -4,-2l-1.5,-1.5c-1,-1 -2,-2 -4,-2l-4,0a4,4 0 0 1 -4,-4l0,-25z" id="svg_311" class="sb-variables sb-bevel"/>
       <line y2="-64.6154" x2="-1.53846" y1="-84.6154" x1="-1.53846" transform="translate(6 7)" id="svg_312"/>
       <text y="-74.6153" x="-1.5384" transform="translate(7 11)" id="svg_313" class="sb-label ">change</text>
       <g transform="translate(53 7)" id="svg_314">
        <g id="svg_315" class="sb-input sb-input-dropdown">
         <rect ry="4" rx="4" height="20" width="42" y="-84.6154" x="-1.53846" id="svg_316" class="sb-variables sb-darker"/>
        </g>
        <text y="-74.6153" x="-1.5384" transform="translate(6 4)" id="svg_317" class="sb-label sb-literal-dropdown">it1</text>
        <use xmlns:a15="http://www.w3.org/1999/xlink" a15:href="#whiteDropdownArrow" y="-84.6154" x="-1.53846" transform="translate(26 8)" id="svg_318"/>
       </g>
       <text y="-74.6153" x="-1.5384" transform="translate(100 11)" id="svg_319" class="sb-label ">by</text>
       <g transform="translate(118 7)" id="svg_320">
        <rect ry="10" rx="10" height="20" width="27" y="-84.6154" x="-1.53846" id="svg_321" class="sb-input sb-input-number"/>
        <text y="-74.6153" x="-1.5384" transform="translate(10 4)" id="svg_322" class="sb-label sb-literal-number">1</text>
       </g>
      </g>
     </g>
    </g>
   </g>
  </g>
 </g>
</svg>