<svg xmlns="http://www.w3.org/2000/svg" version="1.1" width="209" height="223"><defs><filter id="bevelFilter" x0="-50%" y0="-50%" width="200%" height="200%"><feGaussianBlur result="blur-1" in="SourceAlpha" stdDeviation="1 1"/><feFlood result="flood-2" in="undefined" flood-color="#fff" flood-opacity="0.15"/><feOffset result="offset-3" in="blur-1" dx="1" dy="1"/><feComposite result="comp-4" operator="arithmetic" in="SourceAlpha" in2="offset-3" k2="1" k3="-1"/><feComposite result="comp-5" operator="in" in="flood-2" in2="comp-4"/><feFlood result="flood-6" in="undefined" flood-color="#000" flood-opacity="0.7"/><feOffset result="offset-7" in="blur-1" dx="-1" dy="-1"/><feComposite result="comp-8" operator="arithmetic" in="SourceAlpha" in2="offset-7" k2="1" k3="-1"/><feComposite result="comp-9" operator="in" in="flood-6" in2="comp-8"/><feMerge result="merge-10"><feMergeNode in="SourceGraphic"/><feMergeNode in="comp-5"/><feMergeNode in="comp-9"/></feMerge></filter><filter id="inputBevelFilter" x0="-50%" y0="-50%" width="200%" height="200%"><feGaussianBlur result="blur-1" in="SourceAlpha" stdDeviation="1 1"/><feFlood result="flood-2" in="undefined" flood-color="#fff" flood-opacity="0.15"/><feOffset result="offset-3" in="blur-1" dx="-1" dy="-1"/><feComposite result="comp-4" operator="arithmetic" in="SourceAlpha" in2="offset-3" k2="1" k3="-1"/><feComposite result="comp-5" operator="in" in="flood-2" in2="comp-4"/><feFlood result="flood-6" in="undefined" flood-color="#000" flood-opacity="0.7"/><feOffset result="offset-7" in="blur-1" dx="1" dy="1"/><feComposite result="comp-8" operator="arithmetic" in="SourceAlpha" in2="offset-7" k2="1" k3="-1"/><feComposite result="comp-9" operator="in" in="flood-6" in2="comp-8"/><feMerge result="merge-10"><feMergeNode in="SourceGraphic"/><feMergeNode in="comp-5"/><feMergeNode in="comp-9"/></feMerge></filter><filter id="inputDarkFilter" x0="-50%" y0="-50%" width="200%" height="200%"><feFlood result="flood-1" in="undefined" flood-color="#000" flood-opacity="0.2"/><feComposite result="comp-2" operator="in" in="flood-1" in2="SourceAlpha"/><feMerge result="merge-3"><feMergeNode in="SourceGraphic"/><feMergeNode in="comp-2"/></feMerge></filter><path d="M1.504 21L0 19.493 4.567 0h1.948l-.5 2.418s1.002-.502 3.006 0c2.006.503 3.008 2.01 6.517 2.01 3.508 0 4.463-.545 4.463-.545l-.823 9.892s-2.137 1.005-5.144.696c-3.007-.307-3.007-2.007-6.014-2.51-3.008-.502-4.512.503-4.512.503L1.504 21z" fill="#3f8d15" id="greenFlag"/><path d="M6.724 0C3.01 0 0 2.91 0 6.5c0 2.316 1.253 4.35 3.14 5.5H5.17v-1.256C3.364 10.126 2.07 8.46 2.07 6.5 2.07 4.015 4.152 2 6.723 2c1.14 0 2.184.396 2.993 1.053L8.31 4.13c-.45.344-.398.826.11 1.08L15 8.5 13.858.992c-.083-.547-.514-.714-.963-.37l-1.532 1.172A6.825 6.825 0 0 0 6.723 0z" fill="#fff" id="turnRight"/><path d="M3.637 1.794A6.825 6.825 0 0 1 8.277 0C11.99 0 15 2.91 15 6.5c0 2.316-1.253 4.35-3.14 5.5H9.83v-1.256c1.808-.618 3.103-2.285 3.103-4.244 0-2.485-2.083-4.5-4.654-4.5-1.14 0-2.184.396-2.993 1.053L6.69 4.13c.45.344.398.826-.11 1.08L0 8.5 1.142.992c.083-.547.514-.714.963-.37l1.532 1.172z" fill="#fff" id="turnLeft"/><path d="M0 0L4 4L0 8Z" fill="#111" id="addInput"/><path d="M4 0L4 8L0 4Z" fill="#111" id="delInput"/><g id="loopArrow"><path d="M8 0l2 -2l0 -3l3 0l-4 -5l-4 5l3 0l0 3l-8 0l0 2" fill="#000" opacity="0.3"/><path d="M8 0l2 -2l0 -3l3 0l-4 -5l-4 5l3 0l0 3l-8 0l0 2" fill="#fff" opacity="0.9" transform="translate(-1 -1)"/></g><style><![CDATA[.sb-label{font-family:Lucida Grande,Verdana,Arial,DejaVu Sans,sans-serif;font-weight:700;fill:#fff;font-size:10px;word-spacing:+1px}.sb-obsolete{fill:#d42828}.sb-motion{fill:#4a6cd4}.sb-looks{fill:#8a55d7}.sb-sound{fill:#bb42c3}.sb-pen{fill:#0e9a6c}.sb-events{fill:#c88330}.sb-control{fill:#e1a91a}.sb-sensing{fill:#2ca5e2}.sb-operators{fill:#5cb712}.sb-variables{fill:#ee7d16}.sb-list{fill:#cc5b22}.sb-custom{fill:#632d99}.sb-custom-arg{fill:#5947b1}.sb-extension{fill:#4b4a60}.sb-grey{fill:#969696}.sb-bevel{filter:url(#bevelFilter)}.sb-input{filter:url(#inputBevelFilter)}.sb-input-number,.sb-input-number-dropdown,.sb-input-string{fill:#fff}.sb-literal-dropdown,.sb-literal-number,.sb-literal-number-dropdown,.sb-literal-string{font-weight:400;font-size:9px;word-spacing:0}.sb-literal-number,.sb-literal-number-dropdown,.sb-literal-string{fill:#000}.sb-darker{filter:url(#inputDarkFilter)}.sb-outline{stroke:#fff;stroke-opacity:.2;stroke-width:2;fill:none}.sb-define-hat-cap{stroke:#632d99;stroke-width:1;fill:#8e2ec2}.sb-comment{fill:#ffffa5;stroke:#d0d1d2;stroke-width:1}.sb-comment-line{fill:#ffff80}.sb-comment-label{font-family:Helevetica,Arial,DejaVu Sans,sans-serif;font-weight:700;fill:#5c5d5f;word-spacing:0;font-size:12px}]]></style></defs><g><g transform="translate(0 0)"><g transform="translate(2 0)"><g transform="translate(0 6)"><path d="M 0 15 Q 67 -12 133 15 L 133 49 L 130 52 L 27 52 L 24 55 L 16 55 L 13 52 L 3 52 L 0 49 M -1 13 Q 67 -14 134 13 Q 135 15 133 16 Q 67 -11 0 16 Q -2 15 -1 13 Z" class="sb-custom sb-bevel"/><path d="M -1 13 Q 67 -14 134 13 Q 135 15 133 16 Q 67 -11 0 16 Q -2 15 -1 13 Z" class="sb-define-hat-cap"/></g><text x="0" y="10" class="sb-label " transform="translate(8 32)">define</text><g transform="translate(44 22)"><path d="M 0 3 L 3 0 L 13 0 L 16 3 L 24 3 L 27 0 L 78 0 L 81 3 L 81 23 L 78 26 L 27 26 L 24 29 L 16 29 L 13 26 L 3 26 L 0 23 Z" class="sb-outline"/><text x="0" y="10" class="sb-label " transform="translate(6 7)">dfs</text><text x="0" y="10" class="sb-label " transform="translate(26 7)">from</text><g transform="translate(55 3)"><path d="M 10 0 L 10 0 A 10 10 0 0 1 10 20 L 10 20 A 10 10 0 0 1 10 0 Z" class="sb-custom-arg sb-bevel"/><text x="0" y="10" class="sb-label " transform="translate(8 4)">i</text></g></g></g><g transform="translate(2 58)"><path d="M 0 3 L 3 0 L 13 0 L 16 3 L 24 3 L 27 0 L 128 0 L 131 3 L 131 27 L 128 30 L 42 30 L 39 33 L 31 33 L 28 30 L 17 30 L 15 32 L 15 144 L 17 146 L 128 146 L 131 149 L 131 159 L 128 162 L 27 162 L 24 165 L 16 165 L 13 162 L 3 162 L 0 159" class="sb-control sb-bevel"/><text x="0" y="10" class="sb-label " transform="translate(6 8)">if</text><g transform="translate(30 2)"><path d="M 12.5 0 L 55.5 0 68 12.5 L 68 12.5 55.5 25 L 12.5 25 0 12.5 L 0 12.5 12.5 0 Z" class="sb-operators sb-bevel"/><g transform="translate(9 2)"><path d="M 10 0 L 10 0 A 10 10 0 0 1 10 20 L 10 20 A 10 10 0 0 1 10 0 Z" class="sb-custom-arg sb-bevel"/><text x="0" y="10" class="sb-label " transform="translate(8 4)">i</text></g><text x="0" y="10" class="sb-label " transform="translate(33 6)">&gt;</text><g transform="translate(45 5)"><rect x="0" y="0" width="14" height="14" class="sb-input sb-input-string"/><text x="0" y="10" class="sb-label sb-literal-string" transform="translate(4 0)">0</text></g></g><text x="0" y="10" class="sb-label " transform="translate(102 8)">then</text><g transform="translate(15 30)"><g transform="translate(0 0)"><path d="M 0 3 L 3 0 L 13 0 L 16 3 L 24 3 L 27 0 L 104 0 L 107 3 L 107 23 L 104 26 L 27 26 L 24 29 L 16 29 L 13 26 L 3 26 L 0 23 Z" class="sb-list sb-bevel"/><text x="0" y="10" class="sb-label " transform="translate(6 7)">add</text><g transform="translate(30 3)"><path d="M 10 0 L 10 0 A 10 10 0 0 1 10 20 L 10 20 A 10 10 0 0 1 10 0 Z" class="sb-custom-arg sb-bevel"/><text x="0" y="10" class="sb-label " transform="translate(8 4)">i</text></g><text x="0" y="10" class="sb-label " transform="translate(54 7)">to</text><g transform="translate(68 6)"><g width="33" height="14" class="sb-input sb-input-dropdown"><rect x="0" y="0" width="33" height="14" class="sb-list sb-darker"/></g><text x="0" y="10" class="sb-label sb-literal-dropdown" transform="translate(4 0)">dfs</text><polygon points="7 0 3.5 4 0 0" fill="#000" opacity="0.6" transform="translate(23 5)"/></g></g><g transform="translate(0 26)"><path d="M 0 3 L 3 0 L 13 0 L 16 3 L 24 3 L 27 0 L 181 0 L 184 3 L 184 27 L 181 30 L 27 30 L 24 33 L 16 33 L 13 30 L 3 30 L 0 27 Z" class="sb-custom sb-bevel"/><text x="0" y="10" class="sb-label " transform="translate(6 9)">dfs</text><text x="0" y="10" class="sb-label " transform="translate(26 9)">from</text><g transform="translate(55 3)"><path d="M 12 0 L 111 0 A 12 12 0 0 1 111 24 L 12 24 A 12 12 0 0 1 12 0 Z" class="sb-list sb-bevel"/><text x="0" y="10" class="sb-label " transform="translate(8 6)">item</text><g transform="translate(35 2)"><path d="M 10 0 L 10 0 A 10 10 0 0 1 10 20 L 10 20 A 10 10 0 0 1 10 0 Z" class="sb-custom-arg sb-bevel"/><text x="0" y="10" class="sb-label " transform="translate(8 4)">i</text></g><text x="0" y="10" class="sb-label " transform="translate(59 6)">of</text><g transform="translate(74 5)"><g width="44" height="14" class="sb-input sb-input-dropdown"><rect x="0" y="0" width="44" height="14" class="sb-list sb-darker"/></g><text x="0" y="10" class="sb-label sb-literal-dropdown" transform="translate(4 0)">lChild</text><polygon points="7 0 3.5 4 0 0" fill="#000" opacity="0.6" transform="translate(34 5)"/></g></g></g><g transform="translate(0 56)"><path d="M 0 3 L 3 0 L 13 0 L 16 3 L 24 3 L 27 0 L 187 0 L 190 3 L 190 27 L 187 30 L 27 30 L 24 33 L 16 33 L 13 30 L 3 30 L 0 27 Z" class="sb-custom sb-bevel"/><text x="0" y="10" class="sb-label " transform="translate(6 9)">dfs</text><text x="0" y="10" class="sb-label " transform="translate(26 9)">from</text><g transform="translate(55 3)"><path d="M 12 0 L 117 0 A 12 12 0 0 1 117 24 L 12 24 A 12 12 0 0 1 12 0 Z" class="sb-list sb-bevel"/><text x="0" y="10" class="sb-label " transform="translate(8 6)">item</text><g transform="translate(35 2)"><path d="M 10 0 L 10 0 A 10 10 0 0 1 10 20 L 10 20 A 10 10 0 0 1 10 0 Z" class="sb-custom-arg sb-bevel"/><text x="0" y="10" class="sb-label " transform="translate(8 4)">i</text></g><text x="0" y="10" class="sb-label " transform="translate(59 6)">of</text><g transform="translate(74 5)"><g width="50" height="14" class="sb-input sb-input-dropdown"><rect x="0" y="0" width="50" height="14" class="sb-list sb-darker"/></g><text x="0" y="10" class="sb-label sb-literal-dropdown" transform="translate(4 0)">mChild</text><polygon points="7 0 3.5 4 0 0" fill="#000" opacity="0.6" transform="translate(40 5)"/></g></g></g><g transform="translate(0 86)"><path d="M 0 3 L 3 0 L 13 0 L 16 3 L 24 3 L 27 0 L 182 0 L 185 3 L 185 27 L 182 30 L 27 30 L 24 33 L 16 33 L 13 30 L 3 30 L 0 27 Z" class="sb-custom sb-bevel"/><text x="0" y="10" class="sb-label " transform="translate(6 9)">dfs</text><text x="0" y="10" class="sb-label " transform="translate(26 9)">from</text><g transform="translate(55 3)"><path d="M 12 0 L 112 0 A 12 12 0 0 1 112 24 L 12 24 A 12 12 0 0 1 12 0 Z" class="sb-list sb-bevel"/><text x="0" y="10" class="sb-label " transform="translate(8 6)">item</text><g transform="translate(35 2)"><path d="M 10 0 L 10 0 A 10 10 0 0 1 10 20 L 10 20 A 10 10 0 0 1 10 0 Z" class="sb-custom-arg sb-bevel"/><text x="0" y="10" class="sb-label " transform="translate(8 4)">i</text></g><text x="0" y="10" class="sb-label " transform="translate(59 6)">of</text><g transform="translate(74 5)"><g width="45" height="14" class="sb-input sb-input-dropdown"><rect x="0" y="0" width="45" height="14" class="sb-list sb-darker"/></g><text x="0" y="10" class="sb-label sb-literal-dropdown" transform="translate(4 0)">rChild</text><polygon points="7 0 3.5 4 0 0" fill="#000" opacity="0.6" transform="translate(35 5)"/></g></g></g></g></g></g></g></svg>