<svg xmlns="http://www.w3.org/2000/svg" version="1.1" width="1138" height="631"><defs><filter id="bevelFilter" x0="-50%" y0="-50%" width="200%" height="200%"><feGaussianBlur result="blur-1" in="SourceAlpha" stdDeviation="1 1"/><feFlood result="flood-2" in="undefined" flood-color="#fff" flood-opacity="0.15"/><feOffset result="offset-3" in="blur-1" dx="1" dy="1"/><feComposite result="comp-4" operator="arithmetic" in="SourceAlpha" in2="offset-3" k2="1" k3="-1"/><feComposite result="comp-5" operator="in" in="flood-2" in2="comp-4"/><feFlood result="flood-6" in="undefined" flood-color="#000" flood-opacity="0.7"/><feOffset result="offset-7" in="blur-1" dx="-1" dy="-1"/><feComposite result="comp-8" operator="arithmetic" in="SourceAlpha" in2="offset-7" k2="1" k3="-1"/><feComposite result="comp-9" operator="in" in="flood-6" in2="comp-8"/><feMerge result="merge-10"><feMergeNode in="SourceGraphic"/><feMergeNode in="comp-5"/><feMergeNode in="comp-9"/></feMerge></filter><filter id="inputBevelFilter" x0="-50%" y0="-50%" width="200%" height="200%"><feGaussianBlur result="blur-1" in="SourceAlpha" stdDeviation="1 1"/><feFlood result="flood-2" in="undefined" flood-color="#fff" flood-opacity="0.15"/><feOffset result="offset-3" in="blur-1" dx="-1" dy="-1"/><feComposite result="comp-4" operator="arithmetic" in="SourceAlpha" in2="offset-3" k2="1" k3="-1"/><feComposite result="comp-5" operator="in" in="flood-2" in2="comp-4"/><feFlood result="flood-6" in="undefined" flood-color="#000" flood-opacity="0.7"/><feOffset result="offset-7" in="blur-1" dx="1" dy="1"/><feComposite result="comp-8" operator="arithmetic" in="SourceAlpha" in2="offset-7" k2="1" k3="-1"/><feComposite result="comp-9" operator="in" in="flood-6" in2="comp-8"/><feMerge result="merge-10"><feMergeNode in="SourceGraphic"/><feMergeNode in="comp-5"/><feMergeNode in="comp-9"/></feMerge></filter><filter id="inputDarkFilter" x0="-50%" y0="-50%" width="200%" height="200%"><feFlood result="flood-1" in="undefined" flood-color="#000" flood-opacity="0.2"/><feComposite result="comp-2" operator="in" in="flood-1" in2="SourceAlpha"/><feMerge result="merge-3"><feMergeNode in="SourceGraphic"/><feMergeNode in="comp-2"/></feMerge></filter><path d="M1.504 21L0 19.493 4.567 0h1.948l-.5 2.418s1.002-.502 3.006 0c2.006.503 3.008 2.01 6.517 2.01 3.508 0 4.463-.545 4.463-.545l-.823 9.892s-2.137 1.005-5.144.696c-3.007-.307-3.007-2.007-6.014-2.51-3.008-.502-4.512.503-4.512.503L1.504 21z" fill="#3f8d15" id="greenFlag"/><path d="M6.724 0C3.01 0 0 2.91 0 6.5c0 2.316 1.253 4.35 3.14 5.5H5.17v-1.256C3.364 10.126 2.07 8.46 2.07 6.5 2.07 4.015 4.152 2 6.723 2c1.14 0 2.184.396 2.993 1.053L8.31 4.13c-.45.344-.398.826.11 1.08L15 8.5 13.858.992c-.083-.547-.514-.714-.963-.37l-1.532 1.172A6.825 6.825 0 0 0 6.723 0z" fill="#fff" id="turnRight"/><path d="M3.637 1.794A6.825 6.825 0 0 1 8.277 0C11.99 0 15 2.91 15 6.5c0 2.316-1.253 4.35-3.14 5.5H9.83v-1.256c1.808-.618 3.103-2.285 3.103-4.244 0-2.485-2.083-4.5-4.654-4.5-1.14 0-2.184.396-2.993 1.053L6.69 4.13c.45.344.398.826-.11 1.08L0 8.5 1.142.992c.083-.547.514-.714.963-.37l1.532 1.172z" fill="#fff" id="turnLeft"/><path d="M0 0L4 4L0 8Z" fill="#111" id="addInput"/><path d="M4 0L4 8L0 4Z" fill="#111" id="delInput"/><g id="loopArrow"><path d="M8 0l2 -2l0 -3l3 0l-4 -5l-4 5l3 0l0 3l-8 0l0 2" fill="#000" opacity="0.3"/><path d="M8 0l2 -2l0 -3l3 0l-4 -5l-4 5l3 0l0 3l-8 0l0 2" fill="#fff" opacity="0.9" transform="translate(-1 -1)"/></g><style><![CDATA[.sb-label{font-family:Lucida Grande,Verdana,Arial,DejaVu Sans,sans-serif;font-weight:700;fill:#fff;font-size:10px;word-spacing:+1px}.sb-obsolete{fill:#d42828}.sb-motion{fill:#4a6cd4}.sb-looks{fill:#8a55d7}.sb-sound{fill:#bb42c3}.sb-pen{fill:#0e9a6c}.sb-events{fill:#c88330}.sb-control{fill:#e1a91a}.sb-sensing{fill:#2ca5e2}.sb-operators{fill:#5cb712}.sb-variables{fill:#ee7d16}.sb-list{fill:#cc5b22}.sb-custom{fill:#632d99}.sb-custom-arg{fill:#5947b1}.sb-extension{fill:#4b4a60}.sb-grey{fill:#969696}.sb-bevel{filter:url(#bevelFilter)}.sb-input{filter:url(#inputBevelFilter)}.sb-input-number,.sb-input-number-dropdown,.sb-input-string{fill:#fff}.sb-literal-dropdown,.sb-literal-number,.sb-literal-number-dropdown,.sb-literal-string{font-weight:400;font-size:9px;word-spacing:0}.sb-literal-number,.sb-literal-number-dropdown,.sb-literal-string{fill:#000}.sb-darker{filter:url(#inputDarkFilter)}.sb-outline{stroke:#fff;stroke-opacity:.2;stroke-width:2;fill:none}.sb-define-hat-cap{stroke:#632d99;stroke-width:1;fill:#8e2ec2}.sb-comment{fill:#ffffa5;stroke:#d0d1d2;stroke-width:1}.sb-comment-line{fill:#ffff80}.sb-comment-label{font-family:Helevetica,Arial,DejaVu Sans,sans-serif;font-weight:700;fill:#5c5d5f;word-spacing:0;font-size:12px}]]></style></defs><g><g transform="translate(0 0)"><g transform="translate(2 0)"><g transform="translate(0 8)"><path d="M 0 15 Q 96 -20 192 15 L 192 49 L 189 52 L 27 52 L 24 55 L 16 55 L 13 52 L 3 52 L 0 49 M -1 13 Q 96 -22 193 13 Q 194 15 192 16 Q 96 -19 0 16 Q -2 15 -1 13 Z" class="sb-custom sb-bevel"/><path d="M -1 13 Q 96 -22 193 13 Q 194 15 192 16 Q 96 -19 0 16 Q -2 15 -1 13 Z" class="sb-define-hat-cap"/></g><text x="0" y="10" class="sb-label " transform="translate(8 36)">define</text><g transform="translate(44 28)"><path d="M 0 3 L 3 0 L 13 0 L 16 3 L 24 3 L 27 0 L 137 0 L 140 3 L 140 19 L 137 22 L 27 22 L 24 25 L 16 25 L 13 22 L 3 22 L 0 19 Z" class="sb-outline"/><text x="0" y="10" class="sb-label " transform="translate(6 5)">Solve</text><text x="0" y="10" class="sb-label " transform="translate(37 5)">tridiagonal</text><text x="0" y="10" class="sb-label " transform="translate(97 5)">system</text></g></g><g transform="translate(2 60)"><path d="M 0 3 L 3 0 L 13 0 L 16 3 L 24 3 L 27 0 L 166 0 L 169 3 L 169 23 L 166 26 L 27 26 L 24 29 L 16 29 L 13 26 L 3 26 L 0 23 Z" class="sb-variables sb-bevel"/><text x="0" y="10" class="sb-label " transform="translate(6 7)">set</text><g transform="translate(30 6)"><g width="25" height="14" class="sb-input sb-input-dropdown"><rect x="0" y="0" width="25" height="14" class="sb-variables sb-darker"/></g><text x="0" y="10" class="sb-label sb-literal-dropdown" transform="translate(4 0)">n</text><polygon points="7 0 3.5 4 0 0" fill="#000" opacity="0.6" transform="translate(15 5)"/></g><text x="0" y="10" class="sb-label " transform="translate(59 7)">to</text><g transform="translate(73 3)"><path d="M 10 0 L 80 0 A 10 10 0 0 1 80 20 L 10 20 A 10 10 0 0 1 10 0 Z" class="sb-list sb-bevel"/><text x="0" y="10" class="sb-label " transform="translate(8 4)">length</text><text x="0" y="10" class="sb-label " transform="translate(45 4)">of</text><g transform="translate(60 3)"><g width="25" height="14" class="sb-input sb-input-dropdown"><rect x="0" y="0" width="25" height="14" class="sb-list sb-darker"/></g><text x="0" y="10" class="sb-label sb-literal-dropdown" transform="translate(4 0)">b</text><polygon points="7 0 3.5 4 0 0" fill="#000" opacity="0.6" transform="translate(15 5)"/></g></g></g><g transform="translate(2 86)"><path d="M 0 3 L 3 0 L 13 0 L 16 3 L 24 3 L 27 0 L 253 0 L 256 3 L 256 32 L 253 35 L 42 35 L 39 38 L 31 38 L 28 35 L 17 35 L 15 37 L 15 93 L 17 95 L 253 95 L 256 98 L 256 108 L 253 111 L 27 111 L 24 114 L 16 114 L 13 111 L 3 111 L 0 108" class="sb-control sb-bevel"/><text x="0" y="10" class="sb-label " transform="translate(6 11)">if</text><g transform="translate(30 2)"><path d="M 15 0 L 178 0 193 15 L 193 15 178 30 L 15 30 0 15 L 0 15 15 0 Z" class="sb-operators sb-bevel"/><text x="0" y="10" class="sb-label " transform="translate(11 8)">not</text><g transform="translate(32 2)"><path d="M 12.5 0 L 143.5 0 156 12.5 L 156 12.5 143.5 25 L 12.5 25 0 12.5 L 0 12.5 12.5 0 Z" class="sb-operators sb-bevel"/><g transform="translate(9 2)"><path d="M 10 0 L 98 0 A 10 10 0 0 1 98 20 L 10 20 A 10 10 0 0 1 10 0 Z" class="sb-list sb-bevel"/><text x="0" y="10" class="sb-label " transform="translate(8 4)">item</text><g transform="translate(35 3)"><path d="M 6.5 0 L 17.5 0 A 6.5 6.5 0 0 1 17.5 13 L 6.5 13 A 6.5 6.5 0 0 1 6.5 0 Z" class="sb-input sb-input-number-dropdown"/><text x="0" y="10" class="sb-label sb-literal-number-dropdown" transform="translate(5 0)">1</text><polygon points="7 0 3.5 4 0 0" fill="#000" opacity="0.6" transform="translate(14 4)"/></g><text x="0" y="10" class="sb-label " transform="translate(63 4)">of</text><g transform="translate(78 3)"><g width="25" height="14" class="sb-input sb-input-dropdown"><rect x="0" y="0" width="25" height="14" class="sb-list sb-darker"/></g><text x="0" y="10" class="sb-label sb-literal-dropdown" transform="translate(4 0)">b</text><polygon points="7 0 3.5 4 0 0" fill="#000" opacity="0.6" transform="translate(15 5)"/></g></g><text x="0" y="10" class="sb-label " transform="translate(121 6)">=</text><g transform="translate(133 5)"><rect x="0" y="0" width="14" height="14" class="sb-input sb-input-string"/><text x="0" y="10" class="sb-label sb-literal-string" transform="translate(4 0)">0</text></g></g></g><text x="0" y="10" class="sb-label " transform="translate(227 11)">then</text><g transform="translate(15 35)"><g transform="translate(0 0)"><path d="M 0 3 L 3 0 L 13 0 L 16 3 L 24 3 L 27 0 L 412 0 L 415 3 L 415 27 L 412 30 L 27 30 L 24 33 L 16 33 L 13 30 L 3 30 L 0 27 Z" class="sb-list sb-bevel"/><text x="0" y="10" class="sb-label " transform="translate(6 9)">replace</text><text x="0" y="10" class="sb-label " transform="translate(47 9)">item</text><g transform="translate(74 8)"><path d="M 6.5 0 L 17.5 0 A 6.5 6.5 0 0 1 17.5 13 L 6.5 13 A 6.5 6.5 0 0 1 6.5 0 Z" class="sb-input sb-input-number-dropdown"/><text x="0" y="10" class="sb-label sb-literal-number-dropdown" transform="translate(5 0)">1</text><polygon points="7 0 3.5 4 0 0" fill="#000" opacity="0.6" transform="translate(14 4)"/></g><text x="0" y="10" class="sb-label " transform="translate(102 9)">of</text><g transform="translate(117 8)"><g width="24" height="14" class="sb-input sb-input-dropdown"><rect x="0" y="0" width="24" height="14" class="sb-list sb-darker"/></g><text x="0" y="10" class="sb-label sb-literal-dropdown" transform="translate(4 0)">c</text><polygon points="7 0 3.5 4 0 0" fill="#000" opacity="0.6" transform="translate(14 5)"/></g><text x="0" y="10" class="sb-label " transform="translate(145 9)">with</text><g transform="translate(172 3)"><path d="M 12 0 L 225 0 A 12 12 0 0 1 225 24 L 12 24 A 12 12 0 0 1 12 0 Z" class="sb-operators sb-bevel"/><g transform="translate(4 2)"><path d="M 10 0 L 97 0 A 10 10 0 0 1 97 20 L 10 20 A 10 10 0 0 1 10 0 Z" class="sb-list sb-bevel"/><text x="0" y="10" class="sb-label " transform="translate(8 4)">item</text><g transform="translate(35 3)"><path d="M 6.5 0 L 17.5 0 A 6.5 6.5 0 0 1 17.5 13 L 6.5 13 A 6.5 6.5 0 0 1 6.5 0 Z" class="sb-input sb-input-number-dropdown"/><text x="0" y="10" class="sb-label sb-literal-number-dropdown" transform="translate(5 0)">1</text><polygon points="7 0 3.5 4 0 0" fill="#000" opacity="0.6" transform="translate(14 4)"/></g><text x="0" y="10" class="sb-label " transform="translate(63 4)">of</text><g transform="translate(78 3)"><g width="24" height="14" class="sb-input sb-input-dropdown"><rect x="0" y="0" width="24" height="14" class="sb-list sb-darker"/></g><text x="0" y="10" class="sb-label sb-literal-dropdown" transform="translate(4 0)">c</text><polygon points="7 0 3.5 4 0 0" fill="#000" opacity="0.6" transform="translate(14 5)"/></g></g><text x="0" y="10" class="sb-label " transform="translate(115 6)">/</text><g transform="translate(125 2)"><path d="M 10 0 L 98 0 A 10 10 0 0 1 98 20 L 10 20 A 10 10 0 0 1 10 0 Z" class="sb-list sb-bevel"/><text x="0" y="10" class="sb-label " transform="translate(8 4)">item</text><g transform="translate(35 3)"><path d="M 6.5 0 L 17.5 0 A 6.5 6.5 0 0 1 17.5 13 L 6.5 13 A 6.5 6.5 0 0 1 6.5 0 Z" class="sb-input sb-input-number-dropdown"/><text x="0" y="10" class="sb-label sb-literal-number-dropdown" transform="translate(5 0)">1</text><polygon points="7 0 3.5 4 0 0" fill="#000" opacity="0.6" transform="translate(14 4)"/></g><text x="0" y="10" class="sb-label " transform="translate(63 4)">of</text><g transform="translate(78 3)"><g width="25" height="14" class="sb-input sb-input-dropdown"><rect x="0" y="0" width="25" height="14" class="sb-list sb-darker"/></g><text x="0" y="10" class="sb-label sb-literal-dropdown" transform="translate(4 0)">b</text><polygon points="7 0 3.5 4 0 0" fill="#000" opacity="0.6" transform="translate(15 5)"/></g></g></g></g><g transform="translate(0 30)"><path d="M 0 3 L 3 0 L 13 0 L 16 3 L 24 3 L 27 0 L 414 0 L 417 3 L 417 27 L 414 30 L 27 30 L 24 33 L 16 33 L 13 30 L 3 30 L 0 27 Z" class="sb-list sb-bevel"/><text x="0" y="10" class="sb-label " transform="translate(6 9)">replace</text><text x="0" y="10" class="sb-label " transform="translate(47 9)">item</text><g transform="translate(74 8)"><path d="M 6.5 0 L 17.5 0 A 6.5 6.5 0 0 1 17.5 13 L 6.5 13 A 6.5 6.5 0 0 1 6.5 0 Z" class="sb-input sb-input-number-dropdown"/><text x="0" y="10" class="sb-label sb-literal-number-dropdown" transform="translate(5 0)">1</text><polygon points="7 0 3.5 4 0 0" fill="#000" opacity="0.6" transform="translate(14 4)"/></g><text x="0" y="10" class="sb-label " transform="translate(102 9)">of</text><g transform="translate(117 8)"><g width="25" height="14" class="sb-input sb-input-dropdown"><rect x="0" y="0" width="25" height="14" class="sb-list sb-darker"/></g><text x="0" y="10" class="sb-label sb-literal-dropdown" transform="translate(4 0)">d</text><polygon points="7 0 3.5 4 0 0" fill="#000" opacity="0.6" transform="translate(15 5)"/></g><text x="0" y="10" class="sb-label " transform="translate(146 9)">with</text><g transform="translate(173 3)"><path d="M 12 0 L 226 0 A 12 12 0 0 1 226 24 L 12 24 A 12 12 0 0 1 12 0 Z" class="sb-operators sb-bevel"/><g transform="translate(4 2)"><path d="M 10 0 L 98 0 A 10 10 0 0 1 98 20 L 10 20 A 10 10 0 0 1 10 0 Z" class="sb-list sb-bevel"/><text x="0" y="10" class="sb-label " transform="translate(8 4)">item</text><g transform="translate(35 3)"><path d="M 6.5 0 L 17.5 0 A 6.5 6.5 0 0 1 17.5 13 L 6.5 13 A 6.5 6.5 0 0 1 6.5 0 Z" class="sb-input sb-input-number-dropdown"/><text x="0" y="10" class="sb-label sb-literal-number-dropdown" transform="translate(5 0)">1</text><polygon points="7 0 3.5 4 0 0" fill="#000" opacity="0.6" transform="translate(14 4)"/></g><text x="0" y="10" class="sb-label " transform="translate(63 4)">of</text><g transform="translate(78 3)"><g width="25" height="14" class="sb-input sb-input-dropdown"><rect x="0" y="0" width="25" height="14" class="sb-list sb-darker"/></g><text x="0" y="10" class="sb-label sb-literal-dropdown" transform="translate(4 0)">d</text><polygon points="7 0 3.5 4 0 0" fill="#000" opacity="0.6" transform="translate(15 5)"/></g></g><text x="0" y="10" class="sb-label " transform="translate(116 6)">/</text><g transform="translate(126 2)"><path d="M 10 0 L 98 0 A 10 10 0 0 1 98 20 L 10 20 A 10 10 0 0 1 10 0 Z" class="sb-list sb-bevel"/><text x="0" y="10" class="sb-label " transform="translate(8 4)">item</text><g transform="translate(35 3)"><path d="M 6.5 0 L 17.5 0 A 6.5 6.5 0 0 1 17.5 13 L 6.5 13 A 6.5 6.5 0 0 1 6.5 0 Z" class="sb-input sb-input-number-dropdown"/><text x="0" y="10" class="sb-label sb-literal-number-dropdown" transform="translate(5 0)">1</text><polygon points="7 0 3.5 4 0 0" fill="#000" opacity="0.6" transform="translate(14 4)"/></g><text x="0" y="10" class="sb-label " transform="translate(63 4)">of</text><g transform="translate(78 3)"><g width="25" height="14" class="sb-input sb-input-dropdown"><rect x="0" y="0" width="25" height="14" class="sb-list sb-darker"/></g><text x="0" y="10" class="sb-label sb-literal-dropdown" transform="translate(4 0)">b</text><polygon points="7 0 3.5 4 0 0" fill="#000" opacity="0.6" transform="translate(15 5)"/></g></g></g></g></g></g><g transform="translate(2 197)"><path d="M 0 3 L 3 0 L 13 0 L 16 3 L 24 3 L 27 0 L 103 0 L 106 3 L 106 19 L 103 22 L 27 22 L 24 25 L 16 25 L 13 22 L 3 22 L 0 19 Z" class="sb-variables sb-bevel"/><text x="0" y="10" class="sb-label " transform="translate(6 5)">set</text><g transform="translate(30 4)"><g width="38" height="14" class="sb-input sb-input-dropdown"><rect x="0" y="0" width="38" height="14" class="sb-variables sb-darker"/></g><text x="0" y="10" class="sb-label sb-literal-dropdown" transform="translate(4 0)">indx</text><polygon points="7 0 3.5 4 0 0" fill="#000" opacity="0.6" transform="translate(28 5)"/></g><text x="0" y="10" class="sb-label " transform="translate(72 5)">to</text><g transform="translate(86 4)"><rect x="0" y="0" width="14" height="14" class="sb-input sb-input-string"/><text x="0" y="10" class="sb-label sb-literal-string" transform="translate(4 0)">2</text></g></g><g transform="translate(2 219)"><path d="M 0 3 L 3 0 L 13 0 L 16 3 L 24 3 L 27 0 L 106 0 L 109 3 L 109 26 L 106 29 L 42 29 L 39 32 L 31 32 L 28 29 L 17 29 L 15 31 L 15 208 L 17 210 L 106 210 L 109 213 L 109 223 L 106 226 L 27 226 L 24 229 L 16 229 L 13 226 L 3 226 L 0 223" class="sb-control sb-bevel"/><text x="0" y="10" class="sb-label " transform="translate(6 8)">repeat</text><g transform="translate(43 2)"><path d="M 12 0 L 48 0 A 12 12 0 0 1 48 24 L 12 24 A 12 12 0 0 1 12 0 Z" class="sb-operators sb-bevel"/><g transform="translate(4 2)"><path d="M 10 0 L 13 0 A 10 10 0 0 1 13 20 L 10 20 A 10 10 0 0 1 10 0 Z" class="sb-variables sb-bevel"/><text x="0" y="10" class="sb-label " transform="translate(8 4)">n</text></g><text x="0" y="10" class="sb-label " transform="translate(31 6)">-</text><g transform="translate(41 5)"><path d="M 6.5 0 L 8.5 0 A 6.5 6.5 0 0 1 8.5 13 L 6.5 13 A 6.5 6.5 0 0 1 6.5 0 Z" class="sb-input sb-input-number"/><text x="0" y="10" class="sb-label sb-literal-number" transform="translate(5 0)">1</text></g></g><use NS1:href="#loopArrow" xmlns:NS1="http://www.w3.org/1999/xlink" transform="translate(94 223)"/><g transform="translate(15 29)"><g transform="translate(0 0)"><path d="M 0 3 L 3 0 L 13 0 L 16 3 L 24 3 L 27 0 L 593 0 L 596 3 L 596 48 L 593 51 L 42 51 L 39 54 L 31 54 L 28 51 L 17 51 L 15 53 L 15 141 L 17 143 L 593 143 L 596 146 L 596 156 L 593 159 L 27 159 L 24 162 L 16 162 L 13 159 L 3 159 L 0 156" class="sb-control sb-bevel"/><text x="0" y="10" class="sb-label " transform="translate(6 19)">if</text><g transform="translate(30 2)"><path d="M 23 0 L 510 0 533 23 L 533 23 510 46 L 23 46 0 23 L 0 23 23 0 Z" class="sb-operators sb-bevel"/><text x="0" y="10" class="sb-label " transform="translate(11 16)">not</text><g transform="translate(32 2)"><path d="M 20.5 0 L 475.5 0 496 20.5 L 496 20.5 475.5 41 L 20.5 41 0 20.5 L 0 20.5 20.5 0 Z" class="sb-operators sb-bevel"/><g transform="translate(13 2)"><path d="M 18 0 L 426 0 A 18 18 0 0 1 426 36 L 18 36 A 18 18 0 0 1 18 0 Z" class="sb-operators sb-bevel"/><g transform="translate(4 6)"><path d="M 12 0 L 110 0 A 12 12 0 0 1 110 24 L 12 24 A 12 12 0 0 1 12 0 Z" class="sb-list sb-bevel"/><text x="0" y="10" class="sb-label " transform="translate(8 6)">item</text><g transform="translate(35 2)"><path d="M 10 0 L 28 0 A 10 10 0 0 1 28 20 L 10 20 A 10 10 0 0 1 10 0 Z" class="sb-variables sb-bevel"/><text x="0" y="10" class="sb-label " transform="translate(8 4)">indx</text></g><text x="0" y="10" class="sb-label " transform="translate(77 6)">of</text><g transform="translate(92 5)"><g width="25" height="14" class="sb-input sb-input-dropdown"><rect x="0" y="0" width="25" height="14" class="sb-list sb-darker"/></g><text x="0" y="10" class="sb-label sb-literal-dropdown" transform="translate(4 0)">b</text><polygon points="7 0 3.5 4 0 0" fill="#000" opacity="0.6" transform="translate(15 5)"/></g></g><text x="0" y="10" class="sb-label " transform="translate(130 12)">-</text><g transform="translate(140 2)"><path d="M 16 0 L 284 0 A 16 16 0 0 1 284 32 L 16 32 A 16 16 0 0 1 16 0 Z" class="sb-operators sb-bevel"/><g transform="translate(4 4)"><path d="M 12 0 L 109 0 A 12 12 0 0 1 109 24 L 12 24 A 12 12 0 0 1 12 0 Z" class="sb-list sb-bevel"/><text x="0" y="10" class="sb-label " transform="translate(8 6)">item</text><g transform="translate(35 2)"><path d="M 10 0 L 28 0 A 10 10 0 0 1 28 20 L 10 20 A 10 10 0 0 1 10 0 Z" class="sb-variables sb-bevel"/><text x="0" y="10" class="sb-label " transform="translate(8 4)">indx</text></g><text x="0" y="10" class="sb-label " transform="translate(77 6)">of</text><g transform="translate(92 5)"><g width="24" height="14" class="sb-input sb-input-dropdown"><rect x="0" y="0" width="24" height="14" class="sb-list sb-darker"/></g><text x="0" y="10" class="sb-label sb-literal-dropdown" transform="translate(4 0)">a</text><polygon points="7 0 3.5 4 0 0" fill="#000" opacity="0.6" transform="translate(14 5)"/></g></g><text x="0" y="10" class="sb-label " transform="translate(129 10)">*</text><g transform="translate(138 2)"><path d="M 14 0 L 144 0 A 14 14 0 0 1 144 28 L 14 28 A 14 14 0 0 1 14 0 Z" class="sb-list sb-bevel"/><text x="0" y="10" class="sb-label " transform="translate(8 8)">item</text><g transform="translate(35 2)"><path d="M 12 0 L 63 0 A 12 12 0 0 1 63 24 L 12 24 A 12 12 0 0 1 12 0 Z" class="sb-operators sb-bevel"/><g transform="translate(4 2)"><path d="M 10 0 L 28 0 A 10 10 0 0 1 28 20 L 10 20 A 10 10 0 0 1 10 0 Z" class="sb-variables sb-bevel"/><text x="0" y="10" class="sb-label " transform="translate(8 4)">indx</text></g><text x="0" y="10" class="sb-label " transform="translate(46 6)">-</text><g transform="translate(56 5)"><path d="M 6.5 0 L 8.5 0 A 6.5 6.5 0 0 1 8.5 13 L 6.5 13 A 6.5 6.5 0 0 1 6.5 0 Z" class="sb-input sb-input-number"/><text x="0" y="10" class="sb-label sb-literal-number" transform="translate(5 0)">1</text></g></g><text x="0" y="10" class="sb-label " transform="translate(114 8)">of</text><g transform="translate(129 7)"><g width="24" height="14" class="sb-input sb-input-dropdown"><rect x="0" y="0" width="24" height="14" class="sb-list sb-darker"/></g><text x="0" y="10" class="sb-label sb-literal-dropdown" transform="translate(4 0)">c</text><polygon points="7 0 3.5 4 0 0" fill="#000" opacity="0.6" transform="translate(14 5)"/></g></g></g></g><text x="0" y="10" class="sb-label " transform="translate(461 14)">=</text><g transform="translate(473 13)"><rect x="0" y="0" width="14" height="14" class="sb-input sb-input-string"/><text x="0" y="10" class="sb-label sb-literal-string" transform="translate(4 0)">0</text></g></g></g><text x="0" y="10" class="sb-label " transform="translate(567 19)">then</text><g transform="translate(15 51)"><g transform="translate(0 0)"><path d="M 0 3 L 3 0 L 13 0 L 16 3 L 24 3 L 27 0 L 776 0 L 779 3 L 779 43 L 776 46 L 27 46 L 24 49 L 16 49 L 13 46 L 3 46 L 0 43 Z" class="sb-list sb-bevel"/><text x="0" y="10" class="sb-label " transform="translate(6 17)">replace</text><text x="0" y="10" class="sb-label " transform="translate(47 17)">item</text><g transform="translate(74 13)"><path d="M 10 0 L 28 0 A 10 10 0 0 1 28 20 L 10 20 A 10 10 0 0 1 10 0 Z" class="sb-variables sb-bevel"/><text x="0" y="10" class="sb-label " transform="translate(8 4)">indx</text></g><text x="0" y="10" class="sb-label " transform="translate(116 17)">of</text><g transform="translate(131 16)"><g width="24" height="14" class="sb-input sb-input-dropdown"><rect x="0" y="0" width="24" height="14" class="sb-list sb-darker"/></g><text x="0" y="10" class="sb-label sb-literal-dropdown" transform="translate(4 0)">c</text><polygon points="7 0 3.5 4 0 0" fill="#000" opacity="0.6" transform="translate(14 5)"/></g><text x="0" y="10" class="sb-label " transform="translate(159 17)">with</text><g transform="translate(186 3)"><path d="M 20 0 L 567 0 A 20 20 0 0 1 567 40 L 20 40 A 20 20 0 0 1 20 0 Z" class="sb-operators sb-bevel"/><g transform="translate(4 8)"><path d="M 12 0 L 109 0 A 12 12 0 0 1 109 24 L 12 24 A 12 12 0 0 1 12 0 Z" class="sb-list sb-bevel"/><text x="0" y="10" class="sb-label " transform="translate(8 6)">item</text><g transform="translate(35 2)"><path d="M 10 0 L 28 0 A 10 10 0 0 1 28 20 L 10 20 A 10 10 0 0 1 10 0 Z" class="sb-variables sb-bevel"/><text x="0" y="10" class="sb-label " transform="translate(8 4)">indx</text></g><text x="0" y="10" class="sb-label " transform="translate(77 6)">of</text><g transform="translate(92 5)"><g width="24" height="14" class="sb-input sb-input-dropdown"><rect x="0" y="0" width="24" height="14" class="sb-list sb-darker"/></g><text x="0" y="10" class="sb-label sb-literal-dropdown" transform="translate(4 0)">c</text><polygon points="7 0 3.5 4 0 0" fill="#000" opacity="0.6" transform="translate(14 5)"/></g></g><text x="0" y="10" class="sb-label " transform="translate(129 14)">/</text><g transform="translate(139 2)"><path d="M 18 0 L 426 0 A 18 18 0 0 1 426 36 L 18 36 A 18 18 0 0 1 18 0 Z" class="sb-operators sb-bevel"/><g transform="translate(4 6)"><path d="M 12 0 L 110 0 A 12 12 0 0 1 110 24 L 12 24 A 12 12 0 0 1 12 0 Z" class="sb-list sb-bevel"/><text x="0" y="10" class="sb-label " transform="translate(8 6)">item</text><g transform="translate(35 2)"><path d="M 10 0 L 28 0 A 10 10 0 0 1 28 20 L 10 20 A 10 10 0 0 1 10 0 Z" class="sb-variables sb-bevel"/><text x="0" y="10" class="sb-label " transform="translate(8 4)">indx</text></g><text x="0" y="10" class="sb-label " transform="translate(77 6)">of</text><g transform="translate(92 5)"><g width="25" height="14" class="sb-input sb-input-dropdown"><rect x="0" y="0" width="25" height="14" class="sb-list sb-darker"/></g><text x="0" y="10" class="sb-label sb-literal-dropdown" transform="translate(4 0)">b</text><polygon points="7 0 3.5 4 0 0" fill="#000" opacity="0.6" transform="translate(15 5)"/></g></g><text x="0" y="10" class="sb-label " transform="translate(130 12)">-</text><g transform="translate(140 2)"><path d="M 16 0 L 284 0 A 16 16 0 0 1 284 32 L 16 32 A 16 16 0 0 1 16 0 Z" class="sb-operators sb-bevel"/><g transform="translate(4 4)"><path d="M 12 0 L 109 0 A 12 12 0 0 1 109 24 L 12 24 A 12 12 0 0 1 12 0 Z" class="sb-list sb-bevel"/><text x="0" y="10" class="sb-label " transform="translate(8 6)">item</text><g transform="translate(35 2)"><path d="M 10 0 L 28 0 A 10 10 0 0 1 28 20 L 10 20 A 10 10 0 0 1 10 0 Z" class="sb-variables sb-bevel"/><text x="0" y="10" class="sb-label " transform="translate(8 4)">indx</text></g><text x="0" y="10" class="sb-label " transform="translate(77 6)">of</text><g transform="translate(92 5)"><g width="24" height="14" class="sb-input sb-input-dropdown"><rect x="0" y="0" width="24" height="14" class="sb-list sb-darker"/></g><text x="0" y="10" class="sb-label sb-literal-dropdown" transform="translate(4 0)">a</text><polygon points="7 0 3.5 4 0 0" fill="#000" opacity="0.6" transform="translate(14 5)"/></g></g><text x="0" y="10" class="sb-label " transform="translate(129 10)">*</text><g transform="translate(138 2)"><path d="M 14 0 L 144 0 A 14 14 0 0 1 144 28 L 14 28 A 14 14 0 0 1 14 0 Z" class="sb-list sb-bevel"/><text x="0" y="10" class="sb-label " transform="translate(8 8)">item</text><g transform="translate(35 2)"><path d="M 12 0 L 63 0 A 12 12 0 0 1 63 24 L 12 24 A 12 12 0 0 1 12 0 Z" class="sb-operators sb-bevel"/><g transform="translate(4 2)"><path d="M 10 0 L 28 0 A 10 10 0 0 1 28 20 L 10 20 A 10 10 0 0 1 10 0 Z" class="sb-variables sb-bevel"/><text x="0" y="10" class="sb-label " transform="translate(8 4)">indx</text></g><text x="0" y="10" class="sb-label " transform="translate(46 6)">-</text><g transform="translate(56 5)"><path d="M 6.5 0 L 8.5 0 A 6.5 6.5 0 0 1 8.5 13 L 6.5 13 A 6.5 6.5 0 0 1 6.5 0 Z" class="sb-input sb-input-number"/><text x="0" y="10" class="sb-label sb-literal-number" transform="translate(5 0)">1</text></g></g><text x="0" y="10" class="sb-label " transform="translate(114 8)">of</text><g transform="translate(129 7)"><g width="24" height="14" class="sb-input sb-input-dropdown"><rect x="0" y="0" width="24" height="14" class="sb-list sb-darker"/></g><text x="0" y="10" class="sb-label sb-literal-dropdown" transform="translate(4 0)">c</text><polygon points="7 0 3.5 4 0 0" fill="#000" opacity="0.6" transform="translate(14 5)"/></g></g></g></g></g></g><g transform="translate(0 46)"><path d="M 0 3 L 3 0 L 13 0 L 16 3 L 24 3 L 27 0 L 1101 0 L 1104 3 L 1104 43 L 1101 46 L 27 46 L 24 49 L 16 49 L 13 46 L 3 46 L 0 43 Z" class="sb-list sb-bevel"/><text x="0" y="10" class="sb-label " transform="translate(6 17)">replace</text><text x="0" y="10" class="sb-label " transform="translate(47 17)">item</text><g transform="translate(74 13)"><path d="M 10 0 L 28 0 A 10 10 0 0 1 28 20 L 10 20 A 10 10 0 0 1 10 0 Z" class="sb-variables sb-bevel"/><text x="0" y="10" class="sb-label " transform="translate(8 4)">indx</text></g><text x="0" y="10" class="sb-label " transform="translate(116 17)">of</text><g transform="translate(131 16)"><g width="25" height="14" class="sb-input sb-input-dropdown"><rect x="0" y="0" width="25" height="14" class="sb-list sb-darker"/></g><text x="0" y="10" class="sb-label sb-literal-dropdown" transform="translate(4 0)">d</text><polygon points="7 0 3.5 4 0 0" fill="#000" opacity="0.6" transform="translate(15 5)"/></g><text x="0" y="10" class="sb-label " transform="translate(160 17)">with</text><g transform="translate(187 3)"><path d="M 20 0 L 891 0 A 20 20 0 0 1 891 40 L 20 40 A 20 20 0 0 1 20 0 Z" class="sb-operators sb-bevel"/><g transform="translate(4 2)"><path d="M 18 0 L 427 0 A 18 18 0 0 1 427 36 L 18 36 A 18 18 0 0 1 18 0 Z" class="sb-operators sb-bevel"/><g transform="translate(4 6)"><path d="M 12 0 L 110 0 A 12 12 0 0 1 110 24 L 12 24 A 12 12 0 0 1 12 0 Z" class="sb-list sb-bevel"/><text x="0" y="10" class="sb-label " transform="translate(8 6)">item</text><g transform="translate(35 2)"><path d="M 10 0 L 28 0 A 10 10 0 0 1 28 20 L 10 20 A 10 10 0 0 1 10 0 Z" class="sb-variables sb-bevel"/><text x="0" y="10" class="sb-label " transform="translate(8 4)">indx</text></g><text x="0" y="10" class="sb-label " transform="translate(77 6)">of</text><g transform="translate(92 5)"><g width="25" height="14" class="sb-input sb-input-dropdown"><rect x="0" y="0" width="25" height="14" class="sb-list sb-darker"/></g><text x="0" y="10" class="sb-label sb-literal-dropdown" transform="translate(4 0)">d</text><polygon points="7 0 3.5 4 0 0" fill="#000" opacity="0.6" transform="translate(15 5)"/></g></g><text x="0" y="10" class="sb-label " transform="translate(130 12)">-</text><g transform="translate(140 2)"><path d="M 16 0 L 285 0 A 16 16 0 0 1 285 32 L 16 32 A 16 16 0 0 1 16 0 Z" class="sb-operators sb-bevel"/><g transform="translate(4 4)"><path d="M 12 0 L 109 0 A 12 12 0 0 1 109 24 L 12 24 A 12 12 0 0 1 12 0 Z" class="sb-list sb-bevel"/><text x="0" y="10" class="sb-label " transform="translate(8 6)">item</text><g transform="translate(35 2)"><path d="M 10 0 L 28 0 A 10 10 0 0 1 28 20 L 10 20 A 10 10 0 0 1 10 0 Z" class="sb-variables sb-bevel"/><text x="0" y="10" class="sb-label " transform="translate(8 4)">indx</text></g><text x="0" y="10" class="sb-label " transform="translate(77 6)">of</text><g transform="translate(92 5)"><g width="24" height="14" class="sb-input sb-input-dropdown"><rect x="0" y="0" width="24" height="14" class="sb-list sb-darker"/></g><text x="0" y="10" class="sb-label sb-literal-dropdown" transform="translate(4 0)">a</text><polygon points="7 0 3.5 4 0 0" fill="#000" opacity="0.6" transform="translate(14 5)"/></g></g><text x="0" y="10" class="sb-label " transform="translate(129 10)">*</text><g transform="translate(138 2)"><path d="M 14 0 L 145 0 A 14 14 0 0 1 145 28 L 14 28 A 14 14 0 0 1 14 0 Z" class="sb-list sb-bevel"/><text x="0" y="10" class="sb-label " transform="translate(8 8)">item</text><g transform="translate(35 2)"><path d="M 12 0 L 63 0 A 12 12 0 0 1 63 24 L 12 24 A 12 12 0 0 1 12 0 Z" class="sb-operators sb-bevel"/><g transform="translate(4 2)"><path d="M 10 0 L 28 0 A 10 10 0 0 1 28 20 L 10 20 A 10 10 0 0 1 10 0 Z" class="sb-variables sb-bevel"/><text x="0" y="10" class="sb-label " transform="translate(8 4)">indx</text></g><text x="0" y="10" class="sb-label " transform="translate(46 6)">-</text><g transform="translate(56 5)"><path d="M 6.5 0 L 8.5 0 A 6.5 6.5 0 0 1 8.5 13 L 6.5 13 A 6.5 6.5 0 0 1 6.5 0 Z" class="sb-input sb-input-number"/><text x="0" y="10" class="sb-label sb-literal-number" transform="translate(5 0)">1</text></g></g><text x="0" y="10" class="sb-label " transform="translate(114 8)">of</text><g transform="translate(129 7)"><g width="25" height="14" class="sb-input sb-input-dropdown"><rect x="0" y="0" width="25" height="14" class="sb-list sb-darker"/></g><text x="0" y="10" class="sb-label sb-literal-dropdown" transform="translate(4 0)">d</text><polygon points="7 0 3.5 4 0 0" fill="#000" opacity="0.6" transform="translate(15 5)"/></g></g></g></g><text x="0" y="10" class="sb-label " transform="translate(453 14)">/</text><g transform="translate(463 2)"><path d="M 18 0 L 426 0 A 18 18 0 0 1 426 36 L 18 36 A 18 18 0 0 1 18 0 Z" class="sb-operators sb-bevel"/><g transform="translate(4 6)"><path d="M 12 0 L 110 0 A 12 12 0 0 1 110 24 L 12 24 A 12 12 0 0 1 12 0 Z" class="sb-list sb-bevel"/><text x="0" y="10" class="sb-label " transform="translate(8 6)">item</text><g transform="translate(35 2)"><path d="M 10 0 L 28 0 A 10 10 0 0 1 28 20 L 10 20 A 10 10 0 0 1 10 0 Z" class="sb-variables sb-bevel"/><text x="0" y="10" class="sb-label " transform="translate(8 4)">indx</text></g><text x="0" y="10" class="sb-label " transform="translate(77 6)">of</text><g transform="translate(92 5)"><g width="25" height="14" class="sb-input sb-input-dropdown"><rect x="0" y="0" width="25" height="14" class="sb-list sb-darker"/></g><text x="0" y="10" class="sb-label sb-literal-dropdown" transform="translate(4 0)">b</text><polygon points="7 0 3.5 4 0 0" fill="#000" opacity="0.6" transform="translate(15 5)"/></g></g><text x="0" y="10" class="sb-label " transform="translate(130 12)">-</text><g transform="translate(140 2)"><path d="M 16 0 L 284 0 A 16 16 0 0 1 284 32 L 16 32 A 16 16 0 0 1 16 0 Z" class="sb-operators sb-bevel"/><g transform="translate(4 4)"><path d="M 12 0 L 109 0 A 12 12 0 0 1 109 24 L 12 24 A 12 12 0 0 1 12 0 Z" class="sb-list sb-bevel"/><text x="0" y="10" class="sb-label " transform="translate(8 6)">item</text><g transform="translate(35 2)"><path d="M 10 0 L 28 0 A 10 10 0 0 1 28 20 L 10 20 A 10 10 0 0 1 10 0 Z" class="sb-variables sb-bevel"/><text x="0" y="10" class="sb-label " transform="translate(8 4)">indx</text></g><text x="0" y="10" class="sb-label " transform="translate(77 6)">of</text><g transform="translate(92 5)"><g width="24" height="14" class="sb-input sb-input-dropdown"><rect x="0" y="0" width="24" height="14" class="sb-list sb-darker"/></g><text x="0" y="10" class="sb-label sb-literal-dropdown" transform="translate(4 0)">a</text><polygon points="7 0 3.5 4 0 0" fill="#000" opacity="0.6" transform="translate(14 5)"/></g></g><text x="0" y="10" class="sb-label " transform="translate(129 10)">*</text><g transform="translate(138 2)"><path d="M 14 0 L 144 0 A 14 14 0 0 1 144 28 L 14 28 A 14 14 0 0 1 14 0 Z" class="sb-list sb-bevel"/><text x="0" y="10" class="sb-label " transform="translate(8 8)">item</text><g transform="translate(35 2)"><path d="M 12 0 L 63 0 A 12 12 0 0 1 63 24 L 12 24 A 12 12 0 0 1 12 0 Z" class="sb-operators sb-bevel"/><g transform="translate(4 2)"><path d="M 10 0 L 28 0 A 10 10 0 0 1 28 20 L 10 20 A 10 10 0 0 1 10 0 Z" class="sb-variables sb-bevel"/><text x="0" y="10" class="sb-label " transform="translate(8 4)">indx</text></g><text x="0" y="10" class="sb-label " transform="translate(46 6)">-</text><g transform="translate(56 5)"><path d="M 6.5 0 L 8.5 0 A 6.5 6.5 0 0 1 8.5 13 L 6.5 13 A 6.5 6.5 0 0 1 6.5 0 Z" class="sb-input sb-input-number"/><text x="0" y="10" class="sb-label sb-literal-number" transform="translate(5 0)">1</text></g></g><text x="0" y="10" class="sb-label " transform="translate(114 8)">of</text><g transform="translate(129 7)"><g width="24" height="14" class="sb-input sb-input-dropdown"><rect x="0" y="0" width="24" height="14" class="sb-list sb-darker"/></g><text x="0" y="10" class="sb-label sb-literal-dropdown" transform="translate(4 0)">c</text><polygon points="7 0 3.5 4 0 0" fill="#000" opacity="0.6" transform="translate(14 5)"/></g></g></g></g></g></g></g></g><g transform="translate(0 159)"><path d="M 0 3 L 3 0 L 13 0 L 16 3 L 24 3 L 27 0 L 123 0 L 126 3 L 126 19 L 123 22 L 27 22 L 24 25 L 16 25 L 13 22 L 3 22 L 0 19 Z" class="sb-variables sb-bevel"/><text x="0" y="10" class="sb-label " transform="translate(6 5)">change</text><g transform="translate(47 4)"><g width="38" height="14" class="sb-input sb-input-dropdown"><rect x="0" y="0" width="38" height="14" class="sb-variables sb-darker"/></g><text x="0" y="10" class="sb-label sb-literal-dropdown" transform="translate(4 0)">indx</text><polygon points="7 0 3.5 4 0 0" fill="#000" opacity="0.6" transform="translate(28 5)"/></g><text x="0" y="10" class="sb-label " transform="translate(89 5)">by</text><g transform="translate(105 4)"><path d="M 6.5 0 L 8.5 0 A 6.5 6.5 0 0 1 8.5 13 L 6.5 13 A 6.5 6.5 0 0 1 6.5 0 Z" class="sb-input sb-input-number"/><text x="0" y="10" class="sb-label sb-literal-number" transform="translate(5 0)">1</text></g></g></g></g><g transform="translate(2 445)"><path d="M 0 3 L 3 0 L 13 0 L 16 3 L 24 3 L 27 0 L 115 0 L 118 3 L 118 19 L 115 22 L 27 22 L 24 25 L 16 25 L 13 22 L 3 22 L 0 19 Z" class="sb-list sb-bevel"/><text x="0" y="10" class="sb-label " transform="translate(6 5)">delete</text><g transform="translate(42 4)"><path d="M 6.5 0 L 19.5 0 A 6.5 6.5 0 0 1 19.5 13 L 6.5 13 A 6.5 6.5 0 0 1 6.5 0 Z" class="sb-input sb-input-number-dropdown"/><text x="0" y="10" class="sb-label sb-literal-number-dropdown" transform="translate(5 0)">all</text><polygon points="7 0 3.5 4 0 0" fill="#000" opacity="0.6" transform="translate(16 4)"/></g><text x="0" y="10" class="sb-label " transform="translate(72 5)">of</text><g transform="translate(87 4)"><g width="25" height="14" class="sb-input sb-input-dropdown"><rect x="0" y="0" width="25" height="14" class="sb-list sb-darker"/></g><text x="0" y="10" class="sb-label sb-literal-dropdown" transform="translate(4 0)">x</text><polygon points="7 0 3.5 4 0 0" fill="#000" opacity="0.6" transform="translate(15 5)"/></g></g><g transform="translate(2 467)"><path d="M 0 3 L 3 0 L 13 0 L 16 3 L 24 3 L 27 0 L 192 0 L 195 3 L 195 23 L 192 26 L 27 26 L 24 29 L 16 29 L 13 26 L 3 26 L 0 23 Z" class="sb-list sb-bevel"/><text x="0" y="10" class="sb-label " transform="translate(6 7)">add</text><g transform="translate(30 3)"><path d="M 10 0 L 106 0 A 10 10 0 0 1 106 20 L 10 20 A 10 10 0 0 1 10 0 Z" class="sb-list sb-bevel"/><text x="0" y="10" class="sb-label " transform="translate(8 4)">item</text><g transform="translate(35 3)"><path d="M 6.5 0 L 25.5 0 A 6.5 6.5 0 0 1 25.5 13 L 6.5 13 A 6.5 6.5 0 0 1 6.5 0 Z" class="sb-input sb-input-number-dropdown"/><text x="0" y="10" class="sb-label sb-literal-number-dropdown" transform="translate(5 0)">last</text><polygon points="7 0 3.5 4 0 0" fill="#000" opacity="0.6" transform="translate(22 4)"/></g><text x="0" y="10" class="sb-label " transform="translate(71 4)">of</text><g transform="translate(86 3)"><g width="25" height="14" class="sb-input sb-input-dropdown"><rect x="0" y="0" width="25" height="14" class="sb-list sb-darker"/></g><text x="0" y="10" class="sb-label sb-literal-dropdown" transform="translate(4 0)">d</text><polygon points="7 0 3.5 4 0 0" fill="#000" opacity="0.6" transform="translate(15 5)"/></g></g><text x="0" y="10" class="sb-label " transform="translate(150 7)">to</text><g transform="translate(164 6)"><g width="25" height="14" class="sb-input sb-input-dropdown"><rect x="0" y="0" width="25" height="14" class="sb-list sb-darker"/></g><text x="0" y="10" class="sb-label sb-literal-dropdown" transform="translate(4 0)">x</text><polygon points="7 0 3.5 4 0 0" fill="#000" opacity="0.6" transform="translate(15 5)"/></g></g><g transform="translate(2 493)"><path d="M 0 3 L 3 0 L 13 0 L 16 3 L 24 3 L 27 0 L 149 0 L 152 3 L 152 27 L 149 30 L 27 30 L 24 33 L 16 33 L 13 30 L 3 30 L 0 27 Z" class="sb-variables sb-bevel"/><text x="0" y="10" class="sb-label " transform="translate(6 9)">set</text><g transform="translate(30 8)"><g width="38" height="14" class="sb-input sb-input-dropdown"><rect x="0" y="0" width="38" height="14" class="sb-variables sb-darker"/></g><text x="0" y="10" class="sb-label sb-literal-dropdown" transform="translate(4 0)">indx</text><polygon points="7 0 3.5 4 0 0" fill="#000" opacity="0.6" transform="translate(28 5)"/></g><text x="0" y="10" class="sb-label " transform="translate(72 9)">to</text><g transform="translate(86 3)"><path d="M 12 0 L 48 0 A 12 12 0 0 1 48 24 L 12 24 A 12 12 0 0 1 12 0 Z" class="sb-operators sb-bevel"/><g transform="translate(4 2)"><path d="M 10 0 L 13 0 A 10 10 0 0 1 13 20 L 10 20 A 10 10 0 0 1 10 0 Z" class="sb-variables sb-bevel"/><text x="0" y="10" class="sb-label " transform="translate(8 4)">n</text></g><text x="0" y="10" class="sb-label " transform="translate(31 6)">-</text><g transform="translate(41 5)"><path d="M 6.5 0 L 8.5 0 A 6.5 6.5 0 0 1 8.5 13 L 6.5 13 A 6.5 6.5 0 0 1 6.5 0 Z" class="sb-input sb-input-number"/><text x="0" y="10" class="sb-label sb-literal-number" transform="translate(5 0)">1</text></g></g></g><g transform="translate(2 523)"><path d="M 0 3 L 3 0 L 13 0 L 16 3 L 24 3 L 27 0 L 106 0 L 109 3 L 109 26 L 106 29 L 42 29 L 39 32 L 31 32 L 28 29 L 17 29 L 15 31 L 15 87 L 17 89 L 106 89 L 109 92 L 109 102 L 106 105 L 27 105 L 24 108 L 16 108 L 13 105 L 3 105 L 0 102" class="sb-control sb-bevel"/><text x="0" y="10" class="sb-label " transform="translate(6 8)">repeat</text><g transform="translate(43 2)"><path d="M 12 0 L 48 0 A 12 12 0 0 1 48 24 L 12 24 A 12 12 0 0 1 12 0 Z" class="sb-operators sb-bevel"/><g transform="translate(4 2)"><path d="M 10 0 L 13 0 A 10 10 0 0 1 13 20 L 10 20 A 10 10 0 0 1 10 0 Z" class="sb-variables sb-bevel"/><text x="0" y="10" class="sb-label " transform="translate(8 4)">n</text></g><text x="0" y="10" class="sb-label " transform="translate(31 6)">-</text><g transform="translate(41 5)"><path d="M 6.5 0 L 8.5 0 A 6.5 6.5 0 0 1 8.5 13 L 6.5 13 A 6.5 6.5 0 0 1 6.5 0 Z" class="sb-input sb-input-number"/><text x="0" y="10" class="sb-label sb-literal-number" transform="translate(5 0)">1</text></g></g><use NS2:href="#loopArrow" xmlns:NS2="http://www.w3.org/1999/xlink" transform="translate(94 102)"/><g transform="translate(15 29)"><g transform="translate(0 0)"><path d="M 0 3 L 3 0 L 13 0 L 16 3 L 24 3 L 27 0 L 523 0 L 526 3 L 526 35 L 523 38 L 27 38 L 24 41 L 16 41 L 13 38 L 3 38 L 0 35 Z" class="sb-list sb-bevel"/><text x="0" y="10" class="sb-label " transform="translate(6 13)">insert</text><g transform="translate(40 3)"><path d="M 16 0 L 378 0 A 16 16 0 0 1 378 32 L 16 32 A 16 16 0 0 1 16 0 Z" class="sb-operators sb-bevel"/><g transform="translate(4 4)"><path d="M 12 0 L 110 0 A 12 12 0 0 1 110 24 L 12 24 A 12 12 0 0 1 12 0 Z" class="sb-list sb-bevel"/><text x="0" y="10" class="sb-label " transform="translate(8 6)">item</text><g transform="translate(35 2)"><path d="M 10 0 L 28 0 A 10 10 0 0 1 28 20 L 10 20 A 10 10 0 0 1 10 0 Z" class="sb-variables sb-bevel"/><text x="0" y="10" class="sb-label " transform="translate(8 4)">indx</text></g><text x="0" y="10" class="sb-label " transform="translate(77 6)">of</text><g transform="translate(92 5)"><g width="25" height="14" class="sb-input sb-input-dropdown"><rect x="0" y="0" width="25" height="14" class="sb-list sb-darker"/></g><text x="0" y="10" class="sb-label sb-literal-dropdown" transform="translate(4 0)">d</text><polygon points="7 0 3.5 4 0 0" fill="#000" opacity="0.6" transform="translate(15 5)"/></g></g><text x="0" y="10" class="sb-label " transform="translate(130 10)">-</text><g transform="translate(140 2)"><path d="M 14 0 L 236 0 A 14 14 0 0 1 236 28 L 14 28 A 14 14 0 0 1 14 0 Z" class="sb-operators sb-bevel"/><g transform="translate(4 2)"><path d="M 12 0 L 109 0 A 12 12 0 0 1 109 24 L 12 24 A 12 12 0 0 1 12 0 Z" class="sb-list sb-bevel"/><text x="0" y="10" class="sb-label " transform="translate(8 6)">item</text><g transform="translate(35 2)"><path d="M 10 0 L 28 0 A 10 10 0 0 1 28 20 L 10 20 A 10 10 0 0 1 10 0 Z" class="sb-variables sb-bevel"/><text x="0" y="10" class="sb-label " transform="translate(8 4)">indx</text></g><text x="0" y="10" class="sb-label " transform="translate(77 6)">of</text><g transform="translate(92 5)"><g width="24" height="14" class="sb-input sb-input-dropdown"><rect x="0" y="0" width="24" height="14" class="sb-list sb-darker"/></g><text x="0" y="10" class="sb-label sb-literal-dropdown" transform="translate(4 0)">c</text><polygon points="7 0 3.5 4 0 0" fill="#000" opacity="0.6" transform="translate(14 5)"/></g></g><text x="0" y="10" class="sb-label " transform="translate(129 8)">*</text><g transform="translate(138 4)"><path d="M 10 0 L 98 0 A 10 10 0 0 1 98 20 L 10 20 A 10 10 0 0 1 10 0 Z" class="sb-list sb-bevel"/><text x="0" y="10" class="sb-label " transform="translate(8 4)">item</text><g transform="translate(35 3)"><path d="M 6.5 0 L 17.5 0 A 6.5 6.5 0 0 1 17.5 13 L 6.5 13 A 6.5 6.5 0 0 1 6.5 0 Z" class="sb-input sb-input-number-dropdown"/><text x="0" y="10" class="sb-label sb-literal-number-dropdown" transform="translate(5 0)">1</text><polygon points="7 0 3.5 4 0 0" fill="#000" opacity="0.6" transform="translate(14 4)"/></g><text x="0" y="10" class="sb-label " transform="translate(63 4)">of</text><g transform="translate(78 3)"><g width="25" height="14" class="sb-input sb-input-dropdown"><rect x="0" y="0" width="25" height="14" class="sb-list sb-darker"/></g><text x="0" y="10" class="sb-label sb-literal-dropdown" transform="translate(4 0)">x</text><polygon points="7 0 3.5 4 0 0" fill="#000" opacity="0.6" transform="translate(15 5)"/></g></g></g></g><text x="0" y="10" class="sb-label " transform="translate(438 13)">at</text><g transform="translate(452 12)"><path d="M 6.5 0 L 17.5 0 A 6.5 6.5 0 0 1 17.5 13 L 6.5 13 A 6.5 6.5 0 0 1 6.5 0 Z" class="sb-input sb-input-number-dropdown"/><text x="0" y="10" class="sb-label sb-literal-number-dropdown" transform="translate(5 0)">1</text><polygon points="7 0 3.5 4 0 0" fill="#000" opacity="0.6" transform="translate(14 4)"/></g><text x="0" y="10" class="sb-label " transform="translate(480 13)">of</text><g transform="translate(495 12)"><g width="25" height="14" class="sb-input sb-input-dropdown"><rect x="0" y="0" width="25" height="14" class="sb-list sb-darker"/></g><text x="0" y="10" class="sb-label sb-literal-dropdown" transform="translate(4 0)">x</text><polygon points="7 0 3.5 4 0 0" fill="#000" opacity="0.6" transform="translate(15 5)"/></g></g><g transform="translate(0 38)"><path d="M 0 3 L 3 0 L 13 0 L 16 3 L 24 3 L 27 0 L 128 0 L 131 3 L 131 19 L 128 22 L 27 22 L 24 25 L 16 25 L 13 22 L 3 22 L 0 19 Z" class="sb-variables sb-bevel"/><text x="0" y="10" class="sb-label " transform="translate(6 5)">change</text><g transform="translate(47 4)"><g width="38" height="14" class="sb-input sb-input-dropdown"><rect x="0" y="0" width="38" height="14" class="sb-variables sb-darker"/></g><text x="0" y="10" class="sb-label sb-literal-dropdown" transform="translate(4 0)">indx</text><polygon points="7 0 3.5 4 0 0" fill="#000" opacity="0.6" transform="translate(28 5)"/></g><text x="0" y="10" class="sb-label " transform="translate(89 5)">by</text><g transform="translate(105 4)"><path d="M 6.5 0 L 13.5 0 A 6.5 6.5 0 0 1 13.5 13 L 6.5 13 A 6.5 6.5 0 0 1 6.5 0 Z" class="sb-input sb-input-number"/><text x="0" y="10" class="sb-label sb-literal-number" transform="translate(5 0)">-1</text></g></g></g></g></g></g></svg>