<?xml version="1.0" encoding="UTF-8" standalone="no"?>
<!DOCTYPE svg  PUBLIC '-//W3C//DTD SVG 1.1//EN'  'http://www.w3.org/Graphics/SVG/1.1/DTD/svg11.dtd' [<!ENTITY st0 "fill:#AAB2AB;"><!ENTITY st1 "fill:#FFF;">]>
<svg xmlns="http://www.w3.org/2000/svg" height="31px" width="88px" version="1.1" y="0px" x="0px" viewBox="0 0 88 31">
 <title>Creative Commons “Attribution-Share Alike” license icon</title>
 <path d="m2.499 0.352l83.127 0.148c1.161 0 2.198-0.173 2.198 2.333l-0.102 27.552h-87.321v-27.655c0-1.235 0.119-2.378 2.098-2.378z" fill="#AAB2AB"/>
 <path d="m25.316 14.449c0.003 5.557-4.471 10.065-9.993 10.069-5.522 0.003-10.001-4.5-10.005-10.057v-0.012c-0.003-5.558 4.471-10.066 9.994-10.069 5.522-0.004 10.001 4.5 10.005 10.057-0.001 0.003-0.001 0.007-0.001 0.012zm21.148-11.143c4.349 0 7.875 3.548 7.875 7.925s-3.526 7.926-7.875 7.926c-4.35 0-7.875-3.548-7.875-7.926-0.001-4.377 3.525-7.925 7.875-7.925zm28.632 7.751c0.003 4.314-3.47 7.814-7.757 7.818-4.286 0.003-7.765-3.492-7.769-7.806v-0.012c-0.002-4.314 3.471-7.814 7.758-7.817s7.765 3.492 7.768 7.806v0.011z" fill="#FFF"/>
 <path d="m23.446 6.252c2.217 2.232 3.326 4.964 3.326 8.197s-1.089 5.936-3.269 8.11c-2.313 2.289-5.046 3.434-8.2 3.434-3.116 0-5.802-1.135-8.057-3.405-2.256-2.271-3.383-4.982-3.383-8.138s1.127-5.889 3.383-8.198c2.198-2.232 4.884-3.348 8.057-3.348 3.212 0 5.926 1.116 8.143 3.348zm-14.707 1.501c-1.875 1.905-2.812 4.138-2.812 6.698 0 2.561 0.928 4.773 2.783 6.64s4.064 2.801 6.627 2.801 4.791-0.942 6.684-2.829c1.797-1.752 2.697-3.955 2.697-6.611 0-2.636-0.914-4.874-2.74-6.712s-4.04-2.757-6.641-2.757-4.801 0.923-6.598 2.77zm4.933 5.572c-0.287-0.628-0.715-0.942-1.287-0.942-1.011 0-1.516 0.685-1.516 2.054 0 1.37 0.505 2.055 1.516 2.055 0.667 0 1.145-0.333 1.431-1.002l1.401 0.751c-0.668 1.194-1.67 1.792-3.006 1.792-1.03 0-1.856-0.317-2.476-0.954-0.621-0.636-0.931-1.512-0.931-2.629 0-1.099 0.32-1.97 0.959-2.616s1.436-0.968 2.39-0.968c1.413 0 2.424 0.56 3.035 1.679l-1.516 0.78zm6.593 0c-0.287-0.628-0.707-0.942-1.261-0.942-1.031 0-1.547 0.685-1.547 2.054 0 1.37 0.516 2.055 1.547 2.055 0.669 0 1.137-0.333 1.404-1.002l1.433 0.751c-0.667 1.194-1.667 1.792-3.001 1.792-1.029 0-1.853-0.317-2.473-0.954-0.619-0.636-0.928-1.512-0.928-2.629 0-1.099 0.314-1.97 0.943-2.616 0.628-0.646 1.428-0.968 2.4-0.968 1.41 0 2.42 0.56 3.029 1.679l-1.546 0.78zm66.088-13.325h-84.706c-0.908 0-1.647 0.744-1.647 1.658v28.967c0 0.207 0.167 0.375 0.372 0.375h87.256c0.205 0 0.372-0.168 0.372-0.375v-28.967c0-0.914-0.739-1.658-1.647-1.658zm-84.706 0.749h84.705c0.498 0 0.903 0.408 0.903 0.909v20.109h-60.541c-2.219 4.038-6.494 6.779-11.401 6.779-4.908 0-9.183-2.738-11.4-6.779h-3.169v-20.109c0-0.501 0.405-0.909 0.903-0.909zm65.63 1.751c-2.355 0-4.349 0.827-5.98 2.481-1.675 1.712-2.512 3.737-2.512 6.077s0.837 4.351 2.512 6.034c1.674 1.683 3.668 2.524 5.98 2.524 2.342 0 4.371-0.849 6.089-2.546 1.616-1.611 2.427-3.616 2.427-6.012s-0.824-4.422-2.471-6.077c-1.645-1.654-3.66-2.481-6.045-2.481zm0.022 1.54c1.93 0 3.569 0.685 4.918 2.054 1.361 1.355 2.043 3.01 2.043 4.964 0 1.968-0.666 3.602-2.001 4.9-1.405 1.397-3.058 2.096-4.96 2.096-1.901 0-3.541-0.691-4.917-2.074-1.376-1.384-2.064-3.024-2.064-4.921s0.695-3.552 2.086-4.964c1.332-1.371 2.965-2.055 4.895-2.055zm-3.791 5.809c0.34-2.153 1.846-3.304 3.733-3.304 2.716 0 4.369 1.982 4.369 4.626 0 2.58-1.76 4.584-4.411 4.584-1.824 0-3.457-1.13-3.755-3.347h2.143c0.063 1.151 0.806 1.556 1.866 1.556 1.209 0 1.994-1.13 1.994-2.857 0-1.812-0.679-2.771-1.951-2.771-0.934 0-1.739 0.341-1.909 1.513l0.623-0.003-1.687 1.697-1.686-1.697 0.671 0.003zm-14.765-0.911c0-0.306-0.246-0.553-0.55-0.553h-3.478c-0.303 0-0.55 0.247-0.55 0.553v3.5h0.971v4.145h2.636v-4.145h0.971v-3.5zm-2.288-3.408c0.656 0 1.189 0.536 1.189 1.197s-0.533 1.197-1.189 1.197c-0.657 0-1.189-0.536-1.189-1.197s0.532-1.197 1.189-1.197zm-0.012-3.03c-2.355 0-4.349 0.827-5.981 2.481-1.675 1.711-2.512 3.737-2.512 6.076s0.837 4.351 2.512 6.034c1.674 1.683 3.668 2.524 5.981 2.524 2.342 0 4.371-0.849 6.088-2.547 1.619-1.611 2.428-3.615 2.428-6.012s-0.823-4.421-2.47-6.076c-1.645-1.654-3.661-2.48-6.046-2.48zm0.022 1.539c1.93 0 3.569 0.685 4.917 2.054 1.363 1.355 2.044 3.01 2.044 4.963 0 1.968-0.666 3.602-2.001 4.9-1.405 1.398-3.058 2.096-4.96 2.096-1.901 0-3.541-0.691-4.917-2.075-1.377-1.383-2.065-3.023-2.065-4.921 0-1.896 0.695-3.551 2.086-4.963 1.334-1.369 2.966-2.054 4.896-2.054z"/>
 <path d="m69.277 24.171l1.816 4.888h-1.109l-0.367-1.089h-1.816l-0.381 1.089h-1.074l1.836-4.888h1.095zm0.062 2.997l-0.612-1.793h-0.014l-0.633 1.793h1.259zm-6.079 0.682c0.059 0.115 0.137 0.207 0.234 0.277 0.098 0.071 0.211 0.124 0.342 0.158 0.133 0.034 0.268 0.051 0.408 0.051 0.095 0 0.197-0.008 0.306-0.023s0.21-0.047 0.306-0.093c0.094-0.046 0.174-0.108 0.236-0.188 0.064-0.08 0.096-0.181 0.096-0.305 0-0.132-0.042-0.238-0.126-0.321-0.083-0.083-0.194-0.15-0.329-0.206-0.136-0.055-0.29-0.102-0.461-0.143-0.173-0.042-0.348-0.088-0.523-0.138-0.182-0.046-0.358-0.102-0.531-0.167-0.171-0.066-0.325-0.152-0.461-0.258-0.137-0.104-0.246-0.235-0.33-0.393-0.083-0.158-0.125-0.349-0.125-0.572 0-0.252 0.053-0.469 0.16-0.654 0.105-0.184 0.246-0.338 0.418-0.462 0.172-0.123 0.366-0.214 0.584-0.274 0.217-0.059 0.436-0.088 0.652-0.088 0.254 0 0.497 0.028 0.73 0.086 0.232 0.057 0.44 0.149 0.621 0.277 0.182 0.127 0.326 0.291 0.432 0.49 0.107 0.198 0.16 0.439 0.16 0.723h-1.036c-0.009-0.146-0.04-0.268-0.091-0.363-0.053-0.096-0.121-0.172-0.207-0.227s-0.184-0.094-0.295-0.115c-0.11-0.023-0.23-0.035-0.361-0.035-0.086 0-0.172 0.01-0.258 0.027-0.086 0.019-0.163 0.051-0.232 0.096-0.07 0.047-0.129 0.104-0.174 0.172s-0.067 0.155-0.067 0.26c0 0.096 0.019 0.174 0.054 0.232 0.037 0.061 0.109 0.115 0.215 0.165s0.254 0.101 0.441 0.151c0.188 0.049 0.434 0.113 0.736 0.191 0.092 0.018 0.217 0.051 0.377 0.1 0.161 0.047 0.32 0.123 0.479 0.229 0.159 0.105 0.296 0.246 0.412 0.422 0.115 0.176 0.173 0.4 0.173 0.674 0 0.225-0.044 0.432-0.13 0.623-0.086 0.192-0.214 0.357-0.384 0.496-0.171 0.141-0.381 0.248-0.632 0.326-0.252 0.078-0.544 0.116-0.874 0.116-0.268 0-0.527-0.033-0.779-0.1-0.251-0.065-0.474-0.171-0.667-0.312-0.192-0.143-0.346-0.323-0.459-0.543-0.113-0.219-0.168-0.479-0.163-0.78h1.036c-0.001 0.165 0.028 0.304 0.087 0.418zm-17.287-3.679h1.198l1.138 1.931 1.13-1.931h1.19l-1.803 3.012v1.876h-1.07v-1.903l-1.783-2.985zm-1.975 0c0.231 0 0.442 0.021 0.633 0.062s0.354 0.108 0.491 0.201c0.136 0.094 0.241 0.219 0.316 0.373 0.075 0.155 0.112 0.348 0.112 0.575 0 0.247-0.055 0.451-0.167 0.616-0.11 0.164-0.276 0.298-0.493 0.402 0.3 0.088 0.523 0.239 0.672 0.456 0.148 0.218 0.223 0.479 0.223 0.784 0 0.246-0.049 0.46-0.144 0.641-0.095 0.18-0.224 0.327-0.386 0.441-0.161 0.114-0.346 0.199-0.552 0.254-0.207 0.055-0.419 0.082-0.638 0.082h-2.358v-4.888h2.291v0.001zm-0.137 1.976c0.191 0 0.347-0.046 0.47-0.136 0.123-0.092 0.185-0.239 0.185-0.444 0-0.114-0.021-0.208-0.062-0.28s-0.095-0.129-0.164-0.17-0.146-0.07-0.235-0.086c-0.089-0.016-0.181-0.023-0.276-0.023h-1v1.14h1.082zm0.062 2.075c0.105 0 0.205-0.01 0.3-0.03 0.095-0.021 0.18-0.055 0.252-0.104 0.073-0.047 0.13-0.112 0.174-0.194s0.065-0.187 0.065-0.315c0-0.25-0.071-0.43-0.212-0.536-0.141-0.107-0.328-0.161-0.559-0.161h-1.166v1.341h1.146z" fill="#FFF"/>
</svg>
